<?xml version="1.0" encoding="UTF-8" standalone="no"?>
<!DOCTYPE svg PUBLIC "-//W3C//DTD SVG 1.1//EN"
 "http://www.w3.org/Graphics/SVG/1.1/DTD/svg11.dtd">
<!-- Generated by graphviz version 14.0.2 (20251019.1705)
 -->
<!-- Pages: 1 -->
<svg width="1037pt" height="182pt"
 viewBox="0.00 0.00 1037.00 182.00" xmlns="http://www.w3.org/2000/svg" xmlns:xlink="http://www.w3.org/1999/xlink">
<g id="graph0" class="graph" transform="scale(1 1) rotate(0) translate(4 177.94)">
<polygon fill="white" stroke="none" points="-4,4 -4,-177.94 1032.75,-177.94 1032.75,4 -4,4"/>
<!-- &#45;1 -->
<g id="node1" class="node">
<title>&#45;1</title>
<polygon fill="lightgray" stroke="black" points="23.5,-173.94 0,-173.94 0,-155.44 23.5,-155.44 23.5,-173.94"/>
<text xml:space="preserve" text-anchor="middle" x="11.75" y="-161.39" font-family="Times New Roman,serif" font-size="9.00">&#45;1</text>
</g>
<!-- &#45;2 -->
<g id="node2" class="node">
<title>&#45;2</title>
<polygon fill="lightgray" stroke="black" points="65.5,-173.94 42,-173.94 42,-155.44 65.5,-155.44 65.5,-173.94"/>
<text xml:space="preserve" text-anchor="middle" x="53.75" y="-161.39" font-family="Times New Roman,serif" font-size="9.00">&#45;2</text>
</g>
<!-- 1 -->
<g id="node24" class="node">
<title>1</title>
<ellipse fill="lightblue" stroke="black" cx="139.75" cy="-92.21" rx="14.5" ry="14.5"/>
<text xml:space="preserve" text-anchor="middle" x="139.75" y="-88.91" font-family="Times New Roman,serif" font-size="9.00">1</text>
</g>
<!-- &#45;2&#45;&gt;1 -->
<g id="edge9" class="edge">
<title>&#45;2&#45;&gt;1</title>
<path fill="none" stroke="green" stroke-width="0.91" stroke-dasharray="1,5" d="M64.3,-155.05C78.15,-143.7 102.74,-123.54 120.08,-109.34"/>
<polygon fill="green" stroke="green" stroke-width="0.91" points="122.27,-112.06 127.79,-103.02 117.83,-106.65 122.27,-112.06"/>
</g>
<!-- &#45;3 -->
<g id="node3" class="node">
<title>&#45;3</title>
<polygon fill="lightgray" stroke="black" points="326.5,-173.94 303,-173.94 303,-155.44 326.5,-155.44 326.5,-173.94"/>
<text xml:space="preserve" text-anchor="middle" x="314.75" y="-161.39" font-family="Times New Roman,serif" font-size="9.00">&#45;3</text>
</g>
<!-- 0 -->
<g id="node23" class="node">
<title>0</title>
<ellipse fill="lightblue" stroke="black" cx="420.75" cy="-14.5" rx="14.5" ry="14.5"/>
<text xml:space="preserve" text-anchor="middle" x="420.75" y="-11.2" font-family="Times New Roman,serif" font-size="9.00">0</text>
</g>
<!-- &#45;3&#45;&gt;0 -->
<g id="edge3" class="edge">
<title>&#45;3&#45;&gt;0</title>
<path fill="none" stroke="green" stroke-width="0.6" stroke-dasharray="1,5" d="M310.69,-155.17C302.65,-136.93 287.02,-93.45 305.75,-64.99 325.62,-34.81 368.18,-22.95 395.58,-18.35"/>
<polygon fill="green" stroke="green" stroke-width="0.6" points="396,-21.83 405.39,-16.92 394.99,-14.9 396,-21.83"/>
</g>
<!-- 75920 -->
<g id="node28" class="node">
<title>75920</title>
<ellipse fill="white" stroke="black" cx="341.75" cy="-92.21" rx="27.22" ry="27.22"/>
<text xml:space="preserve" text-anchor="middle" x="341.75" y="-88.91" font-family="Times New Roman,serif" font-size="9.00">75920</text>
</g>
<!-- &#45;3&#45;&gt;75920 -->
<g id="edge12" class="edge">
<title>&#45;3&#45;&gt;75920</title>
<path fill="none" stroke="green" stroke-width="0.17" d="M318.06,-155.05C320.76,-148.01 324.75,-137.6 328.69,-127.31"/>
<polygon fill="green" stroke="green" stroke-width="0.17" points="331.85,-128.83 332.16,-118.24 325.32,-126.33 331.85,-128.83"/>
</g>
<!-- &#45;4 -->
<g id="node4" class="node">
<title>&#45;4</title>
<polygon fill="lightgray" stroke="black" points="580.5,-173.94 557,-173.94 557,-155.44 580.5,-155.44 580.5,-173.94"/>
<text xml:space="preserve" text-anchor="middle" x="568.75" y="-161.39" font-family="Times New Roman,serif" font-size="9.00">&#45;4</text>
</g>
<!-- &#45;5 -->
<g id="node5" class="node">
<title>&#45;5</title>
<polygon fill="lightgray" stroke="black" points="107.5,-173.94 84,-173.94 84,-155.44 107.5,-155.44 107.5,-173.94"/>
<text xml:space="preserve" text-anchor="middle" x="95.75" y="-161.39" font-family="Times New Roman,serif" font-size="9.00">&#45;5</text>
</g>
<!-- &#45;5&#45;&gt;1 -->
<g id="edge6" class="edge">
<title>&#45;5&#45;&gt;1</title>
<path fill="none" stroke="green" stroke-width="0.32" stroke-dasharray="1,5" d="M101.15,-155.05C107.56,-144.77 118.47,-127.29 127.07,-113.53"/>
<polygon fill="green" stroke="green" stroke-width="0.32" points="129.97,-115.49 132.3,-105.15 124.03,-111.78 129.97,-115.49"/>
</g>
<!-- &#45;6 -->
<g id="node6" class="node">
<title>&#45;6</title>
<polygon fill="lightgray" stroke="black" points="622.5,-173.94 599,-173.94 599,-155.44 622.5,-155.44 622.5,-173.94"/>
<text xml:space="preserve" text-anchor="middle" x="610.75" y="-161.39" font-family="Times New Roman,serif" font-size="9.00">&#45;6</text>
</g>
<!-- &#45;7 -->
<g id="node7" class="node">
<title>&#45;7</title>
<polygon fill="lightgray" stroke="black" points="664.5,-173.94 641,-173.94 641,-155.44 664.5,-155.44 664.5,-173.94"/>
<text xml:space="preserve" text-anchor="middle" x="652.75" y="-161.39" font-family="Times New Roman,serif" font-size="9.00">&#45;7</text>
</g>
<!-- &#45;8 -->
<g id="node8" class="node">
<title>&#45;8</title>
<polygon fill="lightgray" stroke="black" points="410.5,-101.46 387,-101.46 387,-82.96 410.5,-82.96 410.5,-101.46"/>
<text xml:space="preserve" text-anchor="middle" x="398.75" y="-88.91" font-family="Times New Roman,serif" font-size="9.00">&#45;8</text>
</g>
<!-- &#45;8&#45;&gt;0 -->
<g id="edge1" class="edge">
<title>&#45;8&#45;&gt;0</title>
<path fill="none" stroke="red" stroke-width="0.33" stroke-dasharray="1,5" d="M401.27,-82.53C404.34,-71.96 409.65,-53.71 413.95,-38.91"/>
<polygon fill="red" stroke="red" stroke-width="0.33" points="417.29,-39.96 416.71,-29.38 410.56,-38.01 417.29,-39.96"/>
</g>
<!-- &#45;9 -->
<g id="node9" class="node">
<title>&#45;9</title>
<polygon fill="lightgray" stroke="black" points="706.5,-173.94 683,-173.94 683,-155.44 706.5,-155.44 706.5,-173.94"/>
<text xml:space="preserve" text-anchor="middle" x="694.75" y="-161.39" font-family="Times New Roman,serif" font-size="9.00">&#45;9</text>
</g>
<!-- &#45;10 -->
<g id="node10" class="node">
<title>&#45;10</title>
<polygon fill="lightgray" stroke="black" points="492.75,-173.94 464.75,-173.94 464.75,-155.44 492.75,-155.44 492.75,-173.94"/>
<text xml:space="preserve" text-anchor="middle" x="478.75" y="-161.39" font-family="Times New Roman,serif" font-size="9.00">&#45;10</text>
</g>
<!-- 63395 -->
<g id="node25" class="node">
<title>63395</title>
<ellipse fill="white" stroke="black" cx="501.75" cy="-92.21" rx="27.22" ry="27.22"/>
<text xml:space="preserve" text-anchor="middle" x="501.75" y="-88.91" font-family="Times New Roman,serif" font-size="9.00">63395</text>
</g>
<!-- &#45;10&#45;&gt;63395 -->
<g id="edge10" class="edge">
<title>&#45;10&#45;&gt;63395</title>
<path fill="none" stroke="red" stroke-width="0.59" stroke-dasharray="1,5" d="M481.57,-155.05C483.76,-148.34 486.95,-138.55 490.16,-128.73"/>
<polygon fill="red" stroke="red" stroke-width="0.59" points="493.41,-130.06 493.18,-119.46 486.75,-127.88 493.41,-130.06"/>
</g>
<!-- &#45;11 -->
<g id="node11" class="node">
<title>&#45;11</title>
<polygon fill="lightgray" stroke="black" points="752.75,-173.94 724.75,-173.94 724.75,-155.44 752.75,-155.44 752.75,-173.94"/>
<text xml:space="preserve" text-anchor="middle" x="738.75" y="-161.39" font-family="Times New Roman,serif" font-size="9.00">&#45;11</text>
</g>
<!-- &#45;12 -->
<g id="node12" class="node">
<title>&#45;12</title>
<polygon fill="lightgray" stroke="black" points="798.75,-173.94 770.75,-173.94 770.75,-155.44 798.75,-155.44 798.75,-173.94"/>
<text xml:space="preserve" text-anchor="middle" x="784.75" y="-161.39" font-family="Times New Roman,serif" font-size="9.00">&#45;12</text>
</g>
<!-- &#45;13 -->
<g id="node13" class="node">
<title>&#45;13</title>
<polygon fill="lightgray" stroke="black" points="456.75,-101.46 428.75,-101.46 428.75,-82.96 456.75,-82.96 456.75,-101.46"/>
<text xml:space="preserve" text-anchor="middle" x="442.75" y="-88.91" font-family="Times New Roman,serif" font-size="9.00">&#45;13</text>
</g>
<!-- &#45;13&#45;&gt;0 -->
<g id="edge2" class="edge">
<title>&#45;13&#45;&gt;0</title>
<path fill="none" stroke="green" stroke-width="0.61" stroke-dasharray="1,5" d="M440.23,-82.53C437.19,-72.07 431.95,-54.06 427.68,-39.34"/>
<polygon fill="green" stroke="green" stroke-width="0.61" points="431.06,-38.42 424.9,-29.8 424.33,-40.37 431.06,-38.42"/>
</g>
<!-- &#45;14 -->
<g id="node14" class="node">
<title>&#45;14</title>
<polygon fill="lightgray" stroke="black" points="844.75,-173.94 816.75,-173.94 816.75,-155.44 844.75,-155.44 844.75,-173.94"/>
<text xml:space="preserve" text-anchor="middle" x="830.75" y="-161.39" font-family="Times New Roman,serif" font-size="9.00">&#45;14</text>
</g>
<!-- &#45;15 -->
<g id="node15" class="node">
<title>&#45;15</title>
<polygon fill="lightgray" stroke="black" points="153.75,-173.94 125.75,-173.94 125.75,-155.44 153.75,-155.44 153.75,-173.94"/>
<text xml:space="preserve" text-anchor="middle" x="139.75" y="-161.39" font-family="Times New Roman,serif" font-size="9.00">&#45;15</text>
</g>
<!-- &#45;15&#45;&gt;1 -->
<g id="edge7" class="edge">
<title>&#45;15&#45;&gt;1</title>
<path fill="none" stroke="red" stroke-width="0.22" stroke-dasharray="1,5" d="M139.75,-155.05C139.75,-145.69 139.75,-130.34 139.75,-117.28"/>
<polygon fill="red" stroke="red" stroke-width="0.22" points="143.25,-117.36 139.75,-107.36 136.25,-117.36 143.25,-117.36"/>
</g>
<!-- &#45;16 -->
<g id="node16" class="node">
<title>&#45;16</title>
<polygon fill="lightgray" stroke="black" points="890.75,-173.94 862.75,-173.94 862.75,-155.44 890.75,-155.44 890.75,-173.94"/>
<text xml:space="preserve" text-anchor="middle" x="876.75" y="-161.39" font-family="Times New Roman,serif" font-size="9.00">&#45;16</text>
</g>
<!-- &#45;17 -->
<g id="node17" class="node">
<title>&#45;17</title>
<polygon fill="lightgray" stroke="black" points="936.75,-173.94 908.75,-173.94 908.75,-155.44 936.75,-155.44 936.75,-173.94"/>
<text xml:space="preserve" text-anchor="middle" x="922.75" y="-161.39" font-family="Times New Roman,serif" font-size="9.00">&#45;17</text>
</g>
<!-- &#45;18 -->
<g id="node18" class="node">
<title>&#45;18</title>
<polygon fill="lightgray" stroke="black" points="199.75,-173.94 171.75,-173.94 171.75,-155.44 199.75,-155.44 199.75,-173.94"/>
<text xml:space="preserve" text-anchor="middle" x="185.75" y="-161.39" font-family="Times New Roman,serif" font-size="9.00">&#45;18</text>
</g>
<!-- &#45;18&#45;&gt;1 -->
<g id="edge8" class="edge">
<title>&#45;18&#45;&gt;1</title>
<path fill="none" stroke="green" stroke-width="2.04" d="M180.11,-155.05C173.73,-145.27 163.08,-128.96 154.32,-115.54"/>
<polygon fill="green" stroke="green" stroke-width="2.04" points="157.35,-113.78 148.96,-107.32 151.49,-117.6 157.35,-113.78"/>
</g>
<!-- &#45;19 -->
<g id="node19" class="node">
<title>&#45;19</title>
<polygon fill="lightgray" stroke="black" points="982.75,-173.94 954.75,-173.94 954.75,-155.44 982.75,-155.44 982.75,-173.94"/>
<text xml:space="preserve" text-anchor="middle" x="968.75" y="-161.39" font-family="Times New Roman,serif" font-size="9.00">&#45;19</text>
</g>
<!-- &#45;20 -->
<g id="node20" class="node">
<title>&#45;20</title>
<polygon fill="lightgray" stroke="black" points="538.75,-173.94 510.75,-173.94 510.75,-155.44 538.75,-155.44 538.75,-173.94"/>
<text xml:space="preserve" text-anchor="middle" x="524.75" y="-161.39" font-family="Times New Roman,serif" font-size="9.00">&#45;20</text>
</g>
<!-- &#45;20&#45;&gt;63395 -->
<g id="edge5" class="edge">
<title>&#45;20&#45;&gt;63395</title>
<path fill="none" stroke="red" stroke-width="0.5" stroke-dasharray="1,5" d="M521.93,-155.05C519.74,-148.34 516.55,-138.55 513.34,-128.73"/>
<polygon fill="red" stroke="red" stroke-width="0.5" points="516.71,-127.77 510.28,-119.34 510.05,-129.94 516.71,-127.77"/>
</g>
<!-- &#45;21 -->
<g id="node21" class="node">
<title>&#45;21</title>
<polygon fill="lightgray" stroke="black" points="1028.75,-173.94 1000.75,-173.94 1000.75,-155.44 1028.75,-155.44 1028.75,-173.94"/>
<text xml:space="preserve" text-anchor="middle" x="1014.75" y="-161.39" font-family="Times New Roman,serif" font-size="9.00">&#45;21</text>
</g>
<!-- &#45;22 -->
<g id="node22" class="node">
<title>&#45;22</title>
<polygon fill="lightgray" stroke="black" points="245.75,-173.94 217.75,-173.94 217.75,-155.44 245.75,-155.44 245.75,-173.94"/>
<text xml:space="preserve" text-anchor="middle" x="231.75" y="-161.39" font-family="Times New Roman,serif" font-size="9.00">&#45;22</text>
</g>
<!-- &#45;22&#45;&gt;1 -->
<g id="edge15" class="edge">
<title>&#45;22&#45;&gt;1</title>
<path fill="none" stroke="red" stroke-width="0.13" stroke-dasharray="1,5" d="M220.47,-155.05C205.16,-143.32 177.57,-122.19 158.97,-107.93"/>
<polygon fill="red" stroke="red" stroke-width="0.13" points="161.35,-105.35 151.28,-102.05 157.09,-110.91 161.35,-105.35"/>
</g>
<!-- 73194 -->
<g id="node26" class="node">
<title>73194</title>
<ellipse fill="white" stroke="black" cx="231.75" cy="-92.21" rx="27.22" ry="27.22"/>
<text xml:space="preserve" text-anchor="middle" x="231.75" y="-88.91" font-family="Times New Roman,serif" font-size="9.00">73194</text>
</g>
<!-- &#45;22&#45;&gt;73194 -->
<g id="edge13" class="edge">
<title>&#45;22&#45;&gt;73194</title>
<path fill="none" stroke="red" stroke-width="0.19" d="M231.75,-155.05C231.75,-148.62 231.75,-139.38 231.75,-129.99"/>
<polygon fill="red" stroke="red" stroke-width="0.19" points="235.25,-130.16 231.75,-120.16 228.25,-130.16 235.25,-130.16"/>
</g>
<!-- 63395&#45;&gt;0 -->
<g id="edge11" class="edge">
<title>63395&#45;&gt;0</title>
<path fill="none" stroke="green" stroke-width="0.49" stroke-dasharray="1,5" d="M482.14,-72.89C468.93,-60.53 451.63,-44.37 438.77,-32.34"/>
<polygon fill="green" stroke="green" stroke-width="0.49" points="441.28,-29.9 431.59,-25.63 436.5,-35.01 441.28,-29.9"/>
</g>
<!-- 73482 -->
<g id="node27" class="node">
<title>73482</title>
<ellipse fill="white" stroke="black" cx="573.75" cy="-92.21" rx="27.22" ry="27.22"/>
<text xml:space="preserve" text-anchor="middle" x="573.75" y="-88.91" font-family="Times New Roman,serif" font-size="9.00">73482</text>
</g>
<!-- 73482&#45;&gt;0 -->
<g id="edge4" class="edge">
<title>73482&#45;&gt;0</title>
<path fill="none" stroke="green" stroke-width="0.27" d="M552.59,-74.57C547.84,-71.19 542.73,-67.81 537.75,-64.99 506.82,-47.49 468.46,-32.41 444.29,-23.64"/>
<polygon fill="green" stroke="green" stroke-width="0.27" points="445.54,-20.37 434.95,-20.31 443.19,-26.96 445.54,-20.37"/>
</g>
<!-- 75920&#45;&gt;0 -->
<g id="edge14" class="edge">
<title>75920&#45;&gt;0</title>
<path fill="none" stroke="red" stroke-width="0.18" d="M360.87,-72.89C373.88,-60.42 390.95,-44.06 403.54,-32"/>
<polygon fill="red" stroke="red" stroke-width="0.18" points="405.72,-34.75 410.52,-25.3 400.88,-29.7 405.72,-34.75"/>
</g>
</g>
</svg>
