<?xml version="1.0" encoding="UTF-8" standalone="no"?>
<!DOCTYPE svg PUBLIC "-//W3C//DTD SVG 1.1//EN"
 "http://www.w3.org/Graphics/SVG/1.1/DTD/svg11.dtd">
<!-- Generated by graphviz version 14.0.2 (20251019.1705)
 -->
<!-- Pages: 1 -->
<svg width="840pt" height="456pt"
 viewBox="0.00 0.00 840.00 456.00" xmlns="http://www.w3.org/2000/svg" xmlns:xlink="http://www.w3.org/1999/xlink">
<g id="graph0" class="graph" transform="scale(1 1) rotate(0) translate(4 452.06)">
<polygon fill="white" stroke="none" points="-4,4 -4,-452.06 835.9,-452.06 835.9,4 -4,4"/>
<!-- &#45;1 -->
<g id="node1" class="node">
<title>&#45;1</title>
<polygon fill="lightgray" stroke="black" points="197.25,-426.9 173.75,-426.9 173.75,-408.4 197.25,-408.4 197.25,-426.9"/>
<text xml:space="preserve" text-anchor="middle" x="185.5" y="-414.35" font-family="Times New Roman,serif" font-size="9.00">&#45;1</text>
</g>
<!-- &#45;2 -->
<g id="node2" class="node">
<title>&#45;2</title>
<polygon fill="lightgray" stroke="black" points="239.25,-426.9 215.75,-426.9 215.75,-408.4 239.25,-408.4 239.25,-426.9"/>
<text xml:space="preserve" text-anchor="middle" x="227.5" y="-414.35" font-family="Times New Roman,serif" font-size="9.00">&#45;2</text>
</g>
<!-- &#45;3 -->
<g id="node3" class="node">
<title>&#45;3</title>
<polygon fill="lightgray" stroke="black" points="26.25,-136.47 2.75,-136.47 2.75,-117.97 26.25,-117.97 26.25,-136.47"/>
<text xml:space="preserve" text-anchor="middle" x="14.5" y="-123.92" font-family="Times New Roman,serif" font-size="9.00">&#45;3</text>
</g>
<!-- 0 -->
<g id="node15" class="node">
<title>0</title>
<ellipse fill="lightblue" stroke="black" cx="14.5" cy="-30.41" rx="14.5" ry="14.5"/>
<text xml:space="preserve" text-anchor="middle" x="14.5" y="-27.11" font-family="Times New Roman,serif" font-size="9.00">0</text>
</g>
<!-- &#45;3&#45;&gt;0 -->
<g id="edge2" class="edge">
<title>&#45;3&#45;&gt;0</title>
<path fill="none" stroke="green" stroke-width="1.07" d="M14.5,-117.47C14.5,-103.8 14.5,-76.87 14.5,-56.76"/>
<polygon fill="green" stroke="green" stroke-width="1.07" points="18,-56.91 14.5,-46.91 11,-56.91 18,-56.91"/>
</g>
<!-- 877257 -->
<g id="node16" class="node">
<title>877257</title>
<ellipse fill="white" stroke="black" cx="180.5" cy="-30.41" rx="30.41" ry="30.41"/>
<text xml:space="preserve" text-anchor="middle" x="180.5" y="-27.11" font-family="Times New Roman,serif" font-size="9.00">877257</text>
</g>
<!-- &#45;3&#45;&gt;877257 -->
<g id="edge5" class="edge">
<title>&#45;3&#45;&gt;877257</title>
<path fill="none" stroke="red" stroke-width="0.22" stroke-dasharray="1,5" d="M20.56,-117.63C25.39,-111.26 32.64,-102.69 40.5,-96.81 71.67,-73.51 112.48,-55.61 141.99,-44.47"/>
<polygon fill="red" stroke="red" stroke-width="0.22" points="143.05,-47.81 151.23,-41.07 140.63,-41.24 143.05,-47.81"/>
</g>
<!-- &#45;4 -->
<g id="node4" class="node">
<title>&#45;4</title>
<polygon fill="lightgray" stroke="black" points="359.25,-426.9 335.75,-426.9 335.75,-408.4 359.25,-408.4 359.25,-426.9"/>
<text xml:space="preserve" text-anchor="middle" x="347.5" y="-414.35" font-family="Times New Roman,serif" font-size="9.00">&#45;4</text>
</g>
<!-- &#45;5 -->
<g id="node5" class="node">
<title>&#45;5</title>
<polygon fill="lightgray" stroke="black" points="401.25,-426.9 377.75,-426.9 377.75,-408.4 401.25,-408.4 401.25,-426.9"/>
<text xml:space="preserve" text-anchor="middle" x="389.5" y="-414.35" font-family="Times New Roman,serif" font-size="9.00">&#45;5</text>
</g>
<!-- &#45;6 -->
<g id="node6" class="node">
<title>&#45;6</title>
<polygon fill="lightgray" stroke="black" points="443.25,-426.9 419.75,-426.9 419.75,-408.4 443.25,-408.4 443.25,-426.9"/>
<text xml:space="preserve" text-anchor="middle" x="431.5" y="-414.35" font-family="Times New Roman,serif" font-size="9.00">&#45;6</text>
</g>
<!-- &#45;7 -->
<g id="node7" class="node">
<title>&#45;7</title>
<polygon fill="lightgray" stroke="black" points="485.25,-426.9 461.75,-426.9 461.75,-408.4 485.25,-408.4 485.25,-426.9"/>
<text xml:space="preserve" text-anchor="middle" x="473.5" y="-414.35" font-family="Times New Roman,serif" font-size="9.00">&#45;7</text>
</g>
<!-- &#45;8 -->
<g id="node8" class="node">
<title>&#45;8</title>
<polygon fill="lightgray" stroke="black" points="527.25,-426.9 503.75,-426.9 503.75,-408.4 527.25,-408.4 527.25,-426.9"/>
<text xml:space="preserve" text-anchor="middle" x="515.5" y="-414.35" font-family="Times New Roman,serif" font-size="9.00">&#45;8</text>
</g>
<!-- &#45;9 -->
<g id="node9" class="node">
<title>&#45;9</title>
<polygon fill="lightgray" stroke="black" points="569.25,-426.9 545.75,-426.9 545.75,-408.4 569.25,-408.4 569.25,-426.9"/>
<text xml:space="preserve" text-anchor="middle" x="557.5" y="-414.35" font-family="Times New Roman,serif" font-size="9.00">&#45;9</text>
</g>
<!-- &#45;10 -->
<g id="node10" class="node">
<title>&#45;10</title>
<polygon fill="lightgray" stroke="black" points="126.5,-233.28 98.5,-233.28 98.5,-214.78 126.5,-214.78 126.5,-233.28"/>
<text xml:space="preserve" text-anchor="middle" x="112.5" y="-220.73" font-family="Times New Roman,serif" font-size="9.00">&#45;10</text>
</g>
<!-- &#45;10&#45;&gt;877257 -->
<g id="edge1" class="edge">
<title>&#45;10&#45;&gt;877257</title>
<path fill="none" stroke="green" stroke-width="0.41" stroke-dasharray="1,5" d="M105.49,-214.57C88.96,-193.54 50.61,-137.62 73.5,-96.81 88,-70.94 117.37,-54.08 141.67,-43.97"/>
<polygon fill="green" stroke="green" stroke-width="0.41" points="142.77,-47.3 150.8,-40.4 140.21,-40.78 142.77,-47.3"/>
</g>
<!-- 908932 -->
<g id="node21" class="node">
<title>908932</title>
<ellipse fill="white" stroke="black" cx="112.5" cy="-127.22" rx="30.41" ry="30.41"/>
<text xml:space="preserve" text-anchor="middle" x="112.5" y="-123.92" font-family="Times New Roman,serif" font-size="9.00">908932</text>
</g>
<!-- &#45;10&#45;&gt;908932 -->
<g id="edge11" class="edge">
<title>&#45;10&#45;&gt;908932</title>
<path fill="none" stroke="green" stroke-width="0.46" stroke-dasharray="1,5" d="M112.5,-214.28C112.5,-203.72 112.5,-185.26 112.5,-168.14"/>
<polygon fill="green" stroke="green" stroke-width="0.46" points="116,-168.42 112.5,-158.42 109,-168.42 116,-168.42"/>
</g>
<!-- 913161 -->
<g id="node23" class="node">
<title>913161</title>
<ellipse fill="white" stroke="black" cx="191.5" cy="-127.22" rx="30.41" ry="30.41"/>
<text xml:space="preserve" text-anchor="middle" x="191.5" y="-123.92" font-family="Times New Roman,serif" font-size="9.00">913161</text>
</g>
<!-- &#45;10&#45;&gt;913161 -->
<g id="edge13" class="edge">
<title>&#45;10&#45;&gt;913161</title>
<path fill="none" stroke="green" stroke-width="0.31" d="M119.79,-214.28C130.15,-201.84 149.66,-178.43 165.71,-159.16"/>
<polygon fill="green" stroke="green" stroke-width="0.31" points="168.34,-161.48 172.05,-151.55 162.96,-157 168.34,-161.48"/>
</g>
<!-- &#45;11 -->
<g id="node11" class="node">
<title>&#45;11</title>
<polygon fill="lightgray" stroke="black" points="615.5,-426.9 587.5,-426.9 587.5,-408.4 615.5,-408.4 615.5,-426.9"/>
<text xml:space="preserve" text-anchor="middle" x="601.5" y="-414.35" font-family="Times New Roman,serif" font-size="9.00">&#45;11</text>
</g>
<!-- &#45;12 -->
<g id="node12" class="node">
<title>&#45;12</title>
<polygon fill="lightgray" stroke="black" points="661.5,-426.9 633.5,-426.9 633.5,-408.4 661.5,-408.4 661.5,-426.9"/>
<text xml:space="preserve" text-anchor="middle" x="647.5" y="-414.35" font-family="Times New Roman,serif" font-size="9.00">&#45;12</text>
</g>
<!-- &#45;13 -->
<g id="node13" class="node">
<title>&#45;13</title>
<polygon fill="lightgray" stroke="black" points="707.5,-426.9 679.5,-426.9 679.5,-408.4 707.5,-408.4 707.5,-426.9"/>
<text xml:space="preserve" text-anchor="middle" x="693.5" y="-414.35" font-family="Times New Roman,serif" font-size="9.00">&#45;13</text>
</g>
<!-- &#45;14 -->
<g id="node14" class="node">
<title>&#45;14</title>
<polygon fill="lightgray" stroke="black" points="753.5,-426.9 725.5,-426.9 725.5,-408.4 753.5,-408.4 753.5,-426.9"/>
<text xml:space="preserve" text-anchor="middle" x="739.5" y="-414.35" font-family="Times New Roman,serif" font-size="9.00">&#45;14</text>
</g>
<!-- 895006 -->
<g id="node17" class="node">
<title>895006</title>
<ellipse fill="white" stroke="black" cx="801.5" cy="-417.65" rx="30.41" ry="30.41"/>
<text xml:space="preserve" text-anchor="middle" x="801.5" y="-414.35" font-family="Times New Roman,serif" font-size="9.00">895006</text>
</g>
<!-- 900392 -->
<g id="node18" class="node">
<title>900392</title>
<ellipse fill="white" stroke="black" cx="287.5" cy="-417.65" rx="30.41" ry="30.41"/>
<text xml:space="preserve" text-anchor="middle" x="287.5" y="-414.35" font-family="Times New Roman,serif" font-size="9.00">900392</text>
</g>
<!-- 900392&#45;&gt;877257 -->
<g id="edge4" class="edge">
<title>900392&#45;&gt;877257</title>
<path fill="none" stroke="green" stroke-width="0.59" stroke-dasharray="1,5" d="M286.84,-387.08C284.58,-329 274.57,-196.96 230.5,-96.81 224.96,-84.24 216.54,-71.89 208.17,-61.37"/>
<polygon fill="green" stroke="green" stroke-width="0.59" points="210.88,-59.14 201.8,-53.68 205.49,-63.61 210.88,-59.14"/>
</g>
<!-- 906464 -->
<g id="node19" class="node">
<title>906464</title>
<ellipse fill="white" stroke="black" cx="307.5" cy="-127.22" rx="30.41" ry="30.41"/>
<text xml:space="preserve" text-anchor="middle" x="307.5" y="-123.92" font-family="Times New Roman,serif" font-size="9.00">906464</text>
</g>
<!-- 900392&#45;&gt;906464 -->
<g id="edge9" class="edge">
<title>900392&#45;&gt;906464</title>
<path fill="none" stroke="green" stroke-width="0.29" stroke-dasharray="1,5" d="M289.56,-386.87C293.18,-334.7 300.66,-226.78 304.72,-168.18"/>
<polygon fill="green" stroke="green" stroke-width="0.29" points="308.21,-168.49 305.41,-158.27 301.23,-168.01 308.21,-168.49"/>
</g>
<!-- 914376 -->
<g id="node24" class="node">
<title>914376</title>
<ellipse fill="white" stroke="black" cx="345.5" cy="-320.84" rx="30.41" ry="30.41"/>
<text xml:space="preserve" text-anchor="middle" x="345.5" y="-317.54" font-family="Times New Roman,serif" font-size="9.00">914376</text>
</g>
<!-- 900392&#45;&gt;914376 -->
<g id="edge8" class="edge">
<title>900392&#45;&gt;914376</title>
<path fill="none" stroke="green" stroke-width="0.2" d="M303.04,-391.24C309.67,-380.4 317.51,-367.59 324.63,-355.94"/>
<polygon fill="green" stroke="green" stroke-width="0.2" points="327.52,-357.93 329.75,-347.57 321.55,-354.28 327.52,-357.93"/>
</g>
<!-- 906464&#45;&gt;877257 -->
<g id="edge10" class="edge">
<title>906464&#45;&gt;877257</title>
<path fill="none" stroke="green" stroke-width="0.12" d="M283.31,-108.16C263.27,-93.2 234.62,-71.81 212.65,-55.41"/>
<polygon fill="green" stroke="green" stroke-width="0.12" points="214.84,-52.68 204.73,-49.5 210.65,-58.29 214.84,-52.68"/>
</g>
<!-- 907078 -->
<g id="node20" class="node">
<title>907078</title>
<ellipse fill="white" stroke="black" cx="345.5" cy="-224.03" rx="30.41" ry="30.41"/>
<text xml:space="preserve" text-anchor="middle" x="345.5" y="-220.73" font-family="Times New Roman,serif" font-size="9.00">907078</text>
</g>
<!-- 907078&#45;&gt;906464 -->
<g id="edge7" class="edge">
<title>907078&#45;&gt;906464</title>
<path fill="none" stroke="green" stroke-width="0.14" d="M334.4,-195.35C330.62,-185.91 326.32,-175.19 322.29,-165.14"/>
<polygon fill="green" stroke="green" stroke-width="0.14" points="325.59,-163.95 318.62,-155.97 319.09,-166.55 325.59,-163.95"/>
</g>
<!-- 908932&#45;&gt;877257 -->
<g id="edge3" class="edge">
<title>908932&#45;&gt;877257</title>
<path fill="none" stroke="red" stroke-width="0.94" stroke-dasharray="1,5" d="M130.01,-101.8C138.1,-90.52 147.83,-76.95 156.58,-64.74"/>
<polygon fill="red" stroke="red" stroke-width="0.94" points="159.23,-67.06 162.22,-56.89 153.54,-62.98 159.23,-67.06"/>
</g>
<!-- 911360 -->
<g id="node22" class="node">
<title>911360</title>
<ellipse fill="white" stroke="black" cx="386.5" cy="-127.22" rx="30.41" ry="30.41"/>
<text xml:space="preserve" text-anchor="middle" x="386.5" y="-123.92" font-family="Times New Roman,serif" font-size="9.00">911360</text>
</g>
<!-- 911360&#45;&gt;877257 -->
<g id="edge12" class="edge">
<title>911360&#45;&gt;877257</title>
<path fill="none" stroke="red" stroke-width="0.41" d="M363.06,-107.44C357.78,-103.65 352.08,-99.89 346.5,-96.81 305.04,-73.91 253.88,-55.03 219.4,-43.54"/>
<polygon fill="red" stroke="red" stroke-width="0.41" points="220.88,-40.34 210.29,-40.55 218.7,-47 220.88,-40.34"/>
</g>
<!-- 914376&#45;&gt;907078 -->
<g id="edge6" class="edge">
<title>914376&#45;&gt;907078</title>
<path fill="none" stroke="green" stroke-width="0.24" stroke-dasharray="1,5" d="M345.5,-290.1C345.5,-282.07 345.5,-273.25 345.5,-264.77"/>
<polygon fill="green" stroke="green" stroke-width="0.24" points="349,-265.02 345.5,-255.02 342,-265.02 349,-265.02"/>
</g>
</g>
</svg>
