<?xml version="1.0" encoding="utf-8" standalone="no"?>
<!DOCTYPE svg PUBLIC "-//W3C//DTD SVG 1.1//EN"
  "http://www.w3.org/Graphics/SVG/1.1/DTD/svg11.dtd">
<svg xmlns:xlink="http://www.w3.org/1999/xlink" width="460.8pt" height="345.6pt" viewBox="0 0 460.8 345.6" xmlns="http://www.w3.org/2000/svg" version="1.1">
 <metadata>
  <rdf:RDF xmlns:dc="http://purl.org/dc/elements/1.1/" xmlns:cc="http://creativecommons.org/ns#" xmlns:rdf="http://www.w3.org/1999/02/22-rdf-syntax-ns#">
   <cc:Work>
    <dc:type rdf:resource="http://purl.org/dc/dcmitype/StillImage"/>
    <dc:date>2025-11-20T23:47:29.111460</dc:date>
    <dc:format>image/svg+xml</dc:format>
    <dc:creator>
     <cc:Agent>
      <dc:title>Matplotlib v3.10.7, https://matplotlib.org/</dc:title>
     </cc:Agent>
    </dc:creator>
   </cc:Work>
  </rdf:RDF>
 </metadata>
 <defs>
  <style type="text/css">*{stroke-linejoin: round; stroke-linecap: butt}</style>
 </defs>
 <g id="figure_1">
  <g id="patch_1">
   <path d="M 0 345.6 
L 460.8 345.6 
L 460.8 0 
L 0 0 
z
" style="fill: #ffffff"/>
  </g>
  <g id="axes_1">
   <g id="patch_2">
    <path d="M 57.6 307.584 
L 414.72 307.584 
L 414.72 41.472 
L 57.6 41.472 
z
" style="fill: #ffffff"/>
   </g>
   <g id="matplotlib.axis_1">
    <g id="xtick_1">
     <g id="line2d_1">
      <path d="M 73.832727 307.584 
L 73.832727 41.472 
" clip-path="url(#p994d36adbc)" style="fill: none; stroke: #b0b0b0; stroke-width: 0.8; stroke-linecap: square"/>
     </g>
     <g id="line2d_2">
      <defs>
       <path id="mc82f90d076" d="M 0 0 
L 0 3.5 
" style="stroke: #000000; stroke-width: 0.8"/>
      </defs>
      <g>
       <use xlink:href="#mc82f90d076" x="73.832727" y="307.584" style="stroke: #000000; stroke-width: 0.8"/>
      </g>
     </g>
     <g id="text_1">
      <!-- 0 -->
      <g transform="translate(70.651477 322.182437) scale(0.1 -0.1)">
       <defs>
        <path id="DejaVuSans-30" d="M 2034 4250 
Q 1547 4250 1301 3770 
Q 1056 3291 1056 2328 
Q 1056 1369 1301 889 
Q 1547 409 2034 409 
Q 2525 409 2770 889 
Q 3016 1369 3016 2328 
Q 3016 3291 2770 3770 
Q 2525 4250 2034 4250 
z
M 2034 4750 
Q 2819 4750 3233 4129 
Q 3647 3509 3647 2328 
Q 3647 1150 3233 529 
Q 2819 -91 2034 -91 
Q 1250 -91 836 529 
Q 422 1150 422 2328 
Q 422 3509 836 4129 
Q 1250 4750 2034 4750 
z
" transform="scale(0.015625)"/>
       </defs>
       <use xlink:href="#DejaVuSans-30"/>
      </g>
     </g>
    </g>
    <g id="xtick_2">
     <g id="line2d_3">
      <path d="M 139.024403 307.584 
L 139.024403 41.472 
" clip-path="url(#p994d36adbc)" style="fill: none; stroke: #b0b0b0; stroke-width: 0.8; stroke-linecap: square"/>
     </g>
     <g id="line2d_4">
      <g>
       <use xlink:href="#mc82f90d076" x="139.024403" y="307.584" style="stroke: #000000; stroke-width: 0.8"/>
      </g>
     </g>
     <g id="text_2">
      <!-- 50 -->
      <g transform="translate(132.661903 322.182437) scale(0.1 -0.1)">
       <defs>
        <path id="DejaVuSans-35" d="M 691 4666 
L 3169 4666 
L 3169 4134 
L 1269 4134 
L 1269 2991 
Q 1406 3038 1543 3061 
Q 1681 3084 1819 3084 
Q 2600 3084 3056 2656 
Q 3513 2228 3513 1497 
Q 3513 744 3044 326 
Q 2575 -91 1722 -91 
Q 1428 -91 1123 -41 
Q 819 9 494 109 
L 494 744 
Q 775 591 1075 516 
Q 1375 441 1709 441 
Q 2250 441 2565 725 
Q 2881 1009 2881 1497 
Q 2881 1984 2565 2268 
Q 2250 2553 1709 2553 
Q 1456 2553 1204 2497 
Q 953 2441 691 2322 
L 691 4666 
z
" transform="scale(0.015625)"/>
       </defs>
       <use xlink:href="#DejaVuSans-35"/>
       <use xlink:href="#DejaVuSans-30" transform="translate(63.623047 0)"/>
      </g>
     </g>
    </g>
    <g id="xtick_3">
     <g id="line2d_5">
      <path d="M 204.216079 307.584 
L 204.216079 41.472 
" clip-path="url(#p994d36adbc)" style="fill: none; stroke: #b0b0b0; stroke-width: 0.8; stroke-linecap: square"/>
     </g>
     <g id="line2d_6">
      <g>
       <use xlink:href="#mc82f90d076" x="204.216079" y="307.584" style="stroke: #000000; stroke-width: 0.8"/>
      </g>
     </g>
     <g id="text_3">
      <!-- 100 -->
      <g transform="translate(194.672329 322.182437) scale(0.1 -0.1)">
       <defs>
        <path id="DejaVuSans-31" d="M 794 531 
L 1825 531 
L 1825 4091 
L 703 3866 
L 703 4441 
L 1819 4666 
L 2450 4666 
L 2450 531 
L 3481 531 
L 3481 0 
L 794 0 
L 794 531 
z
" transform="scale(0.015625)"/>
       </defs>
       <use xlink:href="#DejaVuSans-31"/>
       <use xlink:href="#DejaVuSans-30" transform="translate(63.623047 0)"/>
       <use xlink:href="#DejaVuSans-30" transform="translate(127.246094 0)"/>
      </g>
     </g>
    </g>
    <g id="xtick_4">
     <g id="line2d_7">
      <path d="M 269.407755 307.584 
L 269.407755 41.472 
" clip-path="url(#p994d36adbc)" style="fill: none; stroke: #b0b0b0; stroke-width: 0.8; stroke-linecap: square"/>
     </g>
     <g id="line2d_8">
      <g>
       <use xlink:href="#mc82f90d076" x="269.407755" y="307.584" style="stroke: #000000; stroke-width: 0.8"/>
      </g>
     </g>
     <g id="text_4">
      <!-- 150 -->
      <g transform="translate(259.864005 322.182437) scale(0.1 -0.1)">
       <use xlink:href="#DejaVuSans-31"/>
       <use xlink:href="#DejaVuSans-35" transform="translate(63.623047 0)"/>
       <use xlink:href="#DejaVuSans-30" transform="translate(127.246094 0)"/>
      </g>
     </g>
    </g>
    <g id="xtick_5">
     <g id="line2d_9">
      <path d="M 334.59943 307.584 
L 334.59943 41.472 
" clip-path="url(#p994d36adbc)" style="fill: none; stroke: #b0b0b0; stroke-width: 0.8; stroke-linecap: square"/>
     </g>
     <g id="line2d_10">
      <g>
       <use xlink:href="#mc82f90d076" x="334.59943" y="307.584" style="stroke: #000000; stroke-width: 0.8"/>
      </g>
     </g>
     <g id="text_5">
      <!-- 200 -->
      <g transform="translate(325.05568 322.182437) scale(0.1 -0.1)">
       <defs>
        <path id="DejaVuSans-32" d="M 1228 531 
L 3431 531 
L 3431 0 
L 469 0 
L 469 531 
Q 828 903 1448 1529 
Q 2069 2156 2228 2338 
Q 2531 2678 2651 2914 
Q 2772 3150 2772 3378 
Q 2772 3750 2511 3984 
Q 2250 4219 1831 4219 
Q 1534 4219 1204 4116 
Q 875 4013 500 3803 
L 500 4441 
Q 881 4594 1212 4672 
Q 1544 4750 1819 4750 
Q 2544 4750 2975 4387 
Q 3406 4025 3406 3419 
Q 3406 3131 3298 2873 
Q 3191 2616 2906 2266 
Q 2828 2175 2409 1742 
Q 1991 1309 1228 531 
z
" transform="scale(0.015625)"/>
       </defs>
       <use xlink:href="#DejaVuSans-32"/>
       <use xlink:href="#DejaVuSans-30" transform="translate(63.623047 0)"/>
       <use xlink:href="#DejaVuSans-30" transform="translate(127.246094 0)"/>
      </g>
     </g>
    </g>
    <g id="xtick_6">
     <g id="line2d_11">
      <path d="M 399.791106 307.584 
L 399.791106 41.472 
" clip-path="url(#p994d36adbc)" style="fill: none; stroke: #b0b0b0; stroke-width: 0.8; stroke-linecap: square"/>
     </g>
     <g id="line2d_12">
      <g>
       <use xlink:href="#mc82f90d076" x="399.791106" y="307.584" style="stroke: #000000; stroke-width: 0.8"/>
      </g>
     </g>
     <g id="text_6">
      <!-- 250 -->
      <g transform="translate(390.247356 322.182437) scale(0.1 -0.1)">
       <use xlink:href="#DejaVuSans-32"/>
       <use xlink:href="#DejaVuSans-35" transform="translate(63.623047 0)"/>
       <use xlink:href="#DejaVuSans-30" transform="translate(127.246094 0)"/>
      </g>
     </g>
    </g>
    <g id="text_7">
     <!-- Generations -->
     <g transform="translate(205.662344 335.860562) scale(0.1 -0.1)">
      <defs>
       <path id="DejaVuSans-47" d="M 3809 666 
L 3809 1919 
L 2778 1919 
L 2778 2438 
L 4434 2438 
L 4434 434 
Q 4069 175 3628 42 
Q 3188 -91 2688 -91 
Q 1594 -91 976 548 
Q 359 1188 359 2328 
Q 359 3472 976 4111 
Q 1594 4750 2688 4750 
Q 3144 4750 3555 4637 
Q 3966 4525 4313 4306 
L 4313 3634 
Q 3963 3931 3569 4081 
Q 3175 4231 2741 4231 
Q 1884 4231 1454 3753 
Q 1025 3275 1025 2328 
Q 1025 1384 1454 906 
Q 1884 428 2741 428 
Q 3075 428 3337 486 
Q 3600 544 3809 666 
z
" transform="scale(0.015625)"/>
       <path id="DejaVuSans-65" d="M 3597 1894 
L 3597 1613 
L 953 1613 
Q 991 1019 1311 708 
Q 1631 397 2203 397 
Q 2534 397 2845 478 
Q 3156 559 3463 722 
L 3463 178 
Q 3153 47 2828 -22 
Q 2503 -91 2169 -91 
Q 1331 -91 842 396 
Q 353 884 353 1716 
Q 353 2575 817 3079 
Q 1281 3584 2069 3584 
Q 2775 3584 3186 3129 
Q 3597 2675 3597 1894 
z
M 3022 2063 
Q 3016 2534 2758 2815 
Q 2500 3097 2075 3097 
Q 1594 3097 1305 2825 
Q 1016 2553 972 2059 
L 3022 2063 
z
" transform="scale(0.015625)"/>
       <path id="DejaVuSans-6e" d="M 3513 2113 
L 3513 0 
L 2938 0 
L 2938 2094 
Q 2938 2591 2744 2837 
Q 2550 3084 2163 3084 
Q 1697 3084 1428 2787 
Q 1159 2491 1159 1978 
L 1159 0 
L 581 0 
L 581 3500 
L 1159 3500 
L 1159 2956 
Q 1366 3272 1645 3428 
Q 1925 3584 2291 3584 
Q 2894 3584 3203 3211 
Q 3513 2838 3513 2113 
z
" transform="scale(0.015625)"/>
       <path id="DejaVuSans-72" d="M 2631 2963 
Q 2534 3019 2420 3045 
Q 2306 3072 2169 3072 
Q 1681 3072 1420 2755 
Q 1159 2438 1159 1844 
L 1159 0 
L 581 0 
L 581 3500 
L 1159 3500 
L 1159 2956 
Q 1341 3275 1631 3429 
Q 1922 3584 2338 3584 
Q 2397 3584 2469 3576 
Q 2541 3569 2628 3553 
L 2631 2963 
z
" transform="scale(0.015625)"/>
       <path id="DejaVuSans-61" d="M 2194 1759 
Q 1497 1759 1228 1600 
Q 959 1441 959 1056 
Q 959 750 1161 570 
Q 1363 391 1709 391 
Q 2188 391 2477 730 
Q 2766 1069 2766 1631 
L 2766 1759 
L 2194 1759 
z
M 3341 1997 
L 3341 0 
L 2766 0 
L 2766 531 
Q 2569 213 2275 61 
Q 1981 -91 1556 -91 
Q 1019 -91 701 211 
Q 384 513 384 1019 
Q 384 1609 779 1909 
Q 1175 2209 1959 2209 
L 2766 2209 
L 2766 2266 
Q 2766 2663 2505 2880 
Q 2244 3097 1772 3097 
Q 1472 3097 1187 3025 
Q 903 2953 641 2809 
L 641 3341 
Q 956 3463 1253 3523 
Q 1550 3584 1831 3584 
Q 2591 3584 2966 3190 
Q 3341 2797 3341 1997 
z
" transform="scale(0.015625)"/>
       <path id="DejaVuSans-74" d="M 1172 4494 
L 1172 3500 
L 2356 3500 
L 2356 3053 
L 1172 3053 
L 1172 1153 
Q 1172 725 1289 603 
Q 1406 481 1766 481 
L 2356 481 
L 2356 0 
L 1766 0 
Q 1100 0 847 248 
Q 594 497 594 1153 
L 594 3053 
L 172 3053 
L 172 3500 
L 594 3500 
L 594 4494 
L 1172 4494 
z
" transform="scale(0.015625)"/>
       <path id="DejaVuSans-69" d="M 603 3500 
L 1178 3500 
L 1178 0 
L 603 0 
L 603 3500 
z
M 603 4863 
L 1178 4863 
L 1178 4134 
L 603 4134 
L 603 4863 
z
" transform="scale(0.015625)"/>
       <path id="DejaVuSans-6f" d="M 1959 3097 
Q 1497 3097 1228 2736 
Q 959 2375 959 1747 
Q 959 1119 1226 758 
Q 1494 397 1959 397 
Q 2419 397 2687 759 
Q 2956 1122 2956 1747 
Q 2956 2369 2687 2733 
Q 2419 3097 1959 3097 
z
M 1959 3584 
Q 2709 3584 3137 3096 
Q 3566 2609 3566 1747 
Q 3566 888 3137 398 
Q 2709 -91 1959 -91 
Q 1206 -91 779 398 
Q 353 888 353 1747 
Q 353 2609 779 3096 
Q 1206 3584 1959 3584 
z
" transform="scale(0.015625)"/>
       <path id="DejaVuSans-73" d="M 2834 3397 
L 2834 2853 
Q 2591 2978 2328 3040 
Q 2066 3103 1784 3103 
Q 1356 3103 1142 2972 
Q 928 2841 928 2578 
Q 928 2378 1081 2264 
Q 1234 2150 1697 2047 
L 1894 2003 
Q 2506 1872 2764 1633 
Q 3022 1394 3022 966 
Q 3022 478 2636 193 
Q 2250 -91 1575 -91 
Q 1294 -91 989 -36 
Q 684 19 347 128 
L 347 722 
Q 666 556 975 473 
Q 1284 391 1588 391 
Q 1994 391 2212 530 
Q 2431 669 2431 922 
Q 2431 1156 2273 1281 
Q 2116 1406 1581 1522 
L 1381 1569 
Q 847 1681 609 1914 
Q 372 2147 372 2553 
Q 372 3047 722 3315 
Q 1072 3584 1716 3584 
Q 2034 3584 2315 3537 
Q 2597 3491 2834 3397 
z
" transform="scale(0.015625)"/>
      </defs>
      <use xlink:href="#DejaVuSans-47"/>
      <use xlink:href="#DejaVuSans-65" transform="translate(77.490234 0)"/>
      <use xlink:href="#DejaVuSans-6e" transform="translate(139.013672 0)"/>
      <use xlink:href="#DejaVuSans-65" transform="translate(202.392578 0)"/>
      <use xlink:href="#DejaVuSans-72" transform="translate(263.916016 0)"/>
      <use xlink:href="#DejaVuSans-61" transform="translate(305.029297 0)"/>
      <use xlink:href="#DejaVuSans-74" transform="translate(366.308594 0)"/>
      <use xlink:href="#DejaVuSans-69" transform="translate(405.517578 0)"/>
      <use xlink:href="#DejaVuSans-6f" transform="translate(433.300781 0)"/>
      <use xlink:href="#DejaVuSans-6e" transform="translate(494.482422 0)"/>
      <use xlink:href="#DejaVuSans-73" transform="translate(557.861328 0)"/>
     </g>
    </g>
   </g>
   <g id="matplotlib.axis_2">
    <g id="ytick_1">
     <g id="line2d_13">
      <path d="M 57.6 235.634923 
L 414.72 235.634923 
" clip-path="url(#p994d36adbc)" style="fill: none; stroke: #b0b0b0; stroke-width: 0.8; stroke-linecap: square"/>
     </g>
     <g id="line2d_14">
      <defs>
       <path id="m43be3984f8" d="M 0 0 
L -3.5 0 
" style="stroke: #000000; stroke-width: 0.8"/>
      </defs>
      <g>
       <use xlink:href="#m43be3984f8" x="57.6" y="235.634923" style="stroke: #000000; stroke-width: 0.8"/>
      </g>
     </g>
     <g id="text_8">
      <!-- $\mathdefault{10^{2}}$ -->
      <g transform="translate(33 239.434142) scale(0.1 -0.1)">
       <use xlink:href="#DejaVuSans-31" transform="translate(0 0.765625)"/>
       <use xlink:href="#DejaVuSans-30" transform="translate(63.623047 0.765625)"/>
       <use xlink:href="#DejaVuSans-32" transform="translate(128.203125 39.046875) scale(0.7)"/>
      </g>
     </g>
    </g>
    <g id="text_9">
     <!-- Fitness -->
     <g transform="translate(26.920312 191.845187) rotate(-90) scale(0.1 -0.1)">
      <defs>
       <path id="DejaVuSans-46" d="M 628 4666 
L 3309 4666 
L 3309 4134 
L 1259 4134 
L 1259 2759 
L 3109 2759 
L 3109 2228 
L 1259 2228 
L 1259 0 
L 628 0 
L 628 4666 
z
" transform="scale(0.015625)"/>
      </defs>
      <use xlink:href="#DejaVuSans-46"/>
      <use xlink:href="#DejaVuSans-69" transform="translate(50.269531 0)"/>
      <use xlink:href="#DejaVuSans-74" transform="translate(78.052734 0)"/>
      <use xlink:href="#DejaVuSans-6e" transform="translate(117.261719 0)"/>
      <use xlink:href="#DejaVuSans-65" transform="translate(180.640625 0)"/>
      <use xlink:href="#DejaVuSans-73" transform="translate(242.164062 0)"/>
      <use xlink:href="#DejaVuSans-73" transform="translate(294.263672 0)"/>
     </g>
    </g>
   </g>
   <g id="line2d_15">
    <path d="M 73.832727 285.599174 
L 75.136561 272.649636 
L 76.440394 272.386962 
L 77.744228 282.007346 
L 79.048061 274.845169 
L 80.351895 274.729867 
L 81.655728 279.035952 
L 82.959562 270.462415 
L 84.263395 275.606469 
L 85.567229 280.199917 
L 86.871062 279.804463 
L 88.174896 282.352621 
L 89.478729 283.390255 
L 90.782563 281.686132 
L 92.086396 278.581209 
L 93.39023 283.271458 
L 94.694064 277.798492 
L 95.997897 284.320528 
L 97.301731 275.413814 
L 98.605564 265.227468 
L 99.909398 278.38373 
L 101.213231 276.335451 
L 102.517065 281.355529 
L 103.820898 278.373567 
L 105.124732 281.663337 
L 106.428565 282.222026 
L 107.732399 278.023513 
L 109.036232 281.058549 
L 110.340066 279.400267 
L 111.643899 279.257088 
L 112.947733 282.457468 
L 114.251566 278.439735 
L 115.5554 285.696759 
L 116.859233 281.321842 
L 118.163067 278.494673 
L 119.4669 276.127733 
L 120.770734 274.371449 
L 122.074567 276.015748 
L 123.378401 280.613656 
L 124.682234 277.91124 
L 125.986068 273.770826 
L 127.289901 281.536849 
L 128.593735 272.936659 
L 129.897568 281.247286 
L 131.201402 288.305986 
L 132.505235 282.57726 
L 133.809069 287.597427 
L 135.112903 281.241942 
L 136.416736 280.606466 
L 137.72057 274.039034 
L 139.024403 275.499423 
L 140.328237 283.01643 
L 141.63207 273.975152 
L 142.935904 280.253597 
L 144.239737 279.031617 
L 145.543571 274.226502 
L 148.151238 282.024504 
L 149.455071 283.545517 
L 150.758905 280.454682 
L 152.062738 295.488 
L 153.366572 292.039724 
L 154.670405 275.187076 
L 155.974239 283.482688 
L 157.278072 283.998214 
L 158.581906 287.762718 
L 159.885739 274.926335 
L 161.189573 281.73594 
L 162.493406 276.27964 
L 163.79724 271.426075 
L 165.101073 278.209291 
L 166.404907 277.257352 
L 167.70874 269.841323 
L 169.012574 265.18021 
L 170.316407 274.282263 
L 171.620241 267.937017 
L 172.924074 271.178387 
L 174.227908 273.928314 
L 175.531742 275.098716 
L 176.835575 264.719892 
L 178.139409 269.777604 
L 179.443242 272.082224 
L 180.747076 269.603915 
L 182.050909 265.487779 
L 183.354743 266.232833 
L 184.658576 275.80354 
L 185.96241 267.527438 
L 187.266243 267.845272 
L 188.570077 271.194943 
L 189.87391 267.682962 
L 191.177744 269.958101 
L 192.481577 274.350045 
L 193.785411 271.869515 
L 195.089244 276.764347 
L 196.393078 271.948823 
L 197.696911 277.404288 
L 199.000745 267.94513 
L 200.304578 277.829866 
L 201.608412 272.328196 
L 202.912245 277.294529 
L 204.216079 264.856006 
L 205.519912 268.752191 
L 206.823746 269.853865 
L 208.127579 275.649299 
L 209.431413 278.936279 
L 210.735246 276.796146 
L 212.03908 278.413885 
L 213.342913 283.854722 
L 214.646747 282.260912 
L 215.950581 286.705612 
L 217.254414 286.345216 
L 218.558248 283.87282 
L 219.862081 276.816739 
L 221.165915 277.39794 
L 222.469748 285.350925 
L 223.773582 281.202633 
L 225.077415 274.815271 
L 226.381249 276.778034 
L 228.988916 273.209681 
L 230.292749 269.270306 
L 231.596583 265.992548 
L 232.900416 265.054059 
L 234.20425 275.833541 
L 235.508083 264.211326 
L 236.811917 271.938432 
L 238.11575 263.506301 
L 239.419584 272.71525 
L 240.723417 267.420646 
L 242.027251 270.710696 
L 243.331084 278.284672 
L 244.634918 274.883613 
L 245.938751 272.819231 
L 247.242585 267.137782 
L 248.546418 265.56712 
L 249.850252 261.542533 
L 251.154085 258.890145 
L 252.457919 262.694612 
L 253.761752 264.161929 
L 255.065586 259.021753 
L 256.369419 258.663134 
L 257.673253 259.486891 
L 258.977087 249.362102 
L 260.28092 255.551132 
L 261.584754 262.608659 
L 262.888587 262.991 
L 264.192421 261.228764 
L 265.496254 262.087346 
L 266.800088 264.312066 
L 268.103921 268.159272 
L 269.407755 262.879945 
L 270.711588 268.156105 
L 272.015422 266.30751 
L 273.319255 263.137066 
L 274.623089 258.58158 
L 275.926922 267.707222 
L 277.230756 261.033277 
L 278.534589 262.466571 
L 279.838423 266.43028 
L 281.142256 267.00614 
L 282.44609 264.095667 
L 283.749923 262.829734 
L 285.053757 264.719892 
L 286.35759 264.159783 
L 287.661424 270.806337 
L 288.965257 260.643374 
L 290.269091 268.536526 
L 291.572924 265.971054 
L 292.876758 262.286799 
L 294.180591 262.270512 
L 295.484425 258.416185 
L 296.788258 259.912935 
L 298.092092 265.867191 
L 299.395926 265.051403 
L 300.699759 269.758803 
L 302.003593 259.054086 
L 303.307426 263.48988 
L 304.61126 261.729494 
L 305.915093 256.77149 
L 307.218927 260.321991 
L 308.52276 260.110959 
L 309.826594 263.028844 
L 311.130427 268.993976 
L 312.434261 258.400054 
L 313.738094 265.117565 
L 315.041928 257.731422 
L 316.345761 254.779292 
L 317.649595 262.034055 
L 318.953428 258.396226 
L 320.257262 255.3795 
L 321.561095 266.714009 
L 322.864929 267.07958 
L 324.168762 262.996186 
L 325.472596 265.893179 
L 326.776429 266.33232 
L 328.080263 275.195629 
L 329.384096 270.420355 
L 330.68793 272.454726 
L 331.991763 265.165524 
L 333.295597 270.345866 
L 334.59943 261.029271 
L 335.903264 270.853872 
L 337.207097 260.939748 
L 338.510931 258.646925 
L 339.814765 259.962772 
L 341.118598 272.54369 
L 342.422432 261.968459 
L 343.726265 261.927469 
L 345.030099 267.00545 
L 346.333932 264.390297 
L 347.637766 263.02229 
L 348.941599 259.216844 
L 350.245433 261.62001 
L 351.549266 256.843674 
L 352.8531 265.963562 
L 354.156933 269.790193 
L 355.460767 262.148883 
L 356.7646 260.923474 
L 358.068434 262.51455 
L 359.372267 270.369891 
L 360.676101 264.386179 
L 361.979934 260.708666 
L 363.283768 257.655922 
L 364.587601 252.644617 
L 365.891435 259.563813 
L 367.195268 263.91401 
L 368.499102 265.490827 
L 369.802935 271.136304 
L 371.106769 267.276765 
L 372.410602 267.9499 
L 373.714436 270.000093 
L 375.018269 267.495569 
L 376.322103 265.624227 
L 377.625936 262.240581 
L 378.92977 261.395138 
L 380.233604 261.057761 
L 381.537437 259.450461 
L 382.841271 261.179895 
L 384.145104 262.417129 
L 385.448938 263.860361 
L 386.752771 265.541523 
L 388.056605 263.403688 
L 389.360438 256.28713 
L 390.664272 266.14581 
L 391.968105 263.153466 
L 393.271939 264.93026 
L 394.575772 263.732179 
L 395.879606 256.255233 
L 397.183439 257.841726 
L 398.487273 257.833645 
L 398.487273 257.833645 
" clip-path="url(#p994d36adbc)" style="fill: none; stroke: #0000ff; stroke-width: 1.5; stroke-linecap: square"/>
   </g>
   <g id="line2d_16">
    <path d="M 73.832727 229.231566 
L 75.136561 216.952082 
L 76.440394 208.453937 
L 77.744228 225.364847 
L 79.048061 217.265636 
L 80.351895 220.229577 
L 81.655728 221.747455 
L 82.959562 217.653973 
L 84.263395 214.949765 
L 85.567229 222.688964 
L 86.871062 219.379195 
L 88.174896 223.129653 
L 89.478729 227.407511 
L 90.782563 229.785587 
L 92.086396 221.491815 
L 93.39023 221.554983 
L 94.694064 218.799593 
L 95.997897 230.087923 
L 97.301731 214.693557 
L 98.605564 206.924758 
L 99.909398 217.744154 
L 101.213231 217.800342 
L 102.517065 224.612822 
L 103.820898 222.846124 
L 105.124732 226.424375 
L 106.428565 221.984275 
L 107.732399 215.444601 
L 109.036232 225.54857 
L 110.340066 224.093021 
L 111.643899 223.629618 
L 112.947733 229.998075 
L 114.251566 219.820382 
L 115.5554 229.316395 
L 116.859233 221.529453 
L 118.163067 220.648688 
L 119.4669 216.36332 
L 120.770734 214.500482 
L 122.074567 218.399738 
L 123.378401 223.146759 
L 124.682234 217.855031 
L 125.986068 214.008696 
L 127.289901 223.384682 
L 128.593735 218.951204 
L 131.201402 230.042799 
L 132.505235 224.054011 
L 133.809069 233.717189 
L 136.416736 224.024804 
L 137.72057 215.049447 
L 139.024403 215.237175 
L 140.328237 222.377183 
L 141.63207 217.848595 
L 142.935904 221.849749 
L 144.239737 220.669109 
L 145.543571 211.446677 
L 148.151238 226.090744 
L 149.455071 223.469305 
L 150.758905 224.9201 
L 152.062738 239.889828 
L 153.366572 230.673564 
L 154.670405 212.102073 
L 155.974239 226.977611 
L 157.278072 227.105011 
L 158.581906 230.354952 
L 159.885739 212.45633 
L 161.189573 221.931217 
L 162.493406 217.799252 
L 163.79724 212.957477 
L 165.101073 219.299197 
L 166.404907 221.341082 
L 167.70874 211.006808 
L 169.012574 203.921786 
L 170.316407 212.433087 
L 171.620241 207.112078 
L 172.924074 211.820499 
L 174.227908 221.147915 
L 175.531742 212.247482 
L 176.835575 206.0959 
L 178.139409 209.950804 
L 179.443242 211.159949 
L 180.747076 209.533206 
L 182.050909 203.062947 
L 183.354743 207.415213 
L 184.658576 217.450455 
L 187.266243 200.368607 
L 188.570077 209.841171 
L 189.87391 206.969484 
L 191.177744 207.529223 
L 192.481577 213.5365 
L 193.785411 211.362483 
L 195.089244 217.131835 
L 196.393078 211.97026 
L 197.696911 215.026596 
L 199.000745 201.677799 
L 200.304578 216.508483 
L 201.608412 211.663137 
L 202.912245 216.666652 
L 204.216079 203.905937 
L 205.519912 210.323633 
L 206.823746 208.315368 
L 208.127579 217.50867 
L 209.431413 220.153232 
L 210.735246 217.190884 
L 212.03908 221.871443 
L 213.342913 227.229082 
L 214.646747 229.274434 
L 215.950581 224.642316 
L 217.254414 229.088732 
L 218.558248 224.748892 
L 219.862081 219.649404 
L 221.165915 220.340325 
L 222.469748 224.922722 
L 223.773582 221.921199 
L 225.077415 216.255234 
L 226.381249 220.751986 
L 227.685082 212.42112 
L 228.988916 214.092162 
L 231.596583 207.740607 
L 232.900416 208.3422 
L 234.20425 216.939797 
L 235.508083 206.950475 
L 236.811917 214.162461 
L 238.11575 205.37481 
L 239.419584 214.648548 
L 240.723417 210.484432 
L 242.027251 208.846607 
L 243.331084 218.808597 
L 244.634918 217.793209 
L 245.938751 223.138126 
L 247.242585 210.19762 
L 248.546418 207.075019 
L 249.850252 202.748295 
L 251.154085 201.663068 
L 252.457919 204.366958 
L 253.761752 203.142943 
L 255.065586 204.922745 
L 256.369419 197.01819 
L 257.673253 197.715006 
L 258.977087 194.589453 
L 260.28092 192.234334 
L 261.584754 209.8875 
L 262.888587 201.114864 
L 264.192421 201.861205 
L 265.496254 201.156596 
L 266.800088 204.209384 
L 268.103921 213.67052 
L 269.407755 208.144074 
L 270.711588 210.462223 
L 272.015422 207.978351 
L 273.319255 208.021226 
L 274.623089 197.922519 
L 275.926922 208.920697 
L 277.230756 203.669707 
L 278.534589 205.36403 
L 279.838423 207.887925 
L 281.142256 208.950936 
L 282.44609 206.896708 
L 283.749923 200.633489 
L 285.053757 208.734083 
L 286.35759 203.851191 
L 287.661424 208.468106 
L 288.965257 203.704209 
L 290.269091 209.367627 
L 292.876758 202.702639 
L 294.180591 204.727701 
L 295.484425 200.590773 
L 296.788258 203.076884 
L 298.092092 204.018864 
L 299.395926 205.864248 
L 300.699759 210.81655 
L 302.003593 198.03322 
L 303.307426 203.419222 
L 304.61126 201.460729 
L 305.915093 198.669128 
L 307.218927 200.605889 
L 308.52276 199.268764 
L 309.826594 202.047177 
L 311.130427 214.570207 
L 312.434261 199.011296 
L 313.738094 204.294353 
L 315.041928 199.070095 
L 316.345761 201.107219 
L 317.649595 202.064674 
L 318.953428 199.423178 
L 320.257262 194.431013 
L 321.561095 205.810203 
L 322.864929 208.97708 
L 324.168762 207.787355 
L 325.472596 204.72785 
L 326.776429 206.632756 
L 328.080263 216.940664 
L 329.384096 211.504383 
L 330.68793 216.353233 
L 331.991763 203.410948 
L 333.295597 211.492413 
L 334.59943 203.01472 
L 335.903264 214.870508 
L 337.207097 202.943364 
L 338.510931 197.156985 
L 339.814765 195.956956 
L 341.118598 210.825237 
L 342.422432 202.972254 
L 343.726265 205.32118 
L 345.030099 203.050821 
L 346.333932 207.848849 
L 347.637766 202.590629 
L 348.941599 199.770746 
L 350.245433 203.318348 
L 351.549266 200.980883 
L 352.8531 203.877078 
L 354.156933 213.518783 
L 355.460767 198.941472 
L 356.7646 204.527894 
L 358.068434 205.013187 
L 359.372267 212.236015 
L 360.676101 205.413399 
L 361.979934 197.352967 
L 363.283768 197.197533 
L 364.587601 189.958266 
L 365.891435 201.327661 
L 367.195268 202.063774 
L 368.499102 202.30436 
L 369.802935 210.116595 
L 371.106769 206.527563 
L 372.410602 207.357168 
L 373.714436 213.429954 
L 376.322103 201.430864 
L 377.625936 196.535777 
L 378.92977 199.093903 
L 380.233604 196.85231 
L 381.537437 200.174826 
L 382.841271 199.601411 
L 384.145104 202.029397 
L 385.448938 204.147757 
L 386.752771 199.975411 
L 388.056605 205.165019 
L 389.360438 195.835195 
L 390.664272 206.000887 
L 391.968105 204.827964 
L 393.271939 205.455249 
L 394.575772 202.05939 
L 395.879606 195.948427 
L 397.183439 198.849189 
L 398.487273 192.438128 
L 398.487273 192.438128 
" clip-path="url(#p994d36adbc)" style="fill: none; stroke-dasharray: 9.6,2.4,1.5,2.4; stroke-dashoffset: 0; stroke: #008000; stroke-width: 1.5"/>
   </g>
   <g id="line2d_17">
    <path d="M 73.832727 122.221784 
L 75.136561 122.863781 
L 76.440394 93.566444 
L 77.744228 112.141116 
L 79.048061 112.760855 
L 80.351895 114.62817 
L 81.655728 101.209492 
L 82.959562 138.042002 
L 84.263395 110.289917 
L 85.567229 141.450974 
L 86.871062 136.689709 
L 88.174896 137.365056 
L 89.478729 88.962573 
L 90.782563 159.133325 
L 93.39023 112.760855 
L 94.694064 111.522717 
L 95.997897 152.641031 
L 97.301731 85.557659 
L 98.605564 127.398565 
L 99.909398 94.147174 
L 101.213231 98.245638 
L 102.517065 105.411174 
L 103.820898 119.668112 
L 105.124732 121.581226 
L 106.428565 110.289917 
L 107.732399 109.675503 
L 109.036232 112.760855 
L 110.340066 124.152113 
L 111.643899 117.13704 
L 112.947733 137.365056 
L 114.251566 122.221784 
L 115.5554 123.507222 
L 116.859233 102.403687 
L 118.163067 85.557659 
L 119.4669 137.365056 
L 120.770734 117.767711 
L 122.074567 122.863781 
L 123.378401 122.863781 
L 124.682234 116.507756 
L 125.986068 97.656535 
L 127.289901 132.670776 
L 128.593735 117.13704 
L 129.897568 107.230964 
L 131.201402 146.292844 
L 132.505235 124.152113 
L 133.809069 159.133325 
L 135.112903 151.928678 
L 136.416736 117.13704 
L 137.72057 116.507756 
L 139.024403 111.522717 
L 140.328237 117.13704 
L 141.63207 53.568 
L 142.935904 129.364273 
L 144.239737 94.729086 
L 145.543571 91.831296 
L 146.847404 106.62308 
L 148.151238 133.336689 
L 149.455071 108.450622 
L 150.758905 92.986891 
L 152.062738 160.596291 
L 153.366572 89.53402 
L 154.670405 77.76704 
L 155.974239 132.006411 
L 157.278072 114.62817 
L 158.581906 132.670776 
L 159.885739 110.289917 
L 161.189573 113.38194 
L 162.493406 117.13704 
L 163.79724 100.614259 
L 165.101073 88.962573 
L 166.404907 101.805967 
L 167.70874 104.204382 
L 169.012574 87.255049 
L 170.316407 101.209492 
L 171.620241 100.614259 
L 172.924074 125.446276 
L 174.227908 139.400719 
L 175.531742 69.648916 
L 176.835575 68.583703 
L 178.139409 106.62308 
L 179.443242 103.00266 
L 180.747076 82.750872 
L 182.050909 82.750872 
L 183.354743 103.60289 
L 184.658576 91.255245 
L 185.96241 130.682291 
L 187.266243 97.656535 
L 188.570077 92.40851 
L 189.87391 84.994094 
L 191.177744 83.870284 
L 192.481577 109.062407 
L 193.785411 100.614259 
L 195.089244 99.427497 
L 196.393078 109.062407 
L 197.696911 97.656535 
L 199.000745 94.147174 
L 200.304578 116.507756 
L 201.608412 115.879854 
L 202.912245 101.209492 
L 204.216079 97.068643 
L 205.519912 138.720553 
L 206.823746 95.312183 
L 208.127579 134.004156 
L 209.431413 112.141116 
L 210.735246 124.152113 
L 212.03908 118.399776 
L 213.342913 118.399776 
L 214.646747 127.398565 
L 215.950581 122.863781 
L 217.254414 87.255049 
L 218.558248 129.364273 
L 219.862081 94.147174 
L 221.165915 133.336689 
L 222.469748 112.141116 
L 223.773582 104.204382 
L 225.077415 130.682291 
L 226.381249 135.34378 
L 227.685082 82.750872 
L 228.988916 115.879854 
L 230.292749 115.253327 
L 231.596583 115.879854 
L 232.900416 120.942098 
L 234.20425 117.13704 
L 235.508083 129.364273 
L 236.811917 110.905653 
L 238.11575 115.253327 
L 239.419584 99.427497 
L 240.723417 133.336689 
L 242.027251 104.204382 
L 243.331084 124.798463 
L 244.634918 135.34378 
L 245.938751 128.707535 
L 247.242585 76.671217 
L 248.546418 111.522717 
L 249.850252 97.068643 
L 251.154085 124.798463 
L 252.457919 77.218604 
L 253.761752 103.60289 
L 255.065586 92.40851 
L 256.369419 110.289917 
L 257.673253 78.31653 
L 258.977087 81.079926 
L 260.28092 95.312183 
L 261.584754 131.343584 
L 262.888587 117.13704 
L 264.192421 100.020262 
L 265.496254 113.38194 
L 266.800088 120.304396 
L 268.103921 97.656535 
L 269.407755 122.221784 
L 270.711588 93.566444 
L 272.015422 114.62817 
L 273.319255 104.807141 
L 274.623089 101.805967 
L 275.926922 121.581226 
L 277.230756 90.680352 
L 278.534589 105.411174 
L 279.838423 64.886393 
L 281.142256 97.656535 
L 282.44609 76.124876 
L 283.749923 94.729086 
L 285.053757 104.807141 
L 286.35759 96.481957 
L 287.661424 81.635824 
L 288.965257 87.823092 
L 290.269091 107.840143 
L 291.572924 75.035316 
L 292.876758 78.867077 
L 294.180591 120.304396 
L 295.484425 115.879854 
L 296.788258 95.896472 
L 298.092092 109.675503 
L 299.395926 107.840143 
L 300.699759 130.022523 
L 302.003593 83.870284 
L 303.307426 107.840143 
L 304.61126 79.418686 
L 305.915093 112.760855 
L 307.218927 116.507756 
L 308.52276 106.016485 
L 309.826594 117.13704 
L 311.130427 123.507222 
L 312.434261 112.141116 
L 313.738094 111.522717 
L 315.041928 95.896472 
L 316.345761 108.450622 
L 317.649595 103.60289 
L 318.953428 118.399776 
L 320.257262 82.750872 
L 321.561095 94.147174 
L 322.864929 108.450622 
L 324.168762 78.867077 
L 325.472596 91.255245 
L 326.776429 109.062407 
L 328.080263 111.522717 
L 329.384096 94.729086 
L 330.68793 132.006411 
L 331.991763 103.00266 
L 333.295597 103.00266 
L 334.59943 93.566444 
L 335.903264 131.343584 
L 337.207097 127.398565 
L 338.510931 114.62817 
L 339.814765 77.76704 
L 341.118598 87.823092 
L 342.422432 86.688133 
L 343.726265 106.62308 
L 345.030099 92.40851 
L 346.333932 92.986891 
L 347.637766 96.481957 
L 348.941599 93.566444 
L 350.245433 100.020262 
L 351.549266 115.879854 
L 352.8531 85.557659 
L 354.156933 127.398565 
L 355.460767 92.986891 
L 356.7646 101.805967 
L 358.068434 111.522717 
L 359.372267 96.481957 
L 360.676101 112.141116 
L 361.979934 119.033241 
L 364.587601 69.115814 
L 365.891435 119.033241 
L 367.195268 81.635824 
L 368.499102 66.465106 
L 369.802935 101.209492 
L 371.106769 101.209492 
L 372.410602 107.230964 
L 373.714436 141.450974 
L 375.018269 96.481957 
L 376.322103 61.23627 
L 377.625936 90.680352 
L 378.92977 88.392265 
L 380.233604 97.068643 
L 381.537437 97.068643 
L 382.841271 70.183014 
L 384.145104 81.635824 
L 385.448938 90.680352 
L 386.752771 98.835957 
L 388.056605 126.74632 
L 389.360438 85.557659 
L 390.664272 114.004376 
L 391.968105 101.209492 
L 393.271939 115.253327 
L 394.575772 116.507756 
L 395.879606 82.192805 
L 397.183439 104.204382 
L 398.487273 74.492088 
L 398.487273 74.492088 
" clip-path="url(#p994d36adbc)" style="fill: none; stroke: #ff0000; stroke-width: 1.5; stroke-linecap: square"/>
   </g>
   <g id="patch_3">
    <path d="M 57.6 307.584 
L 57.6 41.472 
" style="fill: none; stroke: #000000; stroke-width: 0.8; stroke-linejoin: miter; stroke-linecap: square"/>
   </g>
   <g id="patch_4">
    <path d="M 414.72 307.584 
L 414.72 41.472 
" style="fill: none; stroke: #000000; stroke-width: 0.8; stroke-linejoin: miter; stroke-linecap: square"/>
   </g>
   <g id="patch_5">
    <path d="M 57.6 307.584 
L 414.72 307.584 
" style="fill: none; stroke: #000000; stroke-width: 0.8; stroke-linejoin: miter; stroke-linecap: square"/>
   </g>
   <g id="patch_6">
    <path d="M 57.6 41.472 
L 414.72 41.472 
" style="fill: none; stroke: #000000; stroke-width: 0.8; stroke-linejoin: miter; stroke-linecap: square"/>
   </g>
   <g id="text_10">
    <!-- Population's average and best fitness -->
    <g transform="translate(123.529687 35.472) scale(0.12 -0.12)">
     <defs>
      <path id="DejaVuSans-50" d="M 1259 4147 
L 1259 2394 
L 2053 2394 
Q 2494 2394 2734 2622 
Q 2975 2850 2975 3272 
Q 2975 3691 2734 3919 
Q 2494 4147 2053 4147 
L 1259 4147 
z
M 628 4666 
L 2053 4666 
Q 2838 4666 3239 4311 
Q 3641 3956 3641 3272 
Q 3641 2581 3239 2228 
Q 2838 1875 2053 1875 
L 1259 1875 
L 1259 0 
L 628 0 
L 628 4666 
z
" transform="scale(0.015625)"/>
      <path id="DejaVuSans-70" d="M 1159 525 
L 1159 -1331 
L 581 -1331 
L 581 3500 
L 1159 3500 
L 1159 2969 
Q 1341 3281 1617 3432 
Q 1894 3584 2278 3584 
Q 2916 3584 3314 3078 
Q 3713 2572 3713 1747 
Q 3713 922 3314 415 
Q 2916 -91 2278 -91 
Q 1894 -91 1617 61 
Q 1341 213 1159 525 
z
M 3116 1747 
Q 3116 2381 2855 2742 
Q 2594 3103 2138 3103 
Q 1681 3103 1420 2742 
Q 1159 2381 1159 1747 
Q 1159 1113 1420 752 
Q 1681 391 2138 391 
Q 2594 391 2855 752 
Q 3116 1113 3116 1747 
z
" transform="scale(0.015625)"/>
      <path id="DejaVuSans-75" d="M 544 1381 
L 544 3500 
L 1119 3500 
L 1119 1403 
Q 1119 906 1312 657 
Q 1506 409 1894 409 
Q 2359 409 2629 706 
Q 2900 1003 2900 1516 
L 2900 3500 
L 3475 3500 
L 3475 0 
L 2900 0 
L 2900 538 
Q 2691 219 2414 64 
Q 2138 -91 1772 -91 
Q 1169 -91 856 284 
Q 544 659 544 1381 
z
M 1991 3584 
L 1991 3584 
z
" transform="scale(0.015625)"/>
      <path id="DejaVuSans-6c" d="M 603 4863 
L 1178 4863 
L 1178 0 
L 603 0 
L 603 4863 
z
" transform="scale(0.015625)"/>
      <path id="DejaVuSans-27" d="M 1147 4666 
L 1147 2931 
L 616 2931 
L 616 4666 
L 1147 4666 
z
" transform="scale(0.015625)"/>
      <path id="DejaVuSans-20" transform="scale(0.015625)"/>
      <path id="DejaVuSans-76" d="M 191 3500 
L 800 3500 
L 1894 563 
L 2988 3500 
L 3597 3500 
L 2284 0 
L 1503 0 
L 191 3500 
z
" transform="scale(0.015625)"/>
      <path id="DejaVuSans-67" d="M 2906 1791 
Q 2906 2416 2648 2759 
Q 2391 3103 1925 3103 
Q 1463 3103 1205 2759 
Q 947 2416 947 1791 
Q 947 1169 1205 825 
Q 1463 481 1925 481 
Q 2391 481 2648 825 
Q 2906 1169 2906 1791 
z
M 3481 434 
Q 3481 -459 3084 -895 
Q 2688 -1331 1869 -1331 
Q 1566 -1331 1297 -1286 
Q 1028 -1241 775 -1147 
L 775 -588 
Q 1028 -725 1275 -790 
Q 1522 -856 1778 -856 
Q 2344 -856 2625 -561 
Q 2906 -266 2906 331 
L 2906 616 
Q 2728 306 2450 153 
Q 2172 0 1784 0 
Q 1141 0 747 490 
Q 353 981 353 1791 
Q 353 2603 747 3093 
Q 1141 3584 1784 3584 
Q 2172 3584 2450 3431 
Q 2728 3278 2906 2969 
L 2906 3500 
L 3481 3500 
L 3481 434 
z
" transform="scale(0.015625)"/>
      <path id="DejaVuSans-64" d="M 2906 2969 
L 2906 4863 
L 3481 4863 
L 3481 0 
L 2906 0 
L 2906 525 
Q 2725 213 2448 61 
Q 2172 -91 1784 -91 
Q 1150 -91 751 415 
Q 353 922 353 1747 
Q 353 2572 751 3078 
Q 1150 3584 1784 3584 
Q 2172 3584 2448 3432 
Q 2725 3281 2906 2969 
z
M 947 1747 
Q 947 1113 1208 752 
Q 1469 391 1925 391 
Q 2381 391 2643 752 
Q 2906 1113 2906 1747 
Q 2906 2381 2643 2742 
Q 2381 3103 1925 3103 
Q 1469 3103 1208 2742 
Q 947 2381 947 1747 
z
" transform="scale(0.015625)"/>
      <path id="DejaVuSans-62" d="M 3116 1747 
Q 3116 2381 2855 2742 
Q 2594 3103 2138 3103 
Q 1681 3103 1420 2742 
Q 1159 2381 1159 1747 
Q 1159 1113 1420 752 
Q 1681 391 2138 391 
Q 2594 391 2855 752 
Q 3116 1113 3116 1747 
z
M 1159 2969 
Q 1341 3281 1617 3432 
Q 1894 3584 2278 3584 
Q 2916 3584 3314 3078 
Q 3713 2572 3713 1747 
Q 3713 922 3314 415 
Q 2916 -91 2278 -91 
Q 1894 -91 1617 61 
Q 1341 213 1159 525 
L 1159 0 
L 581 0 
L 581 4863 
L 1159 4863 
L 1159 2969 
z
" transform="scale(0.015625)"/>
      <path id="DejaVuSans-66" d="M 2375 4863 
L 2375 4384 
L 1825 4384 
Q 1516 4384 1395 4259 
Q 1275 4134 1275 3809 
L 1275 3500 
L 2222 3500 
L 2222 3053 
L 1275 3053 
L 1275 0 
L 697 0 
L 697 3053 
L 147 3053 
L 147 3500 
L 697 3500 
L 697 3744 
Q 697 4328 969 4595 
Q 1241 4863 1831 4863 
L 2375 4863 
z
" transform="scale(0.015625)"/>
     </defs>
     <use xlink:href="#DejaVuSans-50"/>
     <use xlink:href="#DejaVuSans-6f" transform="translate(56.677734 0)"/>
     <use xlink:href="#DejaVuSans-70" transform="translate(117.859375 0)"/>
     <use xlink:href="#DejaVuSans-75" transform="translate(181.335938 0)"/>
     <use xlink:href="#DejaVuSans-6c" transform="translate(244.714844 0)"/>
     <use xlink:href="#DejaVuSans-61" transform="translate(272.498047 0)"/>
     <use xlink:href="#DejaVuSans-74" transform="translate(333.777344 0)"/>
     <use xlink:href="#DejaVuSans-69" transform="translate(372.986328 0)"/>
     <use xlink:href="#DejaVuSans-6f" transform="translate(400.769531 0)"/>
     <use xlink:href="#DejaVuSans-6e" transform="translate(461.951172 0)"/>
     <use xlink:href="#DejaVuSans-27" transform="translate(525.330078 0)"/>
     <use xlink:href="#DejaVuSans-73" transform="translate(552.820312 0)"/>
     <use xlink:href="#DejaVuSans-20" transform="translate(604.919922 0)"/>
     <use xlink:href="#DejaVuSans-61" transform="translate(636.707031 0)"/>
     <use xlink:href="#DejaVuSans-76" transform="translate(697.986328 0)"/>
     <use xlink:href="#DejaVuSans-65" transform="translate(757.166016 0)"/>
     <use xlink:href="#DejaVuSans-72" transform="translate(818.689453 0)"/>
     <use xlink:href="#DejaVuSans-61" transform="translate(859.802734 0)"/>
     <use xlink:href="#DejaVuSans-67" transform="translate(921.082031 0)"/>
     <use xlink:href="#DejaVuSans-65" transform="translate(984.558594 0)"/>
     <use xlink:href="#DejaVuSans-20" transform="translate(1046.082031 0)"/>
     <use xlink:href="#DejaVuSans-61" transform="translate(1077.869141 0)"/>
     <use xlink:href="#DejaVuSans-6e" transform="translate(1139.148438 0)"/>
     <use xlink:href="#DejaVuSans-64" transform="translate(1202.527344 0)"/>
     <use xlink:href="#DejaVuSans-20" transform="translate(1266.003906 0)"/>
     <use xlink:href="#DejaVuSans-62" transform="translate(1297.791016 0)"/>
     <use xlink:href="#DejaVuSans-65" transform="translate(1361.267578 0)"/>
     <use xlink:href="#DejaVuSans-73" transform="translate(1422.791016 0)"/>
     <use xlink:href="#DejaVuSans-74" transform="translate(1474.890625 0)"/>
     <use xlink:href="#DejaVuSans-20" transform="translate(1514.099609 0)"/>
     <use xlink:href="#DejaVuSans-66" transform="translate(1545.886719 0)"/>
     <use xlink:href="#DejaVuSans-69" transform="translate(1581.091797 0)"/>
     <use xlink:href="#DejaVuSans-74" transform="translate(1608.875 0)"/>
     <use xlink:href="#DejaVuSans-6e" transform="translate(1648.083984 0)"/>
     <use xlink:href="#DejaVuSans-65" transform="translate(1711.462891 0)"/>
     <use xlink:href="#DejaVuSans-73" transform="translate(1772.986328 0)"/>
     <use xlink:href="#DejaVuSans-73" transform="translate(1825.085938 0)"/>
    </g>
   </g>
   <g id="legend_1">
    <g id="patch_7">
     <path d="M 64.6 93.506375 
L 137.540625 93.506375 
Q 139.540625 93.506375 139.540625 91.506375 
L 139.540625 48.472 
Q 139.540625 46.472 137.540625 46.472 
L 64.6 46.472 
Q 62.6 46.472 62.6 48.472 
L 62.6 91.506375 
Q 62.6 93.506375 64.6 93.506375 
z
" style="fill: #ffffff; opacity: 0.8; stroke: #cccccc; stroke-linejoin: miter"/>
    </g>
    <g id="line2d_18">
     <path d="M 66.6 54.570438 
L 76.6 54.570438 
L 86.6 54.570438 
" style="fill: none; stroke: #0000ff; stroke-width: 1.5; stroke-linecap: square"/>
    </g>
    <g id="text_11">
     <!-- average -->
     <g transform="translate(94.6 58.070438) scale(0.1 -0.1)">
      <use xlink:href="#DejaVuSans-61"/>
      <use xlink:href="#DejaVuSans-76" transform="translate(61.279297 0)"/>
      <use xlink:href="#DejaVuSans-65" transform="translate(120.458984 0)"/>
      <use xlink:href="#DejaVuSans-72" transform="translate(181.982422 0)"/>
      <use xlink:href="#DejaVuSans-61" transform="translate(223.095703 0)"/>
      <use xlink:href="#DejaVuSans-67" transform="translate(284.375 0)"/>
      <use xlink:href="#DejaVuSans-65" transform="translate(347.851562 0)"/>
     </g>
    </g>
    <g id="line2d_19">
     <path d="M 66.6 69.248563 
L 76.6 69.248563 
L 86.6 69.248563 
" style="fill: none; stroke-dasharray: 9.6,2.4,1.5,2.4; stroke-dashoffset: 0; stroke: #008000; stroke-width: 1.5"/>
    </g>
    <g id="text_12">
     <!-- +1 sd -->
     <g transform="translate(94.6 72.748563) scale(0.1 -0.1)">
      <defs>
       <path id="DejaVuSans-2b" d="M 2944 4013 
L 2944 2272 
L 4684 2272 
L 4684 1741 
L 2944 1741 
L 2944 0 
L 2419 0 
L 2419 1741 
L 678 1741 
L 678 2272 
L 2419 2272 
L 2419 4013 
L 2944 4013 
z
" transform="scale(0.015625)"/>
      </defs>
      <use xlink:href="#DejaVuSans-2b"/>
      <use xlink:href="#DejaVuSans-31" transform="translate(83.789062 0)"/>
      <use xlink:href="#DejaVuSans-20" transform="translate(147.412109 0)"/>
      <use xlink:href="#DejaVuSans-73" transform="translate(179.199219 0)"/>
      <use xlink:href="#DejaVuSans-64" transform="translate(231.298828 0)"/>
     </g>
    </g>
    <g id="line2d_20">
     <path d="M 66.6 83.926688 
L 76.6 83.926688 
L 86.6 83.926688 
" style="fill: none; stroke: #ff0000; stroke-width: 1.5; stroke-linecap: square"/>
    </g>
    <g id="text_13">
     <!-- best -->
     <g transform="translate(94.6 87.426688) scale(0.1 -0.1)">
      <use xlink:href="#DejaVuSans-62"/>
      <use xlink:href="#DejaVuSans-65" transform="translate(63.476562 0)"/>
      <use xlink:href="#DejaVuSans-73" transform="translate(125 0)"/>
      <use xlink:href="#DejaVuSans-74" transform="translate(177.099609 0)"/>
     </g>
    </g>
   </g>
  </g>
 </g>
 <defs>
  <clipPath id="p994d36adbc">
   <rect x="57.6" y="41.472" width="357.12" height="266.112"/>
  </clipPath>
 </defs>
</svg>
