<?xml version="1.0" encoding="utf-8" standalone="no"?>
<!DOCTYPE svg PUBLIC "-//W3C//DTD SVG 1.1//EN"
  "http://www.w3.org/Graphics/SVG/1.1/DTD/svg11.dtd">
<svg xmlns:xlink="http://www.w3.org/1999/xlink" width="460.8pt" height="345.6pt" viewBox="0 0 460.8 345.6" xmlns="http://www.w3.org/2000/svg" version="1.1">
 <metadata>
  <rdf:RDF xmlns:dc="http://purl.org/dc/elements/1.1/" xmlns:cc="http://creativecommons.org/ns#" xmlns:rdf="http://www.w3.org/1999/02/22-rdf-syntax-ns#">
   <cc:Work>
    <dc:type rdf:resource="http://purl.org/dc/dcmitype/StillImage"/>
    <dc:date>2025-11-18T20:42:18.107269</dc:date>
    <dc:format>image/svg+xml</dc:format>
    <dc:creator>
     <cc:Agent>
      <dc:title>Matplotlib v3.10.7, https://matplotlib.org/</dc:title>
     </cc:Agent>
    </dc:creator>
   </cc:Work>
  </rdf:RDF>
 </metadata>
 <defs>
  <style type="text/css">*{stroke-linejoin: round; stroke-linecap: butt}</style>
 </defs>
 <g id="figure_1">
  <g id="patch_1">
   <path d="M 0 345.6 
L 460.8 345.6 
L 460.8 0 
L 0 0 
z
" style="fill: #ffffff"/>
  </g>
  <g id="axes_1">
   <g id="patch_2">
    <path d="M 57.6 307.584 
L 414.72 307.584 
L 414.72 41.472 
L 57.6 41.472 
z
" style="fill: #ffffff"/>
   </g>
   <g id="matplotlib.axis_1">
    <g id="xtick_1">
     <g id="line2d_1">
      <path d="M 73.832727 307.584 
L 73.832727 41.472 
" clip-path="url(#pbfdcba6d52)" style="fill: none; stroke: #b0b0b0; stroke-width: 0.8; stroke-linecap: square"/>
     </g>
     <g id="line2d_2">
      <defs>
       <path id="m97ecd955b1" d="M 0 0 
L 0 3.5 
" style="stroke: #000000; stroke-width: 0.8"/>
      </defs>
      <g>
       <use xlink:href="#m97ecd955b1" x="73.832727" y="307.584" style="stroke: #000000; stroke-width: 0.8"/>
      </g>
     </g>
     <g id="text_1">
      <!-- 0 -->
      <g transform="translate(70.651477 322.182437) scale(0.1 -0.1)">
       <defs>
        <path id="DejaVuSans-30" d="M 2034 4250 
Q 1547 4250 1301 3770 
Q 1056 3291 1056 2328 
Q 1056 1369 1301 889 
Q 1547 409 2034 409 
Q 2525 409 2770 889 
Q 3016 1369 3016 2328 
Q 3016 3291 2770 3770 
Q 2525 4250 2034 4250 
z
M 2034 4750 
Q 2819 4750 3233 4129 
Q 3647 3509 3647 2328 
Q 3647 1150 3233 529 
Q 2819 -91 2034 -91 
Q 1250 -91 836 529 
Q 422 1150 422 2328 
Q 422 3509 836 4129 
Q 1250 4750 2034 4750 
z
" transform="scale(0.015625)"/>
       </defs>
       <use xlink:href="#DejaVuSans-30"/>
      </g>
     </g>
    </g>
    <g id="xtick_2">
     <g id="line2d_3">
      <path d="M 138.828632 307.584 
L 138.828632 41.472 
" clip-path="url(#pbfdcba6d52)" style="fill: none; stroke: #b0b0b0; stroke-width: 0.8; stroke-linecap: square"/>
     </g>
     <g id="line2d_4">
      <g>
       <use xlink:href="#m97ecd955b1" x="138.828632" y="307.584" style="stroke: #000000; stroke-width: 0.8"/>
      </g>
     </g>
     <g id="text_2">
      <!-- 200 -->
      <g transform="translate(129.284882 322.182437) scale(0.1 -0.1)">
       <defs>
        <path id="DejaVuSans-32" d="M 1228 531 
L 3431 531 
L 3431 0 
L 469 0 
L 469 531 
Q 828 903 1448 1529 
Q 2069 2156 2228 2338 
Q 2531 2678 2651 2914 
Q 2772 3150 2772 3378 
Q 2772 3750 2511 3984 
Q 2250 4219 1831 4219 
Q 1534 4219 1204 4116 
Q 875 4013 500 3803 
L 500 4441 
Q 881 4594 1212 4672 
Q 1544 4750 1819 4750 
Q 2544 4750 2975 4387 
Q 3406 4025 3406 3419 
Q 3406 3131 3298 2873 
Q 3191 2616 2906 2266 
Q 2828 2175 2409 1742 
Q 1991 1309 1228 531 
z
" transform="scale(0.015625)"/>
       </defs>
       <use xlink:href="#DejaVuSans-32"/>
       <use xlink:href="#DejaVuSans-30" transform="translate(63.623047 0)"/>
       <use xlink:href="#DejaVuSans-30" transform="translate(127.246094 0)"/>
      </g>
     </g>
    </g>
    <g id="xtick_3">
     <g id="line2d_5">
      <path d="M 203.824537 307.584 
L 203.824537 41.472 
" clip-path="url(#pbfdcba6d52)" style="fill: none; stroke: #b0b0b0; stroke-width: 0.8; stroke-linecap: square"/>
     </g>
     <g id="line2d_6">
      <g>
       <use xlink:href="#m97ecd955b1" x="203.824537" y="307.584" style="stroke: #000000; stroke-width: 0.8"/>
      </g>
     </g>
     <g id="text_3">
      <!-- 400 -->
      <g transform="translate(194.280787 322.182437) scale(0.1 -0.1)">
       <defs>
        <path id="DejaVuSans-34" d="M 2419 4116 
L 825 1625 
L 2419 1625 
L 2419 4116 
z
M 2253 4666 
L 3047 4666 
L 3047 1625 
L 3713 1625 
L 3713 1100 
L 3047 1100 
L 3047 0 
L 2419 0 
L 2419 1100 
L 313 1100 
L 313 1709 
L 2253 4666 
z
" transform="scale(0.015625)"/>
       </defs>
       <use xlink:href="#DejaVuSans-34"/>
       <use xlink:href="#DejaVuSans-30" transform="translate(63.623047 0)"/>
       <use xlink:href="#DejaVuSans-30" transform="translate(127.246094 0)"/>
      </g>
     </g>
    </g>
    <g id="xtick_4">
     <g id="line2d_7">
      <path d="M 268.820442 307.584 
L 268.820442 41.472 
" clip-path="url(#pbfdcba6d52)" style="fill: none; stroke: #b0b0b0; stroke-width: 0.8; stroke-linecap: square"/>
     </g>
     <g id="line2d_8">
      <g>
       <use xlink:href="#m97ecd955b1" x="268.820442" y="307.584" style="stroke: #000000; stroke-width: 0.8"/>
      </g>
     </g>
     <g id="text_4">
      <!-- 600 -->
      <g transform="translate(259.276692 322.182437) scale(0.1 -0.1)">
       <defs>
        <path id="DejaVuSans-36" d="M 2113 2584 
Q 1688 2584 1439 2293 
Q 1191 2003 1191 1497 
Q 1191 994 1439 701 
Q 1688 409 2113 409 
Q 2538 409 2786 701 
Q 3034 994 3034 1497 
Q 3034 2003 2786 2293 
Q 2538 2584 2113 2584 
z
M 3366 4563 
L 3366 3988 
Q 3128 4100 2886 4159 
Q 2644 4219 2406 4219 
Q 1781 4219 1451 3797 
Q 1122 3375 1075 2522 
Q 1259 2794 1537 2939 
Q 1816 3084 2150 3084 
Q 2853 3084 3261 2657 
Q 3669 2231 3669 1497 
Q 3669 778 3244 343 
Q 2819 -91 2113 -91 
Q 1303 -91 875 529 
Q 447 1150 447 2328 
Q 447 3434 972 4092 
Q 1497 4750 2381 4750 
Q 2619 4750 2861 4703 
Q 3103 4656 3366 4563 
z
" transform="scale(0.015625)"/>
       </defs>
       <use xlink:href="#DejaVuSans-36"/>
       <use xlink:href="#DejaVuSans-30" transform="translate(63.623047 0)"/>
       <use xlink:href="#DejaVuSans-30" transform="translate(127.246094 0)"/>
      </g>
     </g>
    </g>
    <g id="xtick_5">
     <g id="line2d_9">
      <path d="M 333.816347 307.584 
L 333.816347 41.472 
" clip-path="url(#pbfdcba6d52)" style="fill: none; stroke: #b0b0b0; stroke-width: 0.8; stroke-linecap: square"/>
     </g>
     <g id="line2d_10">
      <g>
       <use xlink:href="#m97ecd955b1" x="333.816347" y="307.584" style="stroke: #000000; stroke-width: 0.8"/>
      </g>
     </g>
     <g id="text_5">
      <!-- 800 -->
      <g transform="translate(324.272597 322.182437) scale(0.1 -0.1)">
       <defs>
        <path id="DejaVuSans-38" d="M 2034 2216 
Q 1584 2216 1326 1975 
Q 1069 1734 1069 1313 
Q 1069 891 1326 650 
Q 1584 409 2034 409 
Q 2484 409 2743 651 
Q 3003 894 3003 1313 
Q 3003 1734 2745 1975 
Q 2488 2216 2034 2216 
z
M 1403 2484 
Q 997 2584 770 2862 
Q 544 3141 544 3541 
Q 544 4100 942 4425 
Q 1341 4750 2034 4750 
Q 2731 4750 3128 4425 
Q 3525 4100 3525 3541 
Q 3525 3141 3298 2862 
Q 3072 2584 2669 2484 
Q 3125 2378 3379 2068 
Q 3634 1759 3634 1313 
Q 3634 634 3220 271 
Q 2806 -91 2034 -91 
Q 1263 -91 848 271 
Q 434 634 434 1313 
Q 434 1759 690 2068 
Q 947 2378 1403 2484 
z
M 1172 3481 
Q 1172 3119 1398 2916 
Q 1625 2713 2034 2713 
Q 2441 2713 2670 2916 
Q 2900 3119 2900 3481 
Q 2900 3844 2670 4047 
Q 2441 4250 2034 4250 
Q 1625 4250 1398 4047 
Q 1172 3844 1172 3481 
z
" transform="scale(0.015625)"/>
       </defs>
       <use xlink:href="#DejaVuSans-38"/>
       <use xlink:href="#DejaVuSans-30" transform="translate(63.623047 0)"/>
       <use xlink:href="#DejaVuSans-30" transform="translate(127.246094 0)"/>
      </g>
     </g>
    </g>
    <g id="xtick_6">
     <g id="line2d_11">
      <path d="M 398.812252 307.584 
L 398.812252 41.472 
" clip-path="url(#pbfdcba6d52)" style="fill: none; stroke: #b0b0b0; stroke-width: 0.8; stroke-linecap: square"/>
     </g>
     <g id="line2d_12">
      <g>
       <use xlink:href="#m97ecd955b1" x="398.812252" y="307.584" style="stroke: #000000; stroke-width: 0.8"/>
      </g>
     </g>
     <g id="text_6">
      <!-- 1000 -->
      <g transform="translate(386.087252 322.182437) scale(0.1 -0.1)">
       <defs>
        <path id="DejaVuSans-31" d="M 794 531 
L 1825 531 
L 1825 4091 
L 703 3866 
L 703 4441 
L 1819 4666 
L 2450 4666 
L 2450 531 
L 3481 531 
L 3481 0 
L 794 0 
L 794 531 
z
" transform="scale(0.015625)"/>
       </defs>
       <use xlink:href="#DejaVuSans-31"/>
       <use xlink:href="#DejaVuSans-30" transform="translate(63.623047 0)"/>
       <use xlink:href="#DejaVuSans-30" transform="translate(127.246094 0)"/>
       <use xlink:href="#DejaVuSans-30" transform="translate(190.869141 0)"/>
      </g>
     </g>
    </g>
    <g id="text_7">
     <!-- Generations -->
     <g transform="translate(205.662344 335.860562) scale(0.1 -0.1)">
      <defs>
       <path id="DejaVuSans-47" d="M 3809 666 
L 3809 1919 
L 2778 1919 
L 2778 2438 
L 4434 2438 
L 4434 434 
Q 4069 175 3628 42 
Q 3188 -91 2688 -91 
Q 1594 -91 976 548 
Q 359 1188 359 2328 
Q 359 3472 976 4111 
Q 1594 4750 2688 4750 
Q 3144 4750 3555 4637 
Q 3966 4525 4313 4306 
L 4313 3634 
Q 3963 3931 3569 4081 
Q 3175 4231 2741 4231 
Q 1884 4231 1454 3753 
Q 1025 3275 1025 2328 
Q 1025 1384 1454 906 
Q 1884 428 2741 428 
Q 3075 428 3337 486 
Q 3600 544 3809 666 
z
" transform="scale(0.015625)"/>
       <path id="DejaVuSans-65" d="M 3597 1894 
L 3597 1613 
L 953 1613 
Q 991 1019 1311 708 
Q 1631 397 2203 397 
Q 2534 397 2845 478 
Q 3156 559 3463 722 
L 3463 178 
Q 3153 47 2828 -22 
Q 2503 -91 2169 -91 
Q 1331 -91 842 396 
Q 353 884 353 1716 
Q 353 2575 817 3079 
Q 1281 3584 2069 3584 
Q 2775 3584 3186 3129 
Q 3597 2675 3597 1894 
z
M 3022 2063 
Q 3016 2534 2758 2815 
Q 2500 3097 2075 3097 
Q 1594 3097 1305 2825 
Q 1016 2553 972 2059 
L 3022 2063 
z
" transform="scale(0.015625)"/>
       <path id="DejaVuSans-6e" d="M 3513 2113 
L 3513 0 
L 2938 0 
L 2938 2094 
Q 2938 2591 2744 2837 
Q 2550 3084 2163 3084 
Q 1697 3084 1428 2787 
Q 1159 2491 1159 1978 
L 1159 0 
L 581 0 
L 581 3500 
L 1159 3500 
L 1159 2956 
Q 1366 3272 1645 3428 
Q 1925 3584 2291 3584 
Q 2894 3584 3203 3211 
Q 3513 2838 3513 2113 
z
" transform="scale(0.015625)"/>
       <path id="DejaVuSans-72" d="M 2631 2963 
Q 2534 3019 2420 3045 
Q 2306 3072 2169 3072 
Q 1681 3072 1420 2755 
Q 1159 2438 1159 1844 
L 1159 0 
L 581 0 
L 581 3500 
L 1159 3500 
L 1159 2956 
Q 1341 3275 1631 3429 
Q 1922 3584 2338 3584 
Q 2397 3584 2469 3576 
Q 2541 3569 2628 3553 
L 2631 2963 
z
" transform="scale(0.015625)"/>
       <path id="DejaVuSans-61" d="M 2194 1759 
Q 1497 1759 1228 1600 
Q 959 1441 959 1056 
Q 959 750 1161 570 
Q 1363 391 1709 391 
Q 2188 391 2477 730 
Q 2766 1069 2766 1631 
L 2766 1759 
L 2194 1759 
z
M 3341 1997 
L 3341 0 
L 2766 0 
L 2766 531 
Q 2569 213 2275 61 
Q 1981 -91 1556 -91 
Q 1019 -91 701 211 
Q 384 513 384 1019 
Q 384 1609 779 1909 
Q 1175 2209 1959 2209 
L 2766 2209 
L 2766 2266 
Q 2766 2663 2505 2880 
Q 2244 3097 1772 3097 
Q 1472 3097 1187 3025 
Q 903 2953 641 2809 
L 641 3341 
Q 956 3463 1253 3523 
Q 1550 3584 1831 3584 
Q 2591 3584 2966 3190 
Q 3341 2797 3341 1997 
z
" transform="scale(0.015625)"/>
       <path id="DejaVuSans-74" d="M 1172 4494 
L 1172 3500 
L 2356 3500 
L 2356 3053 
L 1172 3053 
L 1172 1153 
Q 1172 725 1289 603 
Q 1406 481 1766 481 
L 2356 481 
L 2356 0 
L 1766 0 
Q 1100 0 847 248 
Q 594 497 594 1153 
L 594 3053 
L 172 3053 
L 172 3500 
L 594 3500 
L 594 4494 
L 1172 4494 
z
" transform="scale(0.015625)"/>
       <path id="DejaVuSans-69" d="M 603 3500 
L 1178 3500 
L 1178 0 
L 603 0 
L 603 3500 
z
M 603 4863 
L 1178 4863 
L 1178 4134 
L 603 4134 
L 603 4863 
z
" transform="scale(0.015625)"/>
       <path id="DejaVuSans-6f" d="M 1959 3097 
Q 1497 3097 1228 2736 
Q 959 2375 959 1747 
Q 959 1119 1226 758 
Q 1494 397 1959 397 
Q 2419 397 2687 759 
Q 2956 1122 2956 1747 
Q 2956 2369 2687 2733 
Q 2419 3097 1959 3097 
z
M 1959 3584 
Q 2709 3584 3137 3096 
Q 3566 2609 3566 1747 
Q 3566 888 3137 398 
Q 2709 -91 1959 -91 
Q 1206 -91 779 398 
Q 353 888 353 1747 
Q 353 2609 779 3096 
Q 1206 3584 1959 3584 
z
" transform="scale(0.015625)"/>
       <path id="DejaVuSans-73" d="M 2834 3397 
L 2834 2853 
Q 2591 2978 2328 3040 
Q 2066 3103 1784 3103 
Q 1356 3103 1142 2972 
Q 928 2841 928 2578 
Q 928 2378 1081 2264 
Q 1234 2150 1697 2047 
L 1894 2003 
Q 2506 1872 2764 1633 
Q 3022 1394 3022 966 
Q 3022 478 2636 193 
Q 2250 -91 1575 -91 
Q 1294 -91 989 -36 
Q 684 19 347 128 
L 347 722 
Q 666 556 975 473 
Q 1284 391 1588 391 
Q 1994 391 2212 530 
Q 2431 669 2431 922 
Q 2431 1156 2273 1281 
Q 2116 1406 1581 1522 
L 1381 1569 
Q 847 1681 609 1914 
Q 372 2147 372 2553 
Q 372 3047 722 3315 
Q 1072 3584 1716 3584 
Q 2034 3584 2315 3537 
Q 2597 3491 2834 3397 
z
" transform="scale(0.015625)"/>
      </defs>
      <use xlink:href="#DejaVuSans-47"/>
      <use xlink:href="#DejaVuSans-65" transform="translate(77.490234 0)"/>
      <use xlink:href="#DejaVuSans-6e" transform="translate(139.013672 0)"/>
      <use xlink:href="#DejaVuSans-65" transform="translate(202.392578 0)"/>
      <use xlink:href="#DejaVuSans-72" transform="translate(263.916016 0)"/>
      <use xlink:href="#DejaVuSans-61" transform="translate(305.029297 0)"/>
      <use xlink:href="#DejaVuSans-74" transform="translate(366.308594 0)"/>
      <use xlink:href="#DejaVuSans-69" transform="translate(405.517578 0)"/>
      <use xlink:href="#DejaVuSans-6f" transform="translate(433.300781 0)"/>
      <use xlink:href="#DejaVuSans-6e" transform="translate(494.482422 0)"/>
      <use xlink:href="#DejaVuSans-73" transform="translate(557.861328 0)"/>
     </g>
    </g>
   </g>
   <g id="matplotlib.axis_2">
    <g id="ytick_1">
     <g id="line2d_13">
      <path d="M 57.6 302.578066 
L 414.72 302.578066 
" clip-path="url(#pbfdcba6d52)" style="fill: none; stroke: #b0b0b0; stroke-width: 0.8; stroke-linecap: square"/>
     </g>
     <g id="line2d_14">
      <defs>
       <path id="m087d68ff0e" d="M 0 0 
L -3.5 0 
" style="stroke: #000000; stroke-width: 0.8"/>
      </defs>
      <g>
       <use xlink:href="#m087d68ff0e" x="57.6" y="302.578066" style="stroke: #000000; stroke-width: 0.8"/>
      </g>
     </g>
     <g id="text_8">
      <!-- $\mathdefault{10^{2}}$ -->
      <g transform="translate(33 306.377285) scale(0.1 -0.1)">
       <use xlink:href="#DejaVuSans-31" transform="translate(0 0.765625)"/>
       <use xlink:href="#DejaVuSans-30" transform="translate(63.623047 0.765625)"/>
       <use xlink:href="#DejaVuSans-32" transform="translate(128.203125 39.046875) scale(0.7)"/>
      </g>
     </g>
    </g>
    <g id="ytick_2">
     <g id="line2d_15">
      <path d="M 57.6 96.043041 
L 414.72 96.043041 
" clip-path="url(#pbfdcba6d52)" style="fill: none; stroke: #b0b0b0; stroke-width: 0.8; stroke-linecap: square"/>
     </g>
     <g id="line2d_16">
      <g>
       <use xlink:href="#m087d68ff0e" x="57.6" y="96.043041" style="stroke: #000000; stroke-width: 0.8"/>
      </g>
     </g>
     <g id="text_9">
      <!-- $\mathdefault{10^{3}}$ -->
      <g transform="translate(33 99.84226) scale(0.1 -0.1)">
       <defs>
        <path id="DejaVuSans-33" d="M 2597 2516 
Q 3050 2419 3304 2112 
Q 3559 1806 3559 1356 
Q 3559 666 3084 287 
Q 2609 -91 1734 -91 
Q 1441 -91 1130 -33 
Q 819 25 488 141 
L 488 750 
Q 750 597 1062 519 
Q 1375 441 1716 441 
Q 2309 441 2620 675 
Q 2931 909 2931 1356 
Q 2931 1769 2642 2001 
Q 2353 2234 1838 2234 
L 1294 2234 
L 1294 2753 
L 1863 2753 
Q 2328 2753 2575 2939 
Q 2822 3125 2822 3475 
Q 2822 3834 2567 4026 
Q 2313 4219 1838 4219 
Q 1578 4219 1281 4162 
Q 984 4106 628 3988 
L 628 4550 
Q 988 4650 1302 4700 
Q 1616 4750 1894 4750 
Q 2613 4750 3031 4423 
Q 3450 4097 3450 3541 
Q 3450 3153 3228 2886 
Q 3006 2619 2597 2516 
z
" transform="scale(0.015625)"/>
       </defs>
       <use xlink:href="#DejaVuSans-31" transform="translate(0 0.765625)"/>
       <use xlink:href="#DejaVuSans-30" transform="translate(63.623047 0.765625)"/>
       <use xlink:href="#DejaVuSans-33" transform="translate(128.203125 39.046875) scale(0.7)"/>
      </g>
     </g>
    </g>
    <g id="text_10">
     <!-- Fitness -->
     <g transform="translate(26.920312 191.845187) rotate(-90) scale(0.1 -0.1)">
      <defs>
       <path id="DejaVuSans-46" d="M 628 4666 
L 3309 4666 
L 3309 4134 
L 1259 4134 
L 1259 2759 
L 3109 2759 
L 3109 2228 
L 1259 2228 
L 1259 0 
L 628 0 
L 628 4666 
z
" transform="scale(0.015625)"/>
      </defs>
      <use xlink:href="#DejaVuSans-46"/>
      <use xlink:href="#DejaVuSans-69" transform="translate(50.269531 0)"/>
      <use xlink:href="#DejaVuSans-74" transform="translate(78.052734 0)"/>
      <use xlink:href="#DejaVuSans-6e" transform="translate(117.261719 0)"/>
      <use xlink:href="#DejaVuSans-65" transform="translate(180.640625 0)"/>
      <use xlink:href="#DejaVuSans-73" transform="translate(242.164062 0)"/>
      <use xlink:href="#DejaVuSans-73" transform="translate(294.263672 0)"/>
     </g>
    </g>
   </g>
   <g id="line2d_17">
    <path d="M 73.832727 295.488 
L 74.157707 294.559346 
L 74.482686 292.081304 
L 74.807666 292.065202 
L 75.132645 290.280352 
L 75.457625 290.810368 
L 75.782604 290.510229 
L 76.107584 291.592729 
L 76.432563 291.315314 
L 76.757543 289.127672 
L 77.407502 288.688664 
L 77.732482 285.286667 
L 78.057461 284.425422 
L 78.382441 286.091871 
L 78.70742 283.368026 
L 79.0324 282.273476 
L 79.682359 283.340802 
L 80.007338 284.12473 
L 80.332318 280.855341 
L 80.657297 281.222524 
L 80.982277 278.833447 
L 81.307256 278.700001 
L 81.632236 280.857538 
L 81.957215 282.22535 
L 82.282195 282.32621 
L 82.607174 279.562962 
L 82.932154 279.483368 
L 83.257133 278.833034 
L 83.582113 278.800739 
L 83.907093 279.445007 
L 84.232072 275.760423 
L 84.557052 275.981552 
L 84.882031 270.936259 
L 85.207011 274.521041 
L 85.53199 268.598254 
L 86.181949 266.560416 
L 86.506929 266.131765 
L 86.831908 266.523554 
L 87.156888 262.75786 
L 87.481867 267.515311 
L 87.806847 263.271289 
L 88.131826 266.399611 
L 88.456806 261.584719 
L 88.781785 265.997519 
L 89.106765 261.895467 
L 89.431744 262.149548 
L 90.081704 254.350138 
L 90.406683 254.192277 
L 90.731663 258.012836 
L 91.056642 255.023867 
L 91.381622 260.082374 
L 91.706601 255.263035 
L 92.031581 257.577428 
L 92.35656 253.482096 
L 92.68154 255.697902 
L 93.006519 259.44224 
L 93.331499 254.108551 
L 93.656478 253.859209 
L 93.981458 251.235312 
L 94.306437 250.347882 
L 94.631417 253.248971 
L 94.956396 250.299724 
L 95.281376 249.885795 
L 95.606355 249.803784 
L 95.931335 251.295622 
L 96.256314 249.787898 
L 96.581294 255.462522 
L 96.906274 253.39262 
L 97.231253 255.565055 
L 97.556233 249.12642 
L 97.881212 251.811183 
L 98.206192 250.629636 
L 98.856151 255.385692 
L 99.50611 250.425365 
L 99.831089 254.691812 
L 100.156069 255.41428 
L 100.481048 254.807957 
L 100.806028 253.184303 
L 101.131007 255.836879 
L 101.455987 251.358283 
L 101.780966 255.330944 
L 102.105946 253.286962 
L 102.430925 253.47783 
L 102.755905 253.25 
L 103.080885 254.108554 
L 103.405864 257.605776 
L 103.730844 252.146585 
L 104.055823 248.911303 
L 104.380803 250.697625 
L 104.705782 253.703865 
L 105.030762 251.58257 
L 105.355741 253.495609 
L 105.680721 252.53048 
L 106.0057 251.095539 
L 106.33068 253.713208 
L 106.655659 254.048362 
L 106.980639 252.486036 
L 107.305618 253.758852 
L 107.630598 252.45564 
L 107.955577 255.425827 
L 108.280557 252.218821 
L 108.605536 252.218821 
L 108.930516 256.772195 
L 109.255495 254.191596 
L 109.580475 249.489823 
L 109.905455 251.46643 
L 110.230434 251.414715 
L 110.555414 253.961377 
L 110.880393 249.405301 
L 111.205373 249.302295 
L 111.530352 249.404654 
L 111.855332 249.936655 
L 112.505291 252.753977 
L 112.83027 248.012605 
L 113.15525 250.304507 
L 113.480229 254.076582 
L 113.805209 252.269259 
L 114.130188 251.672961 
L 114.455168 259.217245 
L 114.780147 250.315267 
L 115.105127 251.174713 
L 115.430106 247.41953 
L 115.755086 254.112296 
L 116.080066 254.748211 
L 116.405045 252.40923 
L 116.730025 254.370533 
L 117.055004 253.758851 
L 117.379984 249.115802 
L 117.704963 251.000111 
L 118.029943 251.663379 
L 118.354922 248.411344 
L 118.679902 249.479635 
L 119.004881 247.5027 
L 119.329861 249.683561 
L 119.65484 248.958414 
L 119.97982 252.242549 
L 120.304799 253.723279 
L 120.629779 248.584128 
L 120.954758 257.594564 
L 121.279738 259.384649 
L 121.604717 252.046462 
L 121.929697 259.31563 
L 122.254676 252.094015 
L 122.579656 247.776386 
L 122.904636 254.302024 
L 123.229615 252.804311 
L 123.554595 253.133605 
L 123.879574 253.717099 
L 124.204554 250.91621 
L 124.529533 251.411839 
L 124.854513 247.728533 
L 125.179492 259.657305 
L 125.504472 254.318079 
L 125.829451 253.502203 
L 126.154431 255.580057 
L 126.47941 251.388969 
L 126.80439 253.902024 
L 127.129369 258.372799 
L 127.454349 246.114047 
L 127.779328 251.110864 
L 128.104308 251.174015 
L 128.429287 251.505821 
L 128.754267 248.680871 
L 129.079247 248.866462 
L 129.404226 255.664732 
L 129.729206 249.048296 
L 130.054185 247.70702 
L 130.379165 254.279145 
L 131.029124 246.315289 
L 131.354103 247.67184 
L 132.004062 246.407962 
L 132.329042 248.99176 
L 132.654021 244.385132 
L 133.30398 247.276223 
L 133.62896 253.467023 
L 133.953939 251.704356 
L 134.278919 251.774457 
L 134.603898 256.315329 
L 134.928878 247.268168 
L 135.253857 248.36698 
L 135.578837 251.778577 
L 135.903817 247.989865 
L 136.228796 247.552236 
L 136.553776 250.544065 
L 137.203735 248.000919 
L 137.528714 250.925173 
L 137.853694 245.806205 
L 138.178673 251.12692 
L 138.828632 253.230481 
L 139.153612 250.031689 
L 139.478591 253.788619 
L 139.803571 250.754811 
L 140.12855 253.039419 
L 140.45353 247.469465 
L 140.778509 252.481971 
L 141.103489 254.455182 
L 141.428468 258.45323 
L 142.078428 252.15424 
L 142.403407 253.656439 
L 142.728387 249.356472 
L 143.053366 252.862397 
L 143.378346 253.657053 
L 143.703325 253.305594 
L 144.028305 251.062186 
L 144.353284 251.459433 
L 144.678264 253.151996 
L 145.003243 249.316004 
L 145.653202 250.198237 
L 145.978182 248.499499 
L 146.303161 249.697513 
L 146.628141 253.693138 
L 146.95312 248.728915 
L 147.2781 251.3728 
L 147.603079 250.921233 
L 147.928059 255.453906 
L 148.253038 255.261111 
L 148.578018 252.471004 
L 148.902998 252.52814 
L 149.227977 252.435374 
L 149.552957 254.902822 
L 149.877936 248.544904 
L 150.202916 251.161086 
L 150.527895 256.251913 
L 151.177854 247.512087 
L 151.502834 251.259695 
L 151.827813 247.427423 
L 152.152793 251.074024 
L 152.477772 245.133575 
L 152.802752 246.843591 
L 153.127731 245.715543 
L 153.452711 250.929441 
L 153.77769 254.177159 
L 154.10267 251.39722 
L 154.427649 250.984042 
L 154.752629 246.034733 
L 155.077609 246.567322 
L 155.402588 246.364756 
L 156.052547 253.839013 
L 156.377527 254.387801 
L 156.702506 247.24825 
L 157.027486 252.705386 
L 157.352465 253.439103 
L 157.677445 249.587653 
L 158.002424 249.810181 
L 158.327404 252.910932 
L 158.652383 254.319904 
L 158.977363 257.267731 
L 159.302342 254.358018 
L 159.627322 257.319526 
L 159.952301 256.320731 
L 160.277281 255.784874 
L 160.60226 256.860898 
L 160.92724 257.467336 
L 161.252219 252.09856 
L 161.577199 254.419262 
L 161.902179 253.232479 
L 162.227158 259.0778 
L 162.877117 258.822439 
L 163.202097 258.549918 
L 163.527076 257.262244 
L 163.852056 259.467424 
L 164.177035 257.433792 
L 164.502015 257.366609 
L 164.826994 253.259754 
L 165.151974 258.964493 
L 165.801933 255.858398 
L 166.126912 258.645912 
L 166.451892 255.743292 
L 166.776871 259.100284 
L 167.42683 254.665175 
L 167.75181 255.722162 
L 168.07679 254.09322 
L 168.401769 257.462425 
L 168.726749 258.172699 
L 169.376708 249.831349 
L 169.701687 252.825238 
L 170.026667 253.716844 
L 170.351646 259.873564 
L 170.676626 257.139415 
L 171.001605 261.35314 
L 171.326585 259.201808 
L 171.651564 262.560032 
L 171.976544 259.066843 
L 172.301523 260.562961 
L 172.626503 255.619354 
L 172.951482 259.76433 
L 173.276462 259.929591 
L 173.926421 262.229736 
L 174.2514 258.902116 
L 174.57638 252.824765 
L 174.90136 257.071875 
L 175.226339 251.383978 
L 175.551319 256.246931 
L 175.876298 254.527408 
L 176.526257 260.076433 
L 176.851237 255.413709 
L 177.176216 256.033748 
L 177.501196 254.257629 
L 177.826175 257.256231 
L 178.476134 257.499245 
L 178.801114 253.484183 
L 179.126093 257.498773 
L 179.451073 259.126173 
L 180.101032 250.511568 
L 180.426011 254.928646 
L 180.750991 254.787771 
L 181.40095 255.331282 
L 181.72593 255.305429 
L 182.050909 256.450375 
L 182.375889 256.319181 
L 182.700868 252.238157 
L 183.350827 259.804856 
L 183.675807 264.409919 
L 184.000786 260.51508 
L 184.325766 258.889778 
L 184.650745 260.090079 
L 184.975725 260.804962 
L 185.300704 257.096891 
L 185.625684 262.287366 
L 185.950663 262.102306 
L 186.275643 259.087204 
L 186.600622 253.758511 
L 186.925602 257.493148 
L 187.575561 260.081648 
L 187.900541 263.369327 
L 188.22552 263.156177 
L 188.5505 263.088023 
L 188.875479 257.293056 
L 189.200459 258.976291 
L 189.525438 259.979732 
L 189.850418 257.124708 
L 190.175397 267.621598 
L 190.500377 264.327361 
L 190.825356 265.057188 
L 191.150336 263.431475 
L 191.475315 255.525222 
L 191.800295 255.673084 
L 192.450254 260.992385 
L 192.775233 258.480775 
L 193.100213 257.069152 
L 193.425192 260.989066 
L 193.750172 258.11221 
L 194.075152 257.728306 
L 194.400131 257.779243 
L 194.725111 254.461695 
L 195.05009 261.125401 
L 195.37507 263.307849 
L 195.700049 264.44958 
L 196.025029 260.862356 
L 196.350008 260.457959 
L 196.674988 258.011746 
L 196.999967 261.699488 
L 197.324947 259.831179 
L 197.649926 259.973208 
L 197.974906 256.572321 
L 198.299885 258.087023 
L 198.624865 253.33628 
L 198.949844 256.839854 
L 199.274824 252.734248 
L 199.599803 254.357762 
L 199.924783 252.52814 
L 200.249762 258.140756 
L 200.574742 254.487912 
L 200.899722 259.117197 
L 201.549681 253.274919 
L 201.87466 253.735087 
L 202.19964 256.140682 
L 202.524619 257.265269 
L 202.849599 259.58369 
L 203.174578 252.913004 
L 203.499558 254.903817 
L 203.824537 258.551348 
L 204.149517 257.350266 
L 204.474496 262.404603 
L 204.799476 261.922133 
L 205.124455 258.785365 
L 205.449435 257.21429 
L 205.774414 257.389849 
L 206.099394 260.223633 
L 206.424373 259.932538 
L 206.749353 258.057772 
L 207.399312 264.274489 
L 207.724292 259.83563 
L 208.049271 261.906206 
L 208.374251 259.625923 
L 208.69923 265.716173 
L 209.02421 265.334657 
L 209.349189 253.116411 
L 209.674169 262.803288 
L 209.999148 258.761746 
L 210.324128 261.89546 
L 210.649107 254.879442 
L 210.974087 253.191181 
L 211.299066 253.119345 
L 211.624046 253.908799 
L 211.949025 252.42926 
L 212.274005 251.472173 
L 212.923964 259.474976 
L 213.248943 256.925415 
L 213.573923 257.096539 
L 213.898903 251.354654 
L 214.223882 258.184596 
L 214.548862 253.079812 
L 214.873841 255.599635 
L 215.198821 256.140967 
L 215.5238 251.38826 
L 215.84878 256.218506 
L 216.173759 256.213514 
L 216.498739 253.774809 
L 216.823718 252.767692 
L 217.148698 250.329844 
L 217.473677 249.261318 
L 217.798657 258.601226 
L 218.123636 257.028375 
L 218.773595 255.450471 
L 219.423554 265.407851 
L 220.073514 253.424686 
L 220.398493 258.893266 
L 220.723473 257.836074 
L 221.048452 259.478277 
L 221.373432 257.156315 
L 222.023391 259.071848 
L 222.34837 253.129222 
L 222.67335 257.86557 
L 222.998329 255.333358 
L 223.323309 257.287696 
L 223.648288 253.559307 
L 224.298247 262.360294 
L 224.623227 251.766646 
L 224.948206 251.85656 
L 225.273186 254.771626 
L 225.598165 254.023068 
L 225.923145 246.666635 
L 226.248124 254.151687 
L 226.573104 254.687251 
L 226.898084 252.599848 
L 227.223063 255.539419 
L 227.548043 253.247273 
L 228.198002 255.023604 
L 228.522981 252.598111 
L 228.847961 247.805083 
L 229.17294 252.978484 
L 229.49792 250.441543 
L 229.822899 251.354686 
L 230.147879 248.509139 
L 230.472858 247.022266 
L 230.797838 254.107532 
L 231.122817 257.003204 
L 231.447797 253.453566 
L 231.772776 255.85909 
L 232.097756 257.158886 
L 232.422735 253.796931 
L 232.747715 254.010145 
L 233.397674 255.880643 
L 233.722654 253.698417 
L 234.047633 256.791377 
L 234.372613 262.385688 
L 234.697592 257.324929 
L 235.022572 259.483753 
L 235.347551 260.424163 
L 235.672531 261.709025 
L 235.99751 257.97307 
L 236.32249 252.491109 
L 236.972449 261.55766 
L 237.297428 263.382048 
L 237.622408 256.968301 
L 238.272367 258.86072 
L 238.597346 258.726312 
L 238.922326 255.769121 
L 239.247305 257.728921 
L 239.572285 261.673431 
L 239.897265 256.445575 
L 240.222244 258.947186 
L 240.547224 254.163909 
L 240.872203 258.72488 
L 241.197183 261.368994 
L 241.522162 258.650167 
L 241.847142 262.888532 
L 242.172121 258.212721 
L 242.497101 268.813013 
L 242.82208 259.331684 
L 243.14706 261.808718 
L 243.472039 263.158448 
L 243.797019 262.247087 
L 244.121998 251.048048 
L 244.446978 258.035599 
L 244.771957 259.129045 
L 245.096937 258.798688 
L 245.421916 261.514054 
L 245.746896 258.085014 
L 246.071876 262.742345 
L 246.396855 264.208672 
L 246.721835 262.305949 
L 247.046814 261.087077 
L 247.371794 257.479698 
L 247.696773 259.094941 
L 248.021753 259.025353 
L 248.346732 258.781539 
L 248.671712 259.551577 
L 248.996691 264.467599 
L 249.321671 259.248198 
L 249.64665 258.384173 
L 249.97163 263.321355 
L 250.621589 256.244856 
L 250.946568 261.327114 
L 251.271548 261.73897 
L 251.596527 261.081725 
L 251.921507 261.042024 
L 252.246486 259.053275 
L 252.571466 265.814013 
L 253.546405 252.560233 
L 253.871384 258.979083 
L 254.196364 260.202271 
L 254.521343 255.168929 
L 254.846323 254.541467 
L 255.171302 257.866636 
L 255.496282 259.93863 
L 255.821261 257.172441 
L 256.146241 259.544891 
L 256.47122 258.199222 
L 256.7962 260.874749 
L 257.121179 261.423458 
L 257.446159 256.85872 
L 257.771138 257.05659 
L 258.096118 254.071271 
L 258.421097 255.042535 
L 258.746077 254.329943 
L 259.071057 257.171172 
L 259.396036 258.853873 
L 259.721016 262.826157 
L 260.045995 263.9223 
L 260.370975 261.268745 
L 261.020934 259.676491 
L 261.345913 258.54425 
L 261.670893 264.567387 
L 261.995872 258.758219 
L 262.320852 257.664625 
L 262.645831 260.663472 
L 262.970811 259.952918 
L 263.29579 259.931949 
L 263.62077 264.275031 
L 263.945749 258.261649 
L 264.270729 258.54737 
L 264.595708 255.92977 
L 264.920688 255.699348 
L 265.245667 260.659155 
L 265.570647 260.82387 
L 265.895627 261.421127 
L 266.220606 254.209923 
L 266.545586 252.944848 
L 266.870565 258.426044 
L 267.195545 260.989458 
L 267.520524 258.155677 
L 267.845504 258.252644 
L 268.495463 262.34966 
L 268.820442 255.886524 
L 269.145422 262.887873 
L 269.470401 258.499393 
L 269.795381 261.367161 
L 270.12036 260.136593 
L 270.44534 254.94678 
L 270.770319 253.639212 
L 271.095299 254.789071 
L 271.420278 258.435078 
L 271.745258 265.915236 
L 272.070238 259.77227 
L 272.395217 265.690202 
L 272.720197 261.92583 
L 273.045176 260.68032 
L 273.370156 261.651461 
L 273.695135 261.399227 
L 274.020115 265.612283 
L 274.345094 262.236936 
L 274.670074 263.751255 
L 274.995053 262.921737 
L 275.320033 265.513142 
L 275.645012 263.710941 
L 275.969992 260.196765 
L 276.294971 267.100886 
L 276.619951 266.447865 
L 277.26991 270.691146 
L 277.594889 266.158847 
L 277.919869 264.604019 
L 278.244848 261.349039 
L 278.569828 266.810607 
L 278.894808 265.904924 
L 279.219787 266.118002 
L 279.544767 266.789606 
L 279.869746 266.011917 
L 280.194726 263.615413 
L 280.519705 267.005212 
L 280.844685 264.407963 
L 281.169664 269.261244 
L 281.494644 270.452288 
L 281.819623 270.694379 
L 282.144603 271.461393 
L 282.469582 270.942015 
L 283.119541 266.443335 
L 283.444521 265.997907 
L 283.7695 261.714951 
L 284.09448 268.198579 
L 284.419459 262.674915 
L 284.744439 266.282314 
L 285.394398 265.534593 
L 285.719378 268.492156 
L 286.044357 264.308201 
L 286.369337 267.257583 
L 286.694316 263.297848 
L 287.019296 263.850014 
L 287.344275 267.135908 
L 287.669255 262.83729 
L 287.994234 262.461299 
L 288.319214 263.809264 
L 288.644193 256.274172 
L 288.969173 263.009049 
L 289.294152 260.255906 
L 289.619132 265.202753 
L 289.944111 263.019592 
L 290.269091 265.182885 
L 290.59407 268.342734 
L 290.91905 264.947554 
L 291.244029 268.474795 
L 291.569009 267.004416 
L 291.893989 270.664548 
L 292.543948 265.989443 
L 292.868927 266.019641 
L 293.193907 271.169528 
L 293.518886 271.63665 
L 293.843866 263.697038 
L 294.168845 265.903102 
L 294.493825 262.660874 
L 294.818804 264.58532 
L 295.143784 268.948594 
L 295.468763 265.090177 
L 295.793743 266.212565 
L 296.118722 270.143064 
L 296.443702 270.38595 
L 296.768681 273.507557 
L 297.093661 268.762079 
L 297.74362 264.934717 
L 298.0686 269.867838 
L 298.718559 267.097512 
L 299.043538 269.162974 
L 299.693497 259.945269 
L 300.018477 264.313962 
L 300.343456 264.314495 
L 300.668436 265.45897 
L 300.993415 268.399821 
L 301.318395 270.214137 
L 301.643374 267.257339 
L 301.968354 274.667157 
L 302.293333 268.135833 
L 302.618313 274.791736 
L 302.943292 272.266469 
L 303.268272 267.233358 
L 303.593251 269.433624 
L 303.918231 268.804398 
L 304.56819 270.747732 
L 304.89317 268.401652 
L 305.218149 267.77465 
L 305.543129 268.533906 
L 305.868108 271.791787 
L 306.193088 267.170725 
L 306.843047 264.161094 
L 307.168026 268.823606 
L 307.493006 267.961375 
L 307.817985 268.633044 
L 308.467944 262.979402 
L 308.792924 266.489648 
L 309.117903 260.083741 
L 309.442883 258.488531 
L 309.767862 265.620763 
L 310.417821 260.394862 
L 310.742801 261.145455 
L 311.067781 265.009472 
L 311.39276 260.643644 
L 311.71774 267.830598 
L 312.042719 265.623173 
L 312.367699 267.301641 
L 312.692678 267.085228 
L 313.017658 266.008006 
L 313.342637 267.691515 
L 313.667617 266.852158 
L 313.992596 269.433354 
L 314.317576 268.67353 
L 314.642555 270.083435 
L 314.967535 269.977789 
L 315.292514 268.706012 
L 315.617494 268.95159 
L 315.942473 268.347682 
L 316.267453 268.60099 
L 316.592432 273.813414 
L 316.917412 270.410351 
L 317.242391 269.949066 
L 317.567371 274.558138 
L 317.892351 267.795467 
L 318.21733 268.908651 
L 318.54231 267.497766 
L 318.867289 268.162711 
L 319.192269 269.991018 
L 319.517248 267.433619 
L 319.842228 266.886911 
L 320.167207 272.588797 
L 320.492187 263.876425 
L 320.817166 270.321598 
L 321.467125 265.835705 
L 321.792105 267.505256 
L 322.117084 265.763623 
L 322.442064 267.942158 
L 322.767043 277.439838 
L 323.092023 262.671647 
L 324.066962 270.269783 
L 324.391941 261.060339 
L 324.716921 261.124943 
L 325.0419 260.063173 
L 325.691859 261.100386 
L 326.666798 267.000499 
L 326.991777 264.534599 
L 327.316757 263.660573 
L 327.641736 270.936994 
L 327.966716 264.730254 
L 328.291695 266.401189 
L 328.616675 261.305291 
L 328.941654 261.754152 
L 329.266634 262.470859 
L 329.591613 258.128763 
L 329.916593 269.629426 
L 330.241572 266.615968 
L 330.566552 267.78341 
L 330.891532 264.448085 
L 331.216511 263.482868 
L 331.541491 258.274258 
L 331.86647 256.807754 
L 332.19145 257.077864 
L 332.516429 257.694705 
L 332.841409 259.496048 
L 333.166388 255.181749 
L 333.491368 259.202482 
L 334.141327 256.971111 
L 334.466306 252.698377 
L 334.791286 254.330038 
L 335.116265 253.291098 
L 335.441245 255.038193 
L 335.766224 259.492793 
L 336.091204 252.427769 
L 336.416183 260.556449 
L 336.741163 255.955741 
L 337.391122 265.468048 
L 337.716102 259.980457 
L 338.366061 256.195141 
L 338.69104 257.781967 
L 339.01602 253.524089 
L 339.665979 264.226927 
L 339.990958 254.897994 
L 340.315938 256.905522 
L 340.640917 253.641008 
L 340.965897 255.065804 
L 341.290876 257.211647 
L 341.615856 254.544187 
L 341.940835 252.863736 
L 342.265815 256.789428 
L 342.590794 258.469849 
L 342.915774 251.85584 
L 343.240753 257.814862 
L 344.215692 247.616337 
L 344.540672 254.037824 
L 344.865651 263.748796 
L 345.190631 260.851964 
L 345.51561 260.533943 
L 345.84059 257.124018 
L 346.165569 263.384694 
L 346.490549 256.592926 
L 346.815528 259.98069 
L 347.140508 252.033483 
L 347.465487 257.728835 
L 347.790467 251.56842 
L 348.440426 255.642099 
L 348.765405 254.547957 
L 349.090385 254.642564 
L 349.415364 252.452042 
L 349.740344 254.849277 
L 350.065324 254.643889 
L 350.390303 260.838737 
L 350.715283 250.03559 
L 351.040262 257.563822 
L 351.365242 259.575555 
L 351.690221 252.142196 
L 352.34018 255.53661 
L 352.66516 255.059272 
L 352.990139 255.628121 
L 353.315119 254.425479 
L 353.965078 249.393267 
L 354.290057 251.827561 
L 354.615037 260.356417 
L 354.940016 258.530618 
L 355.264996 255.739135 
L 355.589975 250.967422 
L 355.914955 250.809352 
L 356.239934 252.799617 
L 356.564914 253.392918 
L 356.889894 252.428502 
L 357.214873 255.086092 
L 357.539853 253.73107 
L 357.864832 254.442209 
L 358.189812 256.151629 
L 358.514791 256.214323 
L 358.839771 253.543344 
L 359.16475 253.490053 
L 359.48973 255.042427 
L 359.814709 252.96659 
L 360.139689 260.869166 
L 360.464668 256.543026 
L 360.789648 256.491937 
L 361.114627 255.265175 
L 361.439607 253.37811 
L 361.764586 254.429628 
L 362.089566 253.802659 
L 362.414545 250.933561 
L 362.739525 250.152369 
L 363.064505 254.771557 
L 363.389484 254.534067 
L 363.714464 252.229936 
L 364.039443 245.404478 
L 364.364423 251.272702 
L 364.689402 254.167424 
L 365.014382 249.826752 
L 365.339361 253.73393 
L 365.664341 249.771047 
L 365.98932 243.42524 
L 366.3143 249.105058 
L 366.639279 257.61999 
L 367.939197 248.423302 
L 368.264177 251.668134 
L 368.589156 249.421824 
L 368.914136 244.479117 
L 369.239115 254.065961 
L 369.564095 247.18997 
L 369.889075 249.305083 
L 370.214054 248.39307 
L 370.539034 249.429423 
L 370.864013 254.500957 
L 371.188993 251.611017 
L 371.513972 251.554462 
L 371.838952 249.553498 
L 372.163931 253.248988 
L 372.81389 246.599867 
L 373.13887 246.560627 
L 373.463849 252.961354 
L 373.788829 249.949161 
L 374.113808 250.813785 
L 374.438788 249.913865 
L 374.763767 251.038137 
L 375.088747 248.71482 
L 375.413726 249.820971 
L 375.738706 248.580359 
L 376.063686 249.854378 
L 376.388665 252.014501 
L 376.713645 249.273291 
L 377.038624 248.710997 
L 377.363604 254.917393 
L 378.013563 246.404528 
L 378.338542 252.472516 
L 378.663522 249.85633 
L 378.988501 256.00947 
L 379.313481 256.38396 
L 379.63846 250.960638 
L 379.96344 256.797857 
L 380.288419 249.501221 
L 380.613399 252.703493 
L 380.938378 250.169766 
L 381.588337 252.32006 
L 381.913317 248.032537 
L 382.238296 250.863811 
L 382.563276 252.551877 
L 382.888256 251.768966 
L 383.213235 248.075661 
L 383.538215 253.989219 
L 383.863194 253.428341 
L 384.188174 254.917304 
L 384.513153 252.920147 
L 384.838133 251.887029 
L 385.163112 252.359553 
L 385.488092 244.358899 
L 385.813071 248.289313 
L 386.138051 245.314166 
L 386.46303 248.289333 
L 386.78801 249.653926 
L 387.112989 249.100219 
L 387.437969 254.606937 
L 387.762948 251.683797 
L 388.087928 253.984374 
L 388.412907 250.224078 
L 388.737887 249.864744 
L 389.387846 254.121196 
L 389.712826 253.440217 
L 390.037805 252.242882 
L 390.362785 255.390149 
L 390.687764 252.169302 
L 391.012744 254.841496 
L 391.337723 252.255816 
L 391.662703 248.329336 
L 391.987682 252.983688 
L 392.312662 260.129521 
L 392.637641 248.756049 
L 392.962621 247.416725 
L 393.61258 253.191615 
L 393.937559 247.872803 
L 394.262539 251.862475 
L 394.912498 252.696474 
L 395.237477 255.15179 
L 395.562457 253.305978 
L 395.887437 253.426738 
L 396.212416 253.355393 
L 396.537396 255.10168 
L 396.862375 252.38253 
L 397.187355 255.246152 
L 397.512334 247.968054 
L 397.837314 254.995347 
L 398.162293 250.924845 
L 398.487273 255.365031 
L 398.487273 255.365031 
" clip-path="url(#pbfdcba6d52)" style="fill: none; stroke: #0000ff; stroke-width: 1.5; stroke-linecap: square"/>
   </g>
   <g id="line2d_18">
    <path d="M 73.832727 274.99018 
L 74.157707 274.100226 
L 74.482686 271.062783 
L 74.807666 270.22602 
L 75.132645 267.202055 
L 75.457625 268.375535 
L 76.107584 269.225383 
L 76.432563 269.887591 
L 76.757543 265.830348 
L 77.082523 267.036692 
L 77.407502 264.537112 
L 77.732482 259.673205 
L 78.057461 258.356361 
L 78.382441 258.969349 
L 79.0324 254.415071 
L 79.357379 256.922926 
L 79.682359 256.430014 
L 80.007338 257.430746 
L 80.332318 254.289077 
L 80.657297 254.204464 
L 80.982277 249.393463 
L 81.632236 253.577914 
L 81.957215 254.788034 
L 82.282195 254.793149 
L 82.607174 249.483959 
L 82.932154 249.64011 
L 83.257133 249.208509 
L 83.582113 250.608631 
L 83.907093 248.935728 
L 84.232072 244.816 
L 84.557052 245.594133 
L 84.882031 235.716222 
L 85.207011 239.769467 
L 85.53199 229.708516 
L 85.85697 229.686533 
L 86.181949 227.718466 
L 86.506929 224.63677 
L 86.831908 227.809705 
L 87.156888 222.566983 
L 87.481867 231.099817 
L 87.806847 221.374943 
L 88.131826 227.423091 
L 88.456806 222.8696 
L 88.781785 228.609898 
L 89.106765 221.814734 
L 89.431744 223.241973 
L 89.756724 218.886102 
L 90.081704 211.05619 
L 90.406683 208.789495 
L 90.731663 215.883388 
L 91.056642 213.11187 
L 91.381622 219.816474 
L 92.031581 214.718857 
L 92.35656 212.805974 
L 92.68154 214.231792 
L 93.006519 220.076827 
L 93.331499 212.309839 
L 93.656478 213.227004 
L 93.981458 209.339639 
L 94.306437 209.784853 
L 94.956396 208.984515 
L 95.281376 206.238937 
L 95.606355 211.302878 
L 95.931335 211.119935 
L 96.256314 206.246477 
L 96.581294 218.511203 
L 96.906274 212.435074 
L 97.231253 213.121954 
L 97.556233 207.455707 
L 97.881212 213.206186 
L 98.206192 210.441124 
L 98.531171 214.371966 
L 98.856151 214.899444 
L 99.50611 208.808465 
L 99.831089 215.536193 
L 100.156069 214.927865 
L 100.806028 212.747357 
L 101.131007 213.283648 
L 101.455987 208.892822 
L 101.780966 211.962471 
L 102.105946 209.983091 
L 102.430925 211.109859 
L 102.755905 210.349567 
L 103.080885 211.792376 
L 103.405864 214.299848 
L 104.055823 207.251363 
L 104.380803 209.703922 
L 104.705782 214.112289 
L 105.030762 209.342515 
L 105.355741 211.941336 
L 105.680721 212.271835 
L 106.0057 210.344855 
L 106.33068 211.455605 
L 106.655659 213.564606 
L 106.980639 213.648203 
L 107.305618 211.533651 
L 107.630598 210.294643 
L 107.955577 212.005859 
L 108.280557 210.522619 
L 108.605536 211.488436 
L 108.930516 214.618548 
L 109.255495 212.098985 
L 109.580475 206.332297 
L 109.905455 211.270057 
L 110.230434 212.84518 
L 110.555414 213.246683 
L 110.880393 209.097665 
L 111.205373 209.569845 
L 111.530352 209.51301 
L 111.855332 206.716495 
L 112.180311 207.45418 
L 112.505291 213.013144 
L 112.83027 204.870343 
L 113.15525 204.950688 
L 113.480229 215.486126 
L 113.805209 208.412536 
L 114.130188 208.416438 
L 114.455168 218.56424 
L 114.780147 210.002499 
L 115.105127 208.78277 
L 115.430106 203.654282 
L 115.755086 214.582534 
L 116.080066 212.085928 
L 116.405045 213.15161 
L 116.730025 215.965829 
L 117.055004 214.212242 
L 117.379984 208.775871 
L 118.029943 213.610844 
L 118.354922 209.300362 
L 118.679902 208.916389 
L 119.004881 207.264001 
L 119.329861 207.48801 
L 119.65484 208.329843 
L 119.97982 210.138891 
L 120.304799 213.275662 
L 120.629779 207.033545 
L 120.954758 216.036323 
L 121.279738 217.28571 
L 121.604717 212.456812 
L 121.929697 218.380361 
L 122.579656 203.713049 
L 122.904636 210.482846 
L 123.229615 210.27775 
L 123.554595 211.576335 
L 123.879574 211.765375 
L 124.204554 205.888143 
L 124.529533 208.425826 
L 124.854513 204.308052 
L 125.179492 219.321846 
L 125.504472 213.316825 
L 125.829451 212.177134 
L 126.154431 214.513292 
L 126.47941 209.45667 
L 126.80439 213.026441 
L 127.129369 219.812548 
L 127.454349 205.41623 
L 127.779328 210.075236 
L 128.104308 210.471228 
L 128.754267 206.464892 
L 129.079247 209.826125 
L 129.404226 217.012279 
L 129.729206 206.539094 
L 130.054185 205.169591 
L 130.379165 213.824131 
L 130.704144 205.83533 
L 131.029124 202.613502 
L 131.354103 206.522141 
L 131.679083 203.939618 
L 132.004062 202.576218 
L 132.329042 209.469515 
L 132.654021 201.860557 
L 132.979001 202.081549 
L 133.30398 205.495247 
L 133.62896 210.201747 
L 133.953939 209.815166 
L 134.278919 208.372346 
L 134.603898 216.125614 
L 134.928878 205.56562 
L 135.253857 204.746269 
L 135.578837 211.433811 
L 135.903817 204.413952 
L 136.228796 204.875633 
L 136.553776 206.623695 
L 136.878755 209.000766 
L 137.203735 207.404879 
L 137.528714 209.235408 
L 137.853694 201.566416 
L 138.178673 211.860687 
L 138.503653 209.862065 
L 138.828632 212.267461 
L 139.153612 205.347046 
L 139.478591 210.84968 
L 139.803571 207.799331 
L 140.12855 208.511115 
L 140.45353 204.157896 
L 141.103489 214.222867 
L 141.753448 212.678249 
L 142.078428 210.370002 
L 142.403407 211.219949 
L 142.728387 203.961165 
L 143.053366 209.530368 
L 143.378346 210.315456 
L 143.703325 208.285538 
L 144.028305 204.344591 
L 144.353284 205.836503 
L 144.678264 208.710313 
L 145.328223 203.455824 
L 145.653202 204.397654 
L 145.978182 203.475028 
L 146.303161 205.241784 
L 146.628141 208.345439 
L 146.95312 202.569729 
L 147.603079 207.476089 
L 147.928059 213.358774 
L 148.253038 213.064259 
L 148.578018 208.391717 
L 148.902998 208.15718 
L 149.227977 207.692982 
L 149.552957 208.072376 
L 149.877936 201.177985 
L 150.527895 212.269893 
L 150.852875 203.22591 
L 151.177854 201.160915 
L 151.502834 204.42679 
L 151.827813 200.297049 
L 152.152793 205.212113 
L 152.477772 196.98225 
L 152.802752 202.145195 
L 153.127731 199.668103 
L 153.452711 207.226453 
L 153.77769 207.710332 
L 154.10267 202.306009 
L 154.427649 203.531647 
L 154.752629 196.737779 
L 155.077609 198.509236 
L 155.402588 197.276035 
L 155.727568 203.773391 
L 156.052547 208.00086 
L 156.377527 206.898829 
L 156.702506 198.367659 
L 157.027486 207.797788 
L 157.352465 205.188502 
L 157.677445 204.133042 
L 158.002424 201.143798 
L 158.327404 206.037743 
L 158.652383 205.296311 
L 158.977363 212.29159 
L 159.302342 208.787129 
L 159.627322 212.603232 
L 159.952301 210.977217 
L 160.277281 207.041345 
L 160.60226 211.474799 
L 160.92724 213.197504 
L 161.252219 205.132054 
L 161.577199 208.687776 
L 161.902179 208.594176 
L 162.227158 212.810438 
L 162.552138 213.496317 
L 162.877117 213.766147 
L 163.202097 210.912528 
L 163.527076 211.734028 
L 163.852056 214.686585 
L 164.177035 210.865288 
L 164.502015 211.836349 
L 164.826994 205.018602 
L 165.151974 212.73323 
L 165.476953 210.224739 
L 165.801933 210.196064 
L 166.126912 212.506752 
L 166.451892 209.852579 
L 166.776871 215.32013 
L 167.101851 209.3442 
L 167.42683 207.449289 
L 167.75181 209.989726 
L 168.07679 206.357164 
L 168.401769 207.42325 
L 168.726749 211.910094 
L 169.051728 207.148363 
L 169.376708 198.810629 
L 169.701687 206.181394 
L 170.026667 207.130482 
L 170.351646 213.4584 
L 170.676626 206.272969 
L 171.001605 216.462195 
L 171.326585 214.392754 
L 171.651564 217.630383 
L 171.976544 212.611236 
L 172.301523 213.764345 
L 172.626503 211.606509 
L 172.951482 213.664511 
L 173.276462 212.882961 
L 173.601441 216.671682 
L 173.926421 217.459646 
L 174.57638 202.876365 
L 174.90136 212.715143 
L 175.226339 204.455634 
L 175.551319 210.508084 
L 175.876298 208.775273 
L 176.526257 215.359797 
L 176.851237 207.20908 
L 177.501196 207.831145 
L 177.826175 210.582097 
L 178.151155 211.505284 
L 178.476134 208.883902 
L 178.801114 205.077516 
L 179.126093 207.758727 
L 179.451073 209.100283 
L 179.776052 202.791541 
L 180.426011 205.035789 
L 180.750991 204.493686 
L 181.075971 209.432593 
L 181.40095 204.796399 
L 181.72593 206.310822 
L 182.050909 209.117567 
L 182.375889 209.228178 
L 182.700868 205.00457 
L 183.025848 208.030093 
L 183.675807 217.981627 
L 184.000786 214.265609 
L 184.325766 208.98518 
L 184.650745 212.301976 
L 184.975725 213.092159 
L 185.300704 211.28255 
L 185.625684 217.081144 
L 185.950663 216.346463 
L 186.275643 212.067798 
L 186.600622 204.169999 
L 186.925602 210.660162 
L 187.250581 210.437892 
L 187.575561 210.800217 
L 187.900541 216.104035 
L 188.5505 219.671172 
L 188.875479 208.337133 
L 189.200459 213.207951 
L 189.850418 210.706853 
L 190.175397 223.109343 
L 190.500377 216.509886 
L 190.825356 220.83134 
L 191.150336 215.505731 
L 191.475315 205.859845 
L 192.125274 210.873728 
L 192.450254 214.945631 
L 193.100213 207.167956 
L 193.425192 217.017141 
L 193.750172 212.987927 
L 194.075152 213.560733 
L 194.400131 211.71107 
L 194.725111 206.814692 
L 195.05009 216.021377 
L 195.37507 216.956713 
L 195.700049 217.268535 
L 196.025029 213.969177 
L 196.350008 212.915188 
L 196.674988 208.233043 
L 196.999967 214.579225 
L 197.324947 210.25653 
L 197.649926 212.011002 
L 197.974906 206.602101 
L 198.299885 211.053499 
L 198.624865 205.831316 
L 198.949844 207.399785 
L 199.274824 204.927369 
L 199.599803 204.605904 
L 199.924783 205.145556 
L 200.249762 206.61775 
L 200.574742 204.548852 
L 200.899722 212.450314 
L 201.224701 206.956078 
L 201.549681 204.170516 
L 201.87466 205.153734 
L 202.524619 209.275308 
L 202.849599 211.456944 
L 203.174578 204.717489 
L 203.499558 202.734945 
L 203.824537 213.379401 
L 204.149517 207.122343 
L 204.474496 214.902874 
L 204.799476 215.504065 
L 205.124455 209.009016 
L 205.449435 208.396592 
L 205.774414 205.953683 
L 206.099394 209.947662 
L 206.424373 209.475382 
L 206.749353 210.643841 
L 207.399312 215.144207 
L 207.724292 212.238686 
L 208.049271 211.166649 
L 208.374251 211.20868 
L 208.69923 217.392458 
L 209.02421 217.246554 
L 209.349189 204.140444 
L 209.674169 215.980647 
L 209.999148 211.315015 
L 210.324128 214.088789 
L 210.649107 205.527728 
L 210.974087 202.699727 
L 211.299066 203.390377 
L 211.624046 203.173722 
L 211.949025 204.285008 
L 212.274005 204.082525 
L 212.923964 210.937061 
L 213.248943 209.574868 
L 213.573923 211.5482 
L 213.898903 205.404782 
L 214.223882 210.068052 
L 214.548862 204.434755 
L 214.873841 207.965022 
L 215.198821 208.946457 
L 215.5238 205.027224 
L 215.84878 211.235927 
L 216.173759 210.561244 
L 216.498739 206.87291 
L 216.823718 206.497047 
L 217.148698 196.498541 
L 217.473677 202.563516 
L 217.798657 212.050891 
L 218.123636 211.326753 
L 218.448616 209.622591 
L 218.773595 206.170681 
L 219.423554 220.019775 
L 219.748534 213.964339 
L 220.073514 203.917277 
L 220.398493 214.005996 
L 220.723473 211.054301 
L 221.048452 215.105598 
L 221.373432 209.210741 
L 221.698411 212.354552 
L 222.023391 213.203704 
L 222.34837 206.048886 
L 222.67335 208.241563 
L 222.998329 206.480454 
L 223.323309 207.544233 
L 223.648288 202.770374 
L 224.298247 216.082714 
L 224.623227 201.63021 
L 224.948206 204.514523 
L 225.273186 210.46203 
L 225.598165 210.165439 
L 225.923145 200.09846 
L 226.248124 208.792923 
L 226.898084 203.532791 
L 227.223063 208.215569 
L 227.548043 205.850436 
L 228.198002 209.624344 
L 228.522981 207.075149 
L 228.847961 199.485476 
L 229.17294 205.699385 
L 229.49792 204.129385 
L 229.822899 206.044492 
L 230.147879 199.431867 
L 230.472858 197.492216 
L 230.797838 205.891167 
L 231.122817 211.235962 
L 231.447797 203.648969 
L 231.772776 206.00713 
L 232.097756 209.272741 
L 232.422735 208.581364 
L 232.747715 208.158305 
L 233.072695 209.269048 
L 233.397674 209.330557 
L 233.722654 206.889709 
L 234.047633 208.144628 
L 234.372613 215.756172 
L 234.697592 211.23922 
L 235.022572 212.159855 
L 235.347551 214.796508 
L 235.672531 215.699384 
L 235.99751 212.375681 
L 236.32249 206.157014 
L 236.647469 209.910591 
L 236.972449 216.667431 
L 237.297428 217.16623 
L 237.622408 211.18525 
L 237.947387 209.294345 
L 238.272367 213.206914 
L 238.922326 209.120479 
L 239.572285 215.697896 
L 239.897265 208.056135 
L 240.222244 212.917247 
L 240.547224 207.592639 
L 240.872203 212.547159 
L 241.197183 214.384178 
L 241.522162 212.130231 
L 241.847142 215.198402 
L 242.172121 210.906606 
L 242.497101 225.426968 
L 242.82208 210.899577 
L 243.14706 210.409272 
L 243.472039 214.803075 
L 243.797019 214.329235 
L 244.121998 201.838779 
L 244.446978 210.592411 
L 244.771957 209.257175 
L 245.096937 208.879721 
L 245.421916 213.320825 
L 245.746896 208.368796 
L 246.396855 219.172552 
L 246.721835 212.586942 
L 247.046814 211.471487 
L 247.371794 209.631401 
L 247.696773 208.952262 
L 248.021753 210.471057 
L 248.346732 210.527726 
L 248.671712 213.285485 
L 248.996691 217.596835 
L 249.321671 212.192596 
L 249.97163 215.220633 
L 250.621589 205.54094 
L 250.946568 213.007284 
L 251.596527 209.136449 
L 251.921507 215.036517 
L 252.246486 208.559174 
L 252.571466 217.373257 
L 253.546405 203.145209 
L 253.871384 209.853759 
L 254.196364 212.994546 
L 254.521343 206.199145 
L 254.846323 206.102922 
L 255.171302 213.909786 
L 255.821261 208.483138 
L 256.146241 212.752891 
L 256.47122 210.271632 
L 256.7962 215.444478 
L 257.121179 215.087234 
L 257.446159 209.554873 
L 257.771138 209.581423 
L 258.096118 206.33961 
L 258.746077 203.106965 
L 259.071057 208.101461 
L 260.045995 218.33518 
L 260.370975 214.016946 
L 260.695954 211.801501 
L 261.020934 211.46169 
L 261.345913 211.34732 
L 261.670893 217.677355 
L 261.995872 207.765738 
L 262.320852 209.601161 
L 262.645831 214.445583 
L 262.970811 211.721962 
L 263.29579 211.375277 
L 263.62077 215.682437 
L 263.945749 208.113854 
L 264.270729 210.622451 
L 264.595708 205.97018 
L 264.920688 208.404723 
L 265.245667 213.764552 
L 265.570647 209.828775 
L 265.895627 212.891129 
L 266.220606 205.86117 
L 266.545586 202.538021 
L 266.870565 210.913789 
L 267.520524 209.164415 
L 267.845504 209.902212 
L 268.495463 215.327759 
L 268.820442 205.811174 
L 269.145422 216.180237 
L 269.470401 211.210898 
L 269.795381 214.063418 
L 270.44534 203.271815 
L 270.770319 203.899361 
L 271.095299 205.54126 
L 271.420278 209.979053 
L 271.745258 217.997027 
L 272.070238 209.634642 
L 272.395217 216.746852 
L 273.045176 210.97803 
L 273.370156 213.283308 
L 273.695135 211.845315 
L 274.020115 218.532988 
L 274.345094 217.157262 
L 274.670074 219.156751 
L 274.995053 214.859662 
L 275.320033 218.179933 
L 275.645012 214.711557 
L 275.969992 208.889292 
L 276.294971 220.091013 
L 276.619951 219.574651 
L 276.94493 223.481906 
L 277.26991 223.156941 
L 277.594889 217.879146 
L 277.919869 219.509606 
L 278.244848 211.493386 
L 278.569828 218.196956 
L 278.894808 216.156555 
L 279.219787 221.422576 
L 279.544767 219.263853 
L 279.869746 219.658765 
L 280.194726 216.08017 
L 280.519705 220.314207 
L 280.844685 215.552166 
L 281.169664 222.082071 
L 281.494644 222.183151 
L 281.819623 227.14617 
L 282.144603 222.379427 
L 282.469582 223.441372 
L 283.119541 218.902893 
L 283.444521 217.98139 
L 283.7695 210.54428 
L 284.09448 221.090776 
L 284.419459 215.276457 
L 284.744439 220.638238 
L 285.069419 218.342322 
L 285.394398 219.797908 
L 285.719378 219.694627 
L 286.044357 217.627095 
L 286.369337 219.005513 
L 286.694316 217.244517 
L 287.019296 214.035321 
L 287.344275 221.314658 
L 287.669255 214.109628 
L 287.994234 213.860573 
L 288.319214 214.704191 
L 288.644193 206.259869 
L 288.969173 215.125768 
L 289.294152 213.032589 
L 289.619132 219.25631 
L 289.944111 213.615974 
L 290.269091 220.1924 
L 290.59407 223.390729 
L 290.91905 214.471077 
L 291.244029 222.661107 
L 291.569009 220.785887 
L 291.893989 224.970943 
L 292.543948 217.717711 
L 292.868927 219.278359 
L 293.193907 227.503239 
L 293.518886 227.337301 
L 293.843866 214.068987 
L 294.168845 217.326256 
L 294.493825 216.729287 
L 294.818804 216.823451 
L 295.143784 221.82966 
L 295.468763 219.434507 
L 295.793743 219.238363 
L 296.118722 222.546202 
L 296.443702 224.620236 
L 296.768681 225.771989 
L 297.093661 220.48925 
L 297.41864 218.894705 
L 297.74362 218.359048 
L 298.0686 225.314755 
L 298.393579 223.137156 
L 298.718559 220.076099 
L 299.043538 221.033097 
L 299.368518 214.328012 
L 299.693497 213.917641 
L 300.018477 215.961481 
L 300.668436 218.075328 
L 300.993415 221.394496 
L 301.318395 222.553577 
L 301.643374 218.943212 
L 301.968354 227.409663 
L 302.293333 219.294215 
L 302.618313 229.608875 
L 302.943292 225.248411 
L 303.268272 215.920589 
L 303.593251 219.791182 
L 303.918231 219.410895 
L 304.24321 222.581235 
L 304.56819 221.944798 
L 305.218149 219.991695 
L 305.543129 221.654615 
L 305.868108 227.147238 
L 306.193088 220.560934 
L 306.843047 213.68928 
L 307.168026 222.633125 
L 307.493006 220.475059 
L 307.817985 220.418754 
L 308.467944 214.074326 
L 308.792924 215.95176 
L 309.117903 213.100827 
L 309.442883 207.904563 
L 309.767862 213.652929 
L 310.092842 212.788487 
L 310.417821 209.96441 
L 310.742801 213.154207 
L 311.067781 213.950205 
L 311.39276 212.118428 
L 311.71774 219.702055 
L 312.042719 214.900256 
L 312.367699 220.194727 
L 312.692678 219.578901 
L 313.017658 217.971571 
L 313.667617 219.666815 
L 313.992596 222.616939 
L 314.317576 221.311584 
L 314.642555 224.991648 
L 315.942473 215.413944 
L 316.267453 222.067266 
L 316.592432 223.986128 
L 316.917412 222.816837 
L 317.242391 222.181994 
L 317.567371 227.823032 
L 317.892351 220.035746 
L 318.21733 222.188248 
L 318.54231 218.715501 
L 318.867289 223.911844 
L 319.192269 223.511702 
L 319.842228 218.394834 
L 320.167207 226.116979 
L 320.492187 213.251232 
L 320.817166 222.63678 
L 321.467125 218.418835 
L 321.792105 220.653287 
L 322.117084 217.198667 
L 322.442064 220.798647 
L 322.767043 235.331231 
L 323.092023 210.304526 
L 323.417002 216.75656 
L 323.741982 220.401937 
L 324.066962 221.287852 
L 324.391941 212.537007 
L 324.716921 211.619461 
L 325.0419 212.381663 
L 325.36688 211.743015 
L 325.691859 211.483452 
L 326.666798 219.524106 
L 326.991777 215.688036 
L 327.316757 215.768951 
L 327.641736 224.543233 
L 327.966716 212.652896 
L 328.291695 217.960332 
L 328.616675 212.800348 
L 328.941654 213.009863 
L 329.266634 213.954394 
L 329.591613 208.988771 
L 329.916593 222.449955 
L 330.241572 219.889391 
L 330.566552 221.007902 
L 330.891532 216.733394 
L 331.216511 215.426108 
L 331.541491 209.9823 
L 331.86647 208.952534 
L 332.19145 208.727895 
L 332.516429 207.611696 
L 332.841409 209.674618 
L 333.166388 206.360133 
L 333.491368 210.042657 
L 333.816347 209.317955 
L 334.141327 207.968377 
L 334.466306 204.349473 
L 334.791286 205.366668 
L 335.116265 204.88717 
L 335.441245 207.469858 
L 335.766224 211.52133 
L 336.091204 202.515873 
L 336.416183 211.467603 
L 336.741163 207.853397 
L 337.391122 218.772791 
L 338.041081 209.820546 
L 338.366061 207.386664 
L 338.69104 208.094142 
L 339.01602 206.83247 
L 339.340999 211.347016 
L 339.665979 219.066866 
L 339.990958 207.308006 
L 340.315938 211.847018 
L 340.640917 208.243873 
L 340.965897 209.707197 
L 341.290876 209.555413 
L 341.940835 203.630322 
L 342.265815 209.044262 
L 342.590794 209.027206 
L 342.915774 201.109141 
L 343.240753 212.113886 
L 343.565733 204.244302 
L 343.890713 201.228089 
L 344.215692 200.815362 
L 344.540672 204.584407 
L 344.865651 213.905441 
L 345.51561 213.003073 
L 345.84059 210.435318 
L 346.165569 216.13451 
L 346.490549 208.501511 
L 346.815528 211.442223 
L 347.140508 204.700583 
L 347.465487 210.122094 
L 347.790467 204.347081 
L 348.115446 201.466844 
L 348.440426 208.073429 
L 348.765405 205.51585 
L 349.090385 206.783041 
L 349.415364 203.295364 
L 349.740344 210.212631 
L 350.065324 205.311501 
L 350.390303 214.285008 
L 350.715283 202.422055 
L 351.365242 212.496023 
L 351.690221 204.493694 
L 352.015201 206.415967 
L 352.34018 209.531161 
L 352.66516 206.77278 
L 352.990139 209.672205 
L 353.315119 204.947705 
L 353.640098 204.71008 
L 353.965078 203.420682 
L 354.290057 203.838952 
L 354.615037 211.85776 
L 354.940016 206.704644 
L 355.264996 207.792327 
L 355.589975 203.067982 
L 355.914955 202.254901 
L 356.239934 206.268665 
L 356.564914 205.70637 
L 356.889894 204.238388 
L 357.214873 206.31396 
L 357.539853 205.481957 
L 358.189812 208.944251 
L 358.514791 209.239653 
L 358.839771 206.429518 
L 359.16475 207.621728 
L 359.48973 205.183904 
L 359.814709 201.86984 
L 360.139689 213.805897 
L 360.464668 206.659932 
L 360.789648 208.389239 
L 361.114627 204.707516 
L 361.439607 205.016567 
L 361.764586 204.937979 
L 362.089566 203.738804 
L 362.414545 204.836795 
L 362.739525 203.001587 
L 363.389484 207.791152 
L 363.714464 205.012684 
L 364.039443 197.866623 
L 364.689402 207.555981 
L 365.014382 199.071391 
L 365.339361 206.983637 
L 365.664341 204.008642 
L 365.98932 194.258108 
L 366.3143 199.449402 
L 366.639279 211.764632 
L 367.289238 204.247592 
L 367.614218 202.021351 
L 367.939197 201.140601 
L 368.264177 206.184491 
L 368.589156 201.846098 
L 368.914136 195.555392 
L 369.239115 203.650424 
L 369.564095 199.136239 
L 369.889075 201.681271 
L 370.214054 197.294583 
L 370.539034 204.571579 
L 370.864013 207.886017 
L 371.188993 203.638636 
L 371.513972 201.053413 
L 371.838952 202.437304 
L 372.163931 204.860246 
L 372.488911 204.086295 
L 373.13887 195.433099 
L 373.463849 204.880409 
L 373.788829 201.478275 
L 374.113808 201.600038 
L 374.438788 201.164428 
L 374.763767 201.955677 
L 375.088747 199.324343 
L 375.413726 202.575082 
L 375.738706 202.518555 
L 376.063686 199.476898 
L 376.388665 206.011018 
L 376.713645 200.798945 
L 377.038624 199.697731 
L 377.363604 206.665558 
L 377.688583 205.244816 
L 378.013563 197.995171 
L 378.338542 203.007841 
L 378.663522 202.235919 
L 378.988501 210.864246 
L 379.63846 202.929221 
L 379.96344 210.868998 
L 380.288419 201.794206 
L 380.613399 207.019597 
L 380.938378 201.714214 
L 381.263358 203.263248 
L 381.588337 203.367515 
L 381.913317 200.467928 
L 382.238296 200.705364 
L 382.563276 207.382323 
L 383.213235 197.889787 
L 383.538215 208.393797 
L 383.863194 208.289072 
L 384.188174 209.286556 
L 384.838133 203.875744 
L 385.163112 207.026106 
L 385.488092 195.612603 
L 385.813071 203.544559 
L 386.138051 196.316266 
L 386.46303 200.714063 
L 386.78801 203.360201 
L 387.112989 200.240113 
L 387.437969 208.744574 
L 387.762948 204.461291 
L 388.087928 205.622864 
L 388.412907 202.289012 
L 388.737887 203.540765 
L 389.062867 205.370069 
L 389.387846 208.114115 
L 389.712826 207.787927 
L 390.037805 206.584801 
L 390.362785 206.704444 
L 390.687764 204.957174 
L 391.012744 207.380208 
L 391.662703 197.917969 
L 392.312662 213.280963 
L 392.637641 200.491836 
L 392.962621 199.916857 
L 393.2876 203.597987 
L 393.61258 201.413815 
L 393.937559 201.807255 
L 394.262539 204.481273 
L 394.587518 203.866459 
L 394.912498 204.625409 
L 395.237477 208.111357 
L 395.562457 202.53829 
L 395.887437 205.033612 
L 396.212416 204.386065 
L 396.537396 205.631669 
L 396.862375 204.476745 
L 397.187355 206.13768 
L 397.512334 200.151471 
L 397.837314 207.352398 
L 398.162293 202.957914 
L 398.487273 208.345748 
L 398.487273 208.345748 
" clip-path="url(#pbfdcba6d52)" style="fill: none; stroke-dasharray: 9.6,2.4,1.5,2.4; stroke-dashoffset: 0; stroke: #008000; stroke-width: 1.5"/>
   </g>
   <g id="line2d_19">
    <path d="M 73.832727 217.332704 
L 74.157707 219.556227 
L 74.482686 211.514898 
L 74.807666 193.426745 
L 75.132645 169.140574 
L 75.457625 210.010961 
L 75.782604 217.56418 
L 76.107584 201.38448 
L 76.432563 197.873942 
L 76.757543 195.94094 
L 77.082523 213.265139 
L 77.407502 187.433303 
L 77.732482 195.39622 
L 78.057461 189.274164 
L 78.382441 156.498687 
L 78.70742 188.265377 
L 79.0324 158.756082 
L 79.357379 186.281215 
L 79.682359 156.851363 
L 80.007338 162.943114 
L 80.332318 182.518271 
L 80.657297 188.181822 
L 80.982277 173.287554 
L 81.307256 190.208959 
L 81.632236 192.72116 
L 81.957215 183.622734 
L 82.282195 180.502523 
L 82.607174 173.287554 
L 82.932154 160.334014 
L 83.257133 161.566982 
L 83.582113 182.205192 
L 83.907093 161.691216 
L 84.232072 164.983219 
L 84.557052 178.007628 
L 84.882031 133.132516 
L 85.207011 149.34166 
L 85.53199 127.312526 
L 85.85697 93.101892 
L 86.181949 128.592715 
L 86.506929 125.508878 
L 86.831908 137.296612 
L 87.156888 133.904401 
L 87.481867 142.915196 
L 87.806847 122.246808 
L 88.456806 146.463434 
L 88.781785 134.913274 
L 89.106765 142.21208 
L 89.431744 126.974206 
L 89.756724 138.488458 
L 90.081704 111.860168 
L 90.406683 102.874489 
L 90.731663 121.409816 
L 91.056642 123.051271 
L 91.381622 122.407125 
L 91.706601 130.855933 
L 92.031581 120.856129 
L 92.35656 139.017929 
L 92.68154 98.682718 
L 93.006519 145.213281 
L 93.331499 105.526793 
L 93.656478 126.847664 
L 93.981458 106.093548 
L 94.306437 141.316098 
L 94.631417 84.658131 
L 94.956396 127.397306 
L 95.281376 96.072945 
L 95.606355 139.550545 
L 95.931335 140.625359 
L 96.256314 123.781509 
L 96.581294 145.83618 
L 97.231253 81.044989 
L 97.556233 101.688554 
L 97.881212 135.236673 
L 98.206192 140.13521 
L 98.856151 120.07103 
L 99.18113 129.066733 
L 99.50611 113.916454 
L 99.831089 132.951857 
L 100.156069 118.828992 
L 100.481048 126.469106 
L 100.806028 123.010877 
L 101.131007 93.391705 
L 101.455987 128.764795 
L 101.780966 107.204049 
L 102.105946 118.521151 
L 102.430925 124.435638 
L 102.755905 110.479914 
L 103.080885 110.515041 
L 103.405864 117.75614 
L 103.730844 133.177737 
L 104.380803 122.487391 
L 104.705782 134.08699 
L 105.030762 102.199468 
L 105.355741 130.109734 
L 105.680721 124.599918 
L 106.0057 130.988262 
L 106.33068 104.239964 
L 106.655659 141.962297 
L 106.980639 138.200967 
L 107.305618 129.891439 
L 107.955577 104.27273 
L 108.605536 137.914395 
L 108.930516 118.751932 
L 109.255495 125.01194 
L 109.580475 100.990766 
L 110.230434 143.370127 
L 110.555414 96.072945 
L 110.880393 109.780246 
L 111.205373 115.462358 
L 111.530352 125.17728 
L 111.855332 76.579565 
L 112.180311 97.946738 
L 112.505291 145.83618 
L 112.83027 129.80427 
L 113.15525 75.503045 
L 113.480229 138.344597 
L 113.805209 87.439657 
L 114.130188 120.935018 
L 114.455168 131.386424 
L 114.780147 133.585761 
L 115.105127 115.610986 
L 115.430106 120.227501 
L 115.755086 129.760718 
L 116.080066 123.985412 
L 116.405045 122.72862 
L 116.730025 130.066032 
L 117.055004 143.573061 
L 117.379984 135.98028 
L 117.704963 120.423474 
L 118.029943 133.585761 
L 118.354922 129.54327 
L 118.679902 116.282877 
L 119.004881 128.807867 
L 119.329861 104.141738 
L 119.65484 129.935056 
L 119.97982 143.420818 
L 120.304799 109.155177 
L 120.629779 135.933623 
L 120.954758 150.926358 
L 121.279738 111.82451 
L 121.604717 129.847844 
L 121.929697 135.421998 
L 122.254676 126.008584 
L 122.579656 120.031955 
L 122.904636 120.856129 
L 123.229615 111.008271 
L 123.554595 129.326349 
L 123.879574 127.185507 
L 124.204554 118.521151 
L 124.529533 113.153379 
L 124.854513 118.290961 
L 125.179492 131.964686 
L 125.504472 140.330948 
L 125.829451 109.780246 
L 126.154431 105.959872 
L 126.47941 106.093548 
L 126.80439 127.354906 
L 127.129369 130.679797 
L 127.779328 94.17891 
L 128.104308 94.707577 
L 128.429287 109.606178 
L 128.754267 132.771562 
L 129.079247 140.723711 
L 129.404226 140.233025 
L 129.729206 140.822171 
L 130.054185 86.898006 
L 130.379165 127.524626 
L 130.704144 102.648917 
L 131.029124 87.195509 
L 131.354103 136.401283 
L 131.679083 105.161968 
L 132.004062 87.521187 
L 132.329042 120.777309 
L 132.654021 114.465509 
L 132.979001 103.392222 
L 133.30398 126.30137 
L 133.62896 114.538971 
L 133.953939 133.540333 
L 134.278919 80.842855 
L 134.603898 141.962297 
L 134.928878 127.100927 
L 135.253857 103.945608 
L 135.578837 133.813245 
L 135.903817 111.89584 
L 136.228796 120.188358 
L 136.553776 82.678674 
L 136.878755 133.676686 
L 137.203735 119.370268 
L 137.528714 125.260065 
L 137.853694 116.245417 
L 138.503653 130.1972 
L 138.828632 127.270166 
L 139.153612 92.066251 
L 139.478591 121.132545 
L 140.12855 92.668921 
L 140.45353 125.883396 
L 140.778509 120.188358 
L 141.103489 133.313539 
L 141.428468 106.227424 
L 141.753448 121.767571 
L 142.078428 131.386424 
L 142.403407 107.917957 
L 142.728387 123.375088 
L 143.053366 122.527551 
L 143.378346 104.864575 
L 143.703325 96.102859 
L 144.028305 98.86766 
L 144.353284 111.39772 
L 144.678264 101.0856 
L 145.003243 120.698559 
L 145.328223 100.580974 
L 145.653202 122.166758 
L 145.978182 108.225666 
L 146.303161 113.153379 
L 146.628141 107.645322 
L 146.95312 86.898006 
L 147.2781 123.903795 
L 147.928059 143.827377 
L 148.902998 111.149693 
L 149.227977 104.996628 
L 149.552957 133.042141 
L 149.877936 91.923353 
L 150.202916 121.927033 
L 150.527895 113.081043 
L 150.852875 84.185349 
L 151.177854 107.034905 
L 151.502834 103.003642 
L 151.827813 101.180534 
L 152.152793 114.538971 
L 152.477772 85.26589 
L 152.802752 127.567106 
L 153.127731 107.952095 
L 153.452711 132.053982 
L 153.77769 85.904495 
L 154.10267 89.918394 
L 154.427649 111.610861 
L 154.752629 111.39772 
L 155.077609 89.500485 
L 155.402588 105.893108 
L 155.727568 107.713403 
L 156.052547 128.764795 
L 156.702506 108.054586 
L 157.027486 129.413054 
L 157.352465 99.891716 
L 157.677445 119.875824 
L 158.327404 99.860512 
L 158.652383 95.863827 
L 158.977363 130.109734 
L 159.302342 105.029672 
L 159.627322 139.74501 
L 160.277281 98.682718 
L 160.60226 112.504443 
L 160.92724 133.494929 
L 161.252219 120.149231 
L 161.577199 129.586717 
L 161.902179 131.608392 
L 162.552138 106.327963 
L 162.877117 123.091685 
L 163.202097 97.946738 
L 163.527076 128.764795 
L 163.852056 124.55882 
L 164.177035 95.804168 
L 164.502015 135.005555 
L 164.826994 95.209752 
L 165.151974 115.946302 
L 165.476953 114.833422 
L 165.801933 116.959839 
L 166.126912 129.586717 
L 166.451892 113.370739 
L 166.776871 136.495109 
L 167.101851 119.292743 
L 167.42683 121.72775 
L 167.75181 98.805971 
L 168.07679 122.607924 
L 168.401769 94.884495 
L 168.726749 120.031955 
L 169.051728 136.401283 
L 169.376708 98.344644 
L 169.701687 119.992897 
L 170.026667 128.335211 
L 170.351646 129.935056 
L 170.676626 86.171929 
L 171.001605 140.723711 
L 171.651564 120.110122 
L 171.976544 122.246808 
L 172.301523 110.339543 
L 172.626503 128.378077 
L 173.276462 109.120579 
L 173.601441 123.700077 
L 173.926421 130.460113 
L 174.2514 114.318765 
L 174.57638 116.207973 
L 174.90136 135.700704 
L 175.226339 120.935018 
L 175.551319 132.367217 
L 175.876298 114.392107 
L 176.201278 120.384245 
L 176.526257 129.717186 
L 176.851237 74.345343 
L 177.176216 123.375088 
L 177.501196 132.771562 
L 177.826175 93.391705 
L 178.151155 126.050352 
L 178.476134 116.095735 
L 178.801114 84.368913 
L 179.126093 96.793649 
L 179.451073 86.736147 
L 180.101032 113.952953 
L 180.426011 103.230109 
L 180.750991 107.679356 
L 181.075971 139.066218 
L 181.72593 92.52506 
L 182.375889 124.35361 
L 182.700868 122.68837 
L 183.025848 114.208865 
L 183.350827 123.091685 
L 183.675807 123.091685 
L 184.000786 129.80427 
L 184.325766 83.715046 
L 184.650745 129.369691 
L 184.975725 115.351048 
L 185.300704 121.887141 
L 185.625684 133.813245 
L 185.950663 135.375631 
L 186.275643 123.25352 
L 186.600622 90.282163 
L 186.925602 128.678714 
L 187.250581 119.875824 
L 187.575561 101.338981 
L 187.900541 143.623867 
L 188.22552 138.921429 
L 188.5505 130.284752 
L 188.875479 95.180134 
L 189.200459 122.567728 
L 189.525438 108.672006 
L 189.850418 125.17728 
L 190.175397 116.959839 
L 190.500377 111.967226 
L 190.825356 138.200967 
L 191.150336 121.290881 
L 191.475315 113.770605 
L 191.800295 127.397306 
L 192.125274 127.482166 
L 192.450254 125.883396 
L 192.775233 109.640965 
L 193.100213 111.46871 
L 193.425192 146.778714 
L 193.750172 100.141743 
L 194.075152 132.098663 
L 194.725111 106.630256 
L 195.37507 128.420964 
L 195.700049 112.28917 
L 196.025029 118.482745 
L 196.350008 100.896032 
L 196.674988 53.568 
L 196.999967 132.816602 
L 197.324947 109.120579 
L 197.649926 138.873218 
L 197.974906 102.295589 
L 198.299885 127.609607 
L 198.949844 122.126759 
L 199.274824 133.585761 
L 199.599803 116.320352 
L 199.924783 114.4288 
L 200.249762 100.769876 
L 200.574742 96.492652 
L 200.899722 123.456225 
L 201.549681 107.952095 
L 201.87466 129.456438 
L 202.19964 119.953855 
L 202.524619 126.679219 
L 202.849599 139.211242 
L 203.499558 94.678125 
L 203.824537 139.793692 
L 204.149517 119.447861 
L 204.799476 140.184104 
L 205.124455 138.776873 
L 205.449435 119.953855 
L 205.774414 118.099587 
L 206.099394 120.031955 
L 206.424373 100.329722 
L 206.749353 127.822411 
L 207.074333 125.094572 
L 207.399312 69.324102 
L 207.724292 99.114845 
L 208.049271 91.268939 
L 208.374251 123.985412 
L 208.69923 113.443309 
L 209.02421 117.603917 
L 209.674169 127.822411 
L 210.324128 99.735803 
L 210.649107 93.65334 
L 210.974087 83.454828 
L 211.299066 111.255906 
L 211.624046 86.198716 
L 211.949025 114.135673 
L 212.274005 121.80741 
L 212.598984 105.560033 
L 212.923964 111.717622 
L 213.573923 117.946781 
L 213.898903 109.5019 
L 214.223882 126.847664 
L 214.548862 111.362245 
L 214.873841 130.460113 
L 215.198821 114.135673 
L 215.5238 125.425863 
L 215.84878 142.96563 
L 216.173759 117.110971 
L 216.498739 124.7645 
L 216.823718 122.567728 
L 217.148698 69.279719 
L 217.473677 119.370268 
L 217.798657 114.392107 
L 218.123636 140.233025 
L 218.448616 117.110971 
L 218.773595 105.095796 
L 219.423554 132.591628 
L 219.748534 118.713427 
L 220.073514 93.828188 
L 220.398493 123.740784 
L 220.723473 105.793055 
L 221.048452 132.456914 
L 221.373432 104.535291 
L 221.698411 129.023537 
L 222.023391 130.591859 
L 222.67335 64.52702 
L 222.998329 115.388136 
L 223.323309 89.361613 
L 223.648288 103.717329 
L 223.973268 129.239727 
L 224.298247 138.344597 
L 224.623227 104.305509 
L 224.948206 111.860168 
L 225.273186 132.232839 
L 225.598165 137.01291 
L 225.923145 99.176748 
L 226.248124 134.913274 
L 226.898084 98.406018 
L 227.223063 106.327963 
L 227.548043 124.148869 
L 227.873022 122.607924 
L 228.198002 125.758383 
L 228.847961 109.36305 
L 229.17294 116.357843 
L 229.49792 109.120579 
L 229.822899 119.17658 
L 230.147879 103.42468 
L 230.472858 107.373512 
L 230.797838 93.420738 
L 231.122817 133.904401 
L 231.772776 63.397951 
L 232.097756 125.384385 
L 232.422735 118.944705 
L 232.747715 120.541264 
L 233.072695 124.805693 
L 233.397674 120.345034 
L 233.722654 128.549746 
L 234.047633 88.78069 
L 234.372613 93.01513 
L 234.697592 129.413054 
L 235.022572 96.252579 
L 235.347551 149.34166 
L 235.672531 109.919744 
L 235.99751 124.641035 
L 236.32249 116.80896 
L 236.647469 125.841706 
L 236.972449 139.404972 
L 237.622408 109.328371 
L 237.947387 112.002941 
L 238.272367 116.058353 
L 238.597346 116.733616 
L 238.922326 116.282877 
L 239.247305 123.456225 
L 239.572285 133.995649 
L 239.897265 104.996628 
L 240.222244 127.77981 
L 240.547224 105.161968 
L 240.872203 125.218663 
L 241.197183 104.963597 
L 241.847142 112.720234 
L 242.172121 113.879969 
L 242.497101 147.306656 
L 242.82208 80.792392 
L 243.14706 98.559635 
L 243.472039 103.587145 
L 244.121998 125.925106 
L 244.446978 122.086778 
L 244.771957 101.752259 
L 245.096937 124.148869 
L 245.421916 124.23071 
L 245.746896 125.260065 
L 246.071876 129.978693 
L 246.396855 143.471537 
L 246.721835 102.16745 
L 247.046814 118.023152 
L 247.371794 105.826394 
L 247.696773 75.550617 
L 248.021753 101.688554 
L 248.346732 113.770605 
L 248.671712 130.988262 
L 248.996691 126.553092 
L 249.321671 119.409056 
L 249.64665 138.776873 
L 249.97163 114.4288 
L 250.296609 114.355429 
L 250.621589 87.521187 
L 250.946568 123.944595 
L 251.271548 116.846656 
L 251.596527 69.146703 
L 251.921507 125.384385 
L 252.246486 99.891716 
L 252.896446 136.073665 
L 253.221425 107.475344 
L 253.546405 92.957336 
L 254.196364 121.251271 
L 254.521343 103.132982 
L 254.846323 112.36087 
L 255.171302 107.679356 
L 255.496282 121.013977 
L 255.821261 111.539758 
L 256.146241 139.842401 
L 256.47122 117.565902 
L 256.7962 138.392525 
L 257.121179 114.392107 
L 257.446159 126.469106 
L 257.771138 122.126759 
L 258.096118 119.486682 
L 258.421097 92.496316 
L 258.746077 89.500485 
L 259.071057 118.252654 
L 259.396036 114.099099 
L 259.721016 121.767571 
L 260.045995 134.867169 
L 260.695954 128.85096 
L 261.020934 83.454828 
L 261.345913 136.542058 
L 261.995872 92.266691 
L 262.320852 105.560033 
L 262.645831 132.277609 
L 262.970811 119.681042 
L 263.62077 108.397073 
L 263.945749 104.043619 
L 264.270729 115.759861 
L 264.595708 114.98101 
L 264.920688 110.620505 
L 265.570647 88.148728 
L 265.895627 113.807045 
L 266.220606 125.053247 
L 266.545586 94.884495 
L 266.870565 115.128842 
L 267.195545 104.27273 
L 267.520524 119.564376 
L 267.845504 121.927033 
L 268.170483 125.467361 
L 268.495463 121.648161 
L 268.820442 91.666709 
L 269.145422 124.970653 
L 269.470401 115.722619 
L 269.795381 129.239727 
L 270.12036 119.603248 
L 270.44534 80.716752 
L 270.770319 106.395051 
L 271.095299 85.55802 
L 271.420278 115.908983 
L 271.745258 132.367217 
L 272.395217 89.222957 
L 272.720197 117.679996 
L 273.045176 133.313539 
L 273.370156 132.053982 
L 273.695135 103.457149 
L 274.020115 138.969666 
L 274.345094 109.919744 
L 274.670074 148.640267 
L 274.995053 114.612493 
L 275.320033 112.684233 
L 275.645012 98.130168 
L 275.969992 100.392469 
L 276.294971 111.46871 
L 277.26991 130.855933 
L 277.594889 131.786362 
L 277.919869 130.1972 
L 278.244848 116.922095 
L 278.569828 120.659209 
L 278.894808 106.967337 
L 279.219787 123.740784 
L 279.544767 119.914831 
L 279.869746 136.120395 
L 280.519705 129.80427 
L 280.844685 107.271796 
L 281.169664 114.318765 
L 281.494644 124.641035 
L 281.819623 142.312189 
L 282.144603 100.706865 
L 282.469582 122.9705 
L 282.794562 122.768888 
L 283.119541 98.682718 
L 283.444521 120.619877 
L 283.7695 88.477892 
L 284.09448 135.700704 
L 284.419459 94.14963 
L 284.744439 134.178425 
L 285.069419 127.185507 
L 285.394398 129.456438 
L 285.719378 100.738365 
L 286.044357 126.133947 
L 286.369337 128.078445 
L 286.694316 121.489194 
L 287.019296 104.3711 
L 287.344275 119.099222 
L 287.669255 111.82451 
L 287.994234 119.564376 
L 288.319214 103.945608 
L 288.644193 125.841706 
L 288.969173 128.549746 
L 289.294152 120.659209 
L 289.619132 125.633544 
L 289.944111 119.409056 
L 290.269091 147.784475 
L 290.59407 138.200967 
L 290.91905 89.778874 
L 291.244029 134.913274 
L 291.569009 145.109884 
L 291.893989 126.805523 
L 292.218968 142.764064 
L 292.543948 117.832348 
L 293.193907 153.272242 
L 293.518886 145.992583 
L 293.843866 92.209377 
L 294.493825 139.017929 
L 294.818804 118.636467 
L 295.143784 137.533717 
L 295.468763 136.448184 
L 295.793743 123.172566 
L 296.118722 126.679219 
L 296.443702 139.308055 
L 296.768681 134.041308 
L 297.41864 118.636467 
L 297.74362 125.675137 
L 298.0686 145.316798 
L 298.393579 134.315751 
L 298.718559 136.167148 
L 299.043538 111.753237 
L 299.368518 119.137892 
L 299.693497 139.114534 
L 300.018477 122.447249 
L 300.343456 130.416241 
L 300.668436 106.46219 
L 300.993415 102.103449 
L 301.318395 139.3565 
L 301.643374 119.719965 
L 301.968354 115.239876 
L 302.293333 118.790454 
L 302.618313 141.713208 
L 303.268272 97.977284 
L 303.593251 102.199468 
L 303.918231 120.698559 
L 304.24321 92.928453 
L 304.56819 102.809982 
L 304.89317 125.053247 
L 305.218149 130.460113 
L 305.543129 131.386424 
L 305.868108 147.678072 
L 306.843047 96.763503 
L 307.168026 126.259485 
L 307.493006 126.721301 
L 307.817985 131.563954 
L 308.142965 92.553814 
L 308.467944 119.292743 
L 309.117903 129.499844 
L 309.442883 80.741958 
L 309.767862 107.305689 
L 310.092842 108.157195 
L 310.417821 92.813012 
L 310.742801 124.682171 
L 311.067781 115.648181 
L 311.39276 126.469106 
L 311.71774 98.222024 
L 312.042719 96.944527 
L 312.367699 134.499181 
L 312.692678 96.793649 
L 313.017658 119.409056 
L 313.342637 129.717186 
L 313.667617 135.74724 
L 313.992596 134.132696 
L 314.317576 120.188358 
L 314.642555 134.959402 
L 314.967535 118.867546 
L 315.292514 120.188358 
L 315.617494 110.620505 
L 315.942473 84.106794 
L 316.267453 138.105341 
L 316.592432 97.916203 
L 316.917412 130.32856 
L 317.242391 133.767702 
L 318.54231 110.374616 
L 318.867289 140.037501 
L 319.192269 125.716751 
L 319.517248 135.282968 
L 319.842228 126.974206 
L 320.167207 148.855497 
L 320.492187 112.75625 
L 320.817166 121.409816 
L 321.467125 130.723799 
L 321.792105 113.443309 
L 322.117084 129.196447 
L 322.442064 128.937207 
L 322.767043 160.395261 
L 323.092023 67.870952 
L 323.417002 130.723799 
L 323.741982 126.595115 
L 324.066962 98.191395 
L 324.391941 114.465509 
L 324.716921 113.334476 
L 325.0419 129.10995 
L 325.36688 94.973084 
L 325.691859 118.290961 
L 326.016839 119.331497 
L 326.341818 131.430774 
L 326.666798 130.1972 
L 326.991777 127.058666 
L 327.316757 116.095735 
L 327.641736 98.375326 
L 327.966716 109.954652 
L 328.291695 114.392107 
L 328.616675 115.128842 
L 328.941654 118.867546 
L 329.266634 116.545533 
L 329.591613 89.139865 
L 329.916593 132.636577 
L 330.241572 140.723711 
L 330.566552 125.301486 
L 330.891532 102.327652 
L 331.216511 120.856129 
L 331.541491 102.520273 
L 331.86647 119.060567 
L 332.516429 91.155614 
L 332.841409 89.139865 
L 333.166388 116.020987 
L 333.491368 91.070713 
L 333.816347 118.674939 
L 334.141327 105.493566 
L 334.466306 99.393744 
L 334.791286 120.501984 
L 335.116265 108.362765 
L 335.441245 109.8151 
L 335.766224 113.807045 
L 336.091204 97.763683 
L 336.416183 132.636577 
L 336.741163 119.642137 
L 337.066143 126.259485 
L 337.391122 126.932006 
L 337.716102 106.663907 
L 338.041081 126.889825 
L 338.69104 103.978266 
L 339.01602 129.369691 
L 339.340999 127.227826 
L 339.665979 136.589032 
L 339.990958 110.585337 
L 340.315938 139.114534 
L 340.640917 118.329285 
L 340.965897 133.494929 
L 341.290876 113.479617 
L 341.615856 114.907186 
L 341.940835 93.246681 
L 342.265815 94.619249 
L 342.590794 119.603248 
L 342.915774 88.698007 
L 343.240753 120.266661 
L 343.565733 85.637857 
L 344.215692 107.917957 
L 344.540672 97.368341 
L 344.865651 117.414002 
L 345.190631 116.997598 
L 345.51561 110.26944 
L 345.84059 136.073665 
L 346.165569 130.547922 
L 346.490549 122.768888 
L 346.815528 96.793649 
L 347.140508 119.564376 
L 347.465487 109.328371 
L 347.790467 125.425863 
L 348.115446 110.02451 
L 348.440426 130.811867 
L 348.765405 108.362765 
L 349.090385 110.479914 
L 349.415364 94.17891 
L 349.740344 133.722182 
L 350.065324 82.910816 
L 350.390303 133.585761 
L 350.715283 114.465509 
L 351.040262 107.679356 
L 351.365242 114.208865 
L 351.690221 113.081043 
L 352.015201 99.704653 
L 352.34018 98.313973 
L 352.66516 112.11017 
L 352.990139 132.098663 
L 353.315119 109.016863 
L 353.640098 116.620719 
L 353.965078 109.432448 
L 354.290057 121.528909 
L 354.615037 104.699782 
L 354.940016 74.204605 
L 355.264996 131.209245 
L 355.589975 119.215284 
L 355.914955 95.180134 
L 356.239934 120.501984 
L 356.564914 123.132116 
L 356.889894 109.259053 
L 357.214873 123.985412 
L 357.539853 112.28917 
L 357.864832 111.860168 
L 358.189812 126.30137 
L 358.839771 113.261993 
L 359.16475 126.008584 
L 359.48973 83.091787 
L 360.139689 123.334547 
L 360.464668 110.620505 
L 360.789648 106.832352 
L 361.114627 104.996628 
L 361.439607 104.469578 
L 361.764586 103.619673 
L 362.089566 108.122979 
L 362.414545 130.109734 
L 363.064505 95.893671 
L 363.389484 114.722889 
L 363.714464 125.135917 
L 364.039443 91.866258 
L 364.364423 98.191395 
L 364.689402 130.900021 
L 365.014382 96.823804 
L 365.339361 105.427148 
L 365.664341 120.659209 
L 365.98932 102.199468 
L 366.639279 120.895565 
L 366.964259 123.010877 
L 367.939197 87.54838 
L 368.264177 131.741837 
L 368.589156 108.568807 
L 368.914136 99.300681 
L 369.239115 101.402439 
L 369.564095 89.528285 
L 369.889075 128.378077 
L 370.214054 82.755988 
L 370.539034 117.48992 
L 370.864013 122.567728 
L 371.188993 115.610986 
L 371.513972 88.039275 
L 371.838952 107.815622 
L 372.163931 120.698559 
L 372.488911 111.291338 
L 372.81389 112.145941 
L 373.13887 103.48963 
L 373.463849 117.565902 
L 374.113808 91.923353 
L 374.438788 113.552275 
L 374.763767 88.285733 
L 375.088747 89.38937 
L 375.413726 116.733616 
L 375.738706 122.487391 
L 376.063686 112.002941 
L 376.388665 118.636467 
L 376.713645 109.640965 
L 377.038624 83.558825 
L 377.363604 95.239379 
L 377.688583 119.02193 
L 378.013563 103.457149 
L 378.338542 121.927033 
L 378.663522 117.186633 
L 378.988501 131.253507 
L 379.63846 102.809982 
L 379.96344 127.185507 
L 380.288419 120.266661 
L 380.613399 132.546701 
L 380.938378 99.331692 
L 381.263358 119.099222 
L 381.913317 88.039275 
L 382.238296 118.521151 
L 382.563276 134.728996 
L 382.888256 67.631033 
L 383.213235 87.060158 
L 383.538215 133.995649 
L 383.863194 125.633544 
L 384.188174 133.995649 
L 384.513153 110.129398 
L 384.838133 113.515939 
L 385.163112 118.329285 
L 385.488092 96.793649 
L 385.813071 135.144154 
L 386.138051 108.672006 
L 386.46303 113.952953 
L 386.78801 126.974206 
L 387.112989 116.058353 
L 387.437969 126.932006 
L 387.762948 123.659389 
L 388.087928 85.451681 
L 388.412907 90.816494 
L 388.737887 117.148794 
L 389.062867 123.863015 
L 389.387846 123.781509 
L 389.712826 130.109734 
L 390.037805 128.292366 
L 390.362785 110.129398 
L 390.687764 125.591969 
L 391.337723 81.476043 
L 391.662703 84.080624 
L 391.987682 120.935018 
L 392.312662 124.271658 
L 392.637641 118.906117 
L 393.2876 123.091685 
L 393.61258 94.737039 
L 393.937559 120.659209 
L 394.262539 84.605476 
L 395.237477 126.847664 
L 395.562457 95.983263 
L 395.887437 122.206774 
L 396.212416 118.405982 
L 396.537396 105.095796 
L 396.862375 101.212201 
L 397.187355 119.292743 
L 397.512334 113.117204 
L 397.837314 124.51774 
L 398.162293 95.774353 
L 398.487273 117.603917 
L 398.487273 117.603917 
" clip-path="url(#pbfdcba6d52)" style="fill: none; stroke: #ff0000; stroke-width: 1.5; stroke-linecap: square"/>
   </g>
   <g id="patch_3">
    <path d="M 57.6 307.584 
L 57.6 41.472 
" style="fill: none; stroke: #000000; stroke-width: 0.8; stroke-linejoin: miter; stroke-linecap: square"/>
   </g>
   <g id="patch_4">
    <path d="M 414.72 307.584 
L 414.72 41.472 
" style="fill: none; stroke: #000000; stroke-width: 0.8; stroke-linejoin: miter; stroke-linecap: square"/>
   </g>
   <g id="patch_5">
    <path d="M 57.6 307.584 
L 414.72 307.584 
" style="fill: none; stroke: #000000; stroke-width: 0.8; stroke-linejoin: miter; stroke-linecap: square"/>
   </g>
   <g id="patch_6">
    <path d="M 57.6 41.472 
L 414.72 41.472 
" style="fill: none; stroke: #000000; stroke-width: 0.8; stroke-linejoin: miter; stroke-linecap: square"/>
   </g>
   <g id="text_11">
    <!-- Population's average and best fitness -->
    <g transform="translate(123.529687 35.472) scale(0.12 -0.12)">
     <defs>
      <path id="DejaVuSans-50" d="M 1259 4147 
L 1259 2394 
L 2053 2394 
Q 2494 2394 2734 2622 
Q 2975 2850 2975 3272 
Q 2975 3691 2734 3919 
Q 2494 4147 2053 4147 
L 1259 4147 
z
M 628 4666 
L 2053 4666 
Q 2838 4666 3239 4311 
Q 3641 3956 3641 3272 
Q 3641 2581 3239 2228 
Q 2838 1875 2053 1875 
L 1259 1875 
L 1259 0 
L 628 0 
L 628 4666 
z
" transform="scale(0.015625)"/>
      <path id="DejaVuSans-70" d="M 1159 525 
L 1159 -1331 
L 581 -1331 
L 581 3500 
L 1159 3500 
L 1159 2969 
Q 1341 3281 1617 3432 
Q 1894 3584 2278 3584 
Q 2916 3584 3314 3078 
Q 3713 2572 3713 1747 
Q 3713 922 3314 415 
Q 2916 -91 2278 -91 
Q 1894 -91 1617 61 
Q 1341 213 1159 525 
z
M 3116 1747 
Q 3116 2381 2855 2742 
Q 2594 3103 2138 3103 
Q 1681 3103 1420 2742 
Q 1159 2381 1159 1747 
Q 1159 1113 1420 752 
Q 1681 391 2138 391 
Q 2594 391 2855 752 
Q 3116 1113 3116 1747 
z
" transform="scale(0.015625)"/>
      <path id="DejaVuSans-75" d="M 544 1381 
L 544 3500 
L 1119 3500 
L 1119 1403 
Q 1119 906 1312 657 
Q 1506 409 1894 409 
Q 2359 409 2629 706 
Q 2900 1003 2900 1516 
L 2900 3500 
L 3475 3500 
L 3475 0 
L 2900 0 
L 2900 538 
Q 2691 219 2414 64 
Q 2138 -91 1772 -91 
Q 1169 -91 856 284 
Q 544 659 544 1381 
z
M 1991 3584 
L 1991 3584 
z
" transform="scale(0.015625)"/>
      <path id="DejaVuSans-6c" d="M 603 4863 
L 1178 4863 
L 1178 0 
L 603 0 
L 603 4863 
z
" transform="scale(0.015625)"/>
      <path id="DejaVuSans-27" d="M 1147 4666 
L 1147 2931 
L 616 2931 
L 616 4666 
L 1147 4666 
z
" transform="scale(0.015625)"/>
      <path id="DejaVuSans-20" transform="scale(0.015625)"/>
      <path id="DejaVuSans-76" d="M 191 3500 
L 800 3500 
L 1894 563 
L 2988 3500 
L 3597 3500 
L 2284 0 
L 1503 0 
L 191 3500 
z
" transform="scale(0.015625)"/>
      <path id="DejaVuSans-67" d="M 2906 1791 
Q 2906 2416 2648 2759 
Q 2391 3103 1925 3103 
Q 1463 3103 1205 2759 
Q 947 2416 947 1791 
Q 947 1169 1205 825 
Q 1463 481 1925 481 
Q 2391 481 2648 825 
Q 2906 1169 2906 1791 
z
M 3481 434 
Q 3481 -459 3084 -895 
Q 2688 -1331 1869 -1331 
Q 1566 -1331 1297 -1286 
Q 1028 -1241 775 -1147 
L 775 -588 
Q 1028 -725 1275 -790 
Q 1522 -856 1778 -856 
Q 2344 -856 2625 -561 
Q 2906 -266 2906 331 
L 2906 616 
Q 2728 306 2450 153 
Q 2172 0 1784 0 
Q 1141 0 747 490 
Q 353 981 353 1791 
Q 353 2603 747 3093 
Q 1141 3584 1784 3584 
Q 2172 3584 2450 3431 
Q 2728 3278 2906 2969 
L 2906 3500 
L 3481 3500 
L 3481 434 
z
" transform="scale(0.015625)"/>
      <path id="DejaVuSans-64" d="M 2906 2969 
L 2906 4863 
L 3481 4863 
L 3481 0 
L 2906 0 
L 2906 525 
Q 2725 213 2448 61 
Q 2172 -91 1784 -91 
Q 1150 -91 751 415 
Q 353 922 353 1747 
Q 353 2572 751 3078 
Q 1150 3584 1784 3584 
Q 2172 3584 2448 3432 
Q 2725 3281 2906 2969 
z
M 947 1747 
Q 947 1113 1208 752 
Q 1469 391 1925 391 
Q 2381 391 2643 752 
Q 2906 1113 2906 1747 
Q 2906 2381 2643 2742 
Q 2381 3103 1925 3103 
Q 1469 3103 1208 2742 
Q 947 2381 947 1747 
z
" transform="scale(0.015625)"/>
      <path id="DejaVuSans-62" d="M 3116 1747 
Q 3116 2381 2855 2742 
Q 2594 3103 2138 3103 
Q 1681 3103 1420 2742 
Q 1159 2381 1159 1747 
Q 1159 1113 1420 752 
Q 1681 391 2138 391 
Q 2594 391 2855 752 
Q 3116 1113 3116 1747 
z
M 1159 2969 
Q 1341 3281 1617 3432 
Q 1894 3584 2278 3584 
Q 2916 3584 3314 3078 
Q 3713 2572 3713 1747 
Q 3713 922 3314 415 
Q 2916 -91 2278 -91 
Q 1894 -91 1617 61 
Q 1341 213 1159 525 
L 1159 0 
L 581 0 
L 581 4863 
L 1159 4863 
L 1159 2969 
z
" transform="scale(0.015625)"/>
      <path id="DejaVuSans-66" d="M 2375 4863 
L 2375 4384 
L 1825 4384 
Q 1516 4384 1395 4259 
Q 1275 4134 1275 3809 
L 1275 3500 
L 2222 3500 
L 2222 3053 
L 1275 3053 
L 1275 0 
L 697 0 
L 697 3053 
L 147 3053 
L 147 3500 
L 697 3500 
L 697 3744 
Q 697 4328 969 4595 
Q 1241 4863 1831 4863 
L 2375 4863 
z
" transform="scale(0.015625)"/>
     </defs>
     <use xlink:href="#DejaVuSans-50"/>
     <use xlink:href="#DejaVuSans-6f" transform="translate(56.677734 0)"/>
     <use xlink:href="#DejaVuSans-70" transform="translate(117.859375 0)"/>
     <use xlink:href="#DejaVuSans-75" transform="translate(181.335938 0)"/>
     <use xlink:href="#DejaVuSans-6c" transform="translate(244.714844 0)"/>
     <use xlink:href="#DejaVuSans-61" transform="translate(272.498047 0)"/>
     <use xlink:href="#DejaVuSans-74" transform="translate(333.777344 0)"/>
     <use xlink:href="#DejaVuSans-69" transform="translate(372.986328 0)"/>
     <use xlink:href="#DejaVuSans-6f" transform="translate(400.769531 0)"/>
     <use xlink:href="#DejaVuSans-6e" transform="translate(461.951172 0)"/>
     <use xlink:href="#DejaVuSans-27" transform="translate(525.330078 0)"/>
     <use xlink:href="#DejaVuSans-73" transform="translate(552.820312 0)"/>
     <use xlink:href="#DejaVuSans-20" transform="translate(604.919922 0)"/>
     <use xlink:href="#DejaVuSans-61" transform="translate(636.707031 0)"/>
     <use xlink:href="#DejaVuSans-76" transform="translate(697.986328 0)"/>
     <use xlink:href="#DejaVuSans-65" transform="translate(757.166016 0)"/>
     <use xlink:href="#DejaVuSans-72" transform="translate(818.689453 0)"/>
     <use xlink:href="#DejaVuSans-61" transform="translate(859.802734 0)"/>
     <use xlink:href="#DejaVuSans-67" transform="translate(921.082031 0)"/>
     <use xlink:href="#DejaVuSans-65" transform="translate(984.558594 0)"/>
     <use xlink:href="#DejaVuSans-20" transform="translate(1046.082031 0)"/>
     <use xlink:href="#DejaVuSans-61" transform="translate(1077.869141 0)"/>
     <use xlink:href="#DejaVuSans-6e" transform="translate(1139.148438 0)"/>
     <use xlink:href="#DejaVuSans-64" transform="translate(1202.527344 0)"/>
     <use xlink:href="#DejaVuSans-20" transform="translate(1266.003906 0)"/>
     <use xlink:href="#DejaVuSans-62" transform="translate(1297.791016 0)"/>
     <use xlink:href="#DejaVuSans-65" transform="translate(1361.267578 0)"/>
     <use xlink:href="#DejaVuSans-73" transform="translate(1422.791016 0)"/>
     <use xlink:href="#DejaVuSans-74" transform="translate(1474.890625 0)"/>
     <use xlink:href="#DejaVuSans-20" transform="translate(1514.099609 0)"/>
     <use xlink:href="#DejaVuSans-66" transform="translate(1545.886719 0)"/>
     <use xlink:href="#DejaVuSans-69" transform="translate(1581.091797 0)"/>
     <use xlink:href="#DejaVuSans-74" transform="translate(1608.875 0)"/>
     <use xlink:href="#DejaVuSans-6e" transform="translate(1648.083984 0)"/>
     <use xlink:href="#DejaVuSans-65" transform="translate(1711.462891 0)"/>
     <use xlink:href="#DejaVuSans-73" transform="translate(1772.986328 0)"/>
     <use xlink:href="#DejaVuSans-73" transform="translate(1825.085938 0)"/>
    </g>
   </g>
   <g id="legend_1">
    <g id="patch_7">
     <path d="M 199.689687 198.045187 
L 272.630313 198.045187 
Q 274.630313 198.045187 274.630313 196.045187 
L 274.630313 153.010812 
Q 274.630313 151.010812 272.630313 151.010812 
L 199.689687 151.010812 
Q 197.689687 151.010812 197.689687 153.010812 
L 197.689687 196.045187 
Q 197.689687 198.045187 199.689687 198.045187 
z
" style="fill: #ffffff; opacity: 0.8; stroke: #cccccc; stroke-linejoin: miter"/>
    </g>
    <g id="line2d_20">
     <path d="M 201.689687 159.10925 
L 211.689687 159.10925 
L 221.689687 159.10925 
" style="fill: none; stroke: #0000ff; stroke-width: 1.5; stroke-linecap: square"/>
    </g>
    <g id="text_12">
     <!-- average -->
     <g transform="translate(229.689687 162.60925) scale(0.1 -0.1)">
      <use xlink:href="#DejaVuSans-61"/>
      <use xlink:href="#DejaVuSans-76" transform="translate(61.279297 0)"/>
      <use xlink:href="#DejaVuSans-65" transform="translate(120.458984 0)"/>
      <use xlink:href="#DejaVuSans-72" transform="translate(181.982422 0)"/>
      <use xlink:href="#DejaVuSans-61" transform="translate(223.095703 0)"/>
      <use xlink:href="#DejaVuSans-67" transform="translate(284.375 0)"/>
      <use xlink:href="#DejaVuSans-65" transform="translate(347.851562 0)"/>
     </g>
    </g>
    <g id="line2d_21">
     <path d="M 201.689687 173.787375 
L 211.689687 173.787375 
L 221.689687 173.787375 
" style="fill: none; stroke-dasharray: 9.6,2.4,1.5,2.4; stroke-dashoffset: 0; stroke: #008000; stroke-width: 1.5"/>
    </g>
    <g id="text_13">
     <!-- +1 sd -->
     <g transform="translate(229.689687 177.287375) scale(0.1 -0.1)">
      <defs>
       <path id="DejaVuSans-2b" d="M 2944 4013 
L 2944 2272 
L 4684 2272 
L 4684 1741 
L 2944 1741 
L 2944 0 
L 2419 0 
L 2419 1741 
L 678 1741 
L 678 2272 
L 2419 2272 
L 2419 4013 
L 2944 4013 
z
" transform="scale(0.015625)"/>
      </defs>
      <use xlink:href="#DejaVuSans-2b"/>
      <use xlink:href="#DejaVuSans-31" transform="translate(83.789062 0)"/>
      <use xlink:href="#DejaVuSans-20" transform="translate(147.412109 0)"/>
      <use xlink:href="#DejaVuSans-73" transform="translate(179.199219 0)"/>
      <use xlink:href="#DejaVuSans-64" transform="translate(231.298828 0)"/>
     </g>
    </g>
    <g id="line2d_22">
     <path d="M 201.689687 188.4655 
L 211.689687 188.4655 
L 221.689687 188.4655 
" style="fill: none; stroke: #ff0000; stroke-width: 1.5; stroke-linecap: square"/>
    </g>
    <g id="text_14">
     <!-- best -->
     <g transform="translate(229.689687 191.9655) scale(0.1 -0.1)">
      <use xlink:href="#DejaVuSans-62"/>
      <use xlink:href="#DejaVuSans-65" transform="translate(63.476562 0)"/>
      <use xlink:href="#DejaVuSans-73" transform="translate(125 0)"/>
      <use xlink:href="#DejaVuSans-74" transform="translate(177.099609 0)"/>
     </g>
    </g>
   </g>
  </g>
 </g>
 <defs>
  <clipPath id="pbfdcba6d52">
   <rect x="57.6" y="41.472" width="357.12" height="266.112"/>
  </clipPath>
 </defs>
</svg>
