<?xml version="1.0" encoding="utf-8" standalone="no"?>
<!DOCTYPE svg PUBLIC "-//W3C//DTD SVG 1.1//EN"
  "http://www.w3.org/Graphics/SVG/1.1/DTD/svg11.dtd">
<svg xmlns:xlink="http://www.w3.org/1999/xlink" width="460.8pt" height="345.6pt" viewBox="0 0 460.8 345.6" xmlns="http://www.w3.org/2000/svg" version="1.1">
 <metadata>
  <rdf:RDF xmlns:dc="http://purl.org/dc/elements/1.1/" xmlns:cc="http://creativecommons.org/ns#" xmlns:rdf="http://www.w3.org/1999/02/22-rdf-syntax-ns#">
   <cc:Work>
    <dc:type rdf:resource="http://purl.org/dc/dcmitype/StillImage"/>
    <dc:date>2025-11-20T18:03:33.397231</dc:date>
    <dc:format>image/svg+xml</dc:format>
    <dc:creator>
     <cc:Agent>
      <dc:title>Matplotlib v3.10.7, https://matplotlib.org/</dc:title>
     </cc:Agent>
    </dc:creator>
   </cc:Work>
  </rdf:RDF>
 </metadata>
 <defs>
  <style type="text/css">*{stroke-linejoin: round; stroke-linecap: butt}</style>
 </defs>
 <g id="figure_1">
  <g id="patch_1">
   <path d="M 0 345.6 
L 460.8 345.6 
L 460.8 0 
L 0 0 
z
" style="fill: #ffffff"/>
  </g>
  <g id="axes_1">
   <g id="patch_2">
    <path d="M 57.6 307.584 
L 414.72 307.584 
L 414.72 41.472 
L 57.6 41.472 
z
" style="fill: #ffffff"/>
   </g>
   <g id="matplotlib.axis_1">
    <g id="xtick_1">
     <g id="line2d_1">
      <path d="M 73.832727 307.584 
L 73.832727 41.472 
" clip-path="url(#p46856399b7)" style="fill: none; stroke: #b0b0b0; stroke-width: 0.8; stroke-linecap: square"/>
     </g>
     <g id="line2d_2">
      <defs>
       <path id="ma30b44448c" d="M 0 0 
L 0 3.5 
" style="stroke: #000000; stroke-width: 0.8"/>
      </defs>
      <g>
       <use xlink:href="#ma30b44448c" x="73.832727" y="307.584" style="stroke: #000000; stroke-width: 0.8"/>
      </g>
     </g>
     <g id="text_1">
      <!-- 0 -->
      <g transform="translate(70.651477 322.182437) scale(0.1 -0.1)">
       <defs>
        <path id="DejaVuSans-30" d="M 2034 4250 
Q 1547 4250 1301 3770 
Q 1056 3291 1056 2328 
Q 1056 1369 1301 889 
Q 1547 409 2034 409 
Q 2525 409 2770 889 
Q 3016 1369 3016 2328 
Q 3016 3291 2770 3770 
Q 2525 4250 2034 4250 
z
M 2034 4750 
Q 2819 4750 3233 4129 
Q 3647 3509 3647 2328 
Q 3647 1150 3233 529 
Q 2819 -91 2034 -91 
Q 1250 -91 836 529 
Q 422 1150 422 2328 
Q 422 3509 836 4129 
Q 1250 4750 2034 4750 
z
" transform="scale(0.015625)"/>
       </defs>
       <use xlink:href="#DejaVuSans-30"/>
      </g>
     </g>
    </g>
    <g id="xtick_2">
     <g id="line2d_3">
      <path d="M 117.410519 307.584 
L 117.410519 41.472 
" clip-path="url(#p46856399b7)" style="fill: none; stroke: #b0b0b0; stroke-width: 0.8; stroke-linecap: square"/>
     </g>
     <g id="line2d_4">
      <g>
       <use xlink:href="#ma30b44448c" x="117.410519" y="307.584" style="stroke: #000000; stroke-width: 0.8"/>
      </g>
     </g>
     <g id="text_2">
      <!-- 20 -->
      <g transform="translate(111.048019 322.182437) scale(0.1 -0.1)">
       <defs>
        <path id="DejaVuSans-32" d="M 1228 531 
L 3431 531 
L 3431 0 
L 469 0 
L 469 531 
Q 828 903 1448 1529 
Q 2069 2156 2228 2338 
Q 2531 2678 2651 2914 
Q 2772 3150 2772 3378 
Q 2772 3750 2511 3984 
Q 2250 4219 1831 4219 
Q 1534 4219 1204 4116 
Q 875 4013 500 3803 
L 500 4441 
Q 881 4594 1212 4672 
Q 1544 4750 1819 4750 
Q 2544 4750 2975 4387 
Q 3406 4025 3406 3419 
Q 3406 3131 3298 2873 
Q 3191 2616 2906 2266 
Q 2828 2175 2409 1742 
Q 1991 1309 1228 531 
z
" transform="scale(0.015625)"/>
       </defs>
       <use xlink:href="#DejaVuSans-32"/>
       <use xlink:href="#DejaVuSans-30" transform="translate(63.623047 0)"/>
      </g>
     </g>
    </g>
    <g id="xtick_3">
     <g id="line2d_5">
      <path d="M 160.98831 307.584 
L 160.98831 41.472 
" clip-path="url(#p46856399b7)" style="fill: none; stroke: #b0b0b0; stroke-width: 0.8; stroke-linecap: square"/>
     </g>
     <g id="line2d_6">
      <g>
       <use xlink:href="#ma30b44448c" x="160.98831" y="307.584" style="stroke: #000000; stroke-width: 0.8"/>
      </g>
     </g>
     <g id="text_3">
      <!-- 40 -->
      <g transform="translate(154.62581 322.182437) scale(0.1 -0.1)">
       <defs>
        <path id="DejaVuSans-34" d="M 2419 4116 
L 825 1625 
L 2419 1625 
L 2419 4116 
z
M 2253 4666 
L 3047 4666 
L 3047 1625 
L 3713 1625 
L 3713 1100 
L 3047 1100 
L 3047 0 
L 2419 0 
L 2419 1100 
L 313 1100 
L 313 1709 
L 2253 4666 
z
" transform="scale(0.015625)"/>
       </defs>
       <use xlink:href="#DejaVuSans-34"/>
       <use xlink:href="#DejaVuSans-30" transform="translate(63.623047 0)"/>
      </g>
     </g>
    </g>
    <g id="xtick_4">
     <g id="line2d_7">
      <path d="M 204.566101 307.584 
L 204.566101 41.472 
" clip-path="url(#p46856399b7)" style="fill: none; stroke: #b0b0b0; stroke-width: 0.8; stroke-linecap: square"/>
     </g>
     <g id="line2d_8">
      <g>
       <use xlink:href="#ma30b44448c" x="204.566101" y="307.584" style="stroke: #000000; stroke-width: 0.8"/>
      </g>
     </g>
     <g id="text_4">
      <!-- 60 -->
      <g transform="translate(198.203601 322.182437) scale(0.1 -0.1)">
       <defs>
        <path id="DejaVuSans-36" d="M 2113 2584 
Q 1688 2584 1439 2293 
Q 1191 2003 1191 1497 
Q 1191 994 1439 701 
Q 1688 409 2113 409 
Q 2538 409 2786 701 
Q 3034 994 3034 1497 
Q 3034 2003 2786 2293 
Q 2538 2584 2113 2584 
z
M 3366 4563 
L 3366 3988 
Q 3128 4100 2886 4159 
Q 2644 4219 2406 4219 
Q 1781 4219 1451 3797 
Q 1122 3375 1075 2522 
Q 1259 2794 1537 2939 
Q 1816 3084 2150 3084 
Q 2853 3084 3261 2657 
Q 3669 2231 3669 1497 
Q 3669 778 3244 343 
Q 2819 -91 2113 -91 
Q 1303 -91 875 529 
Q 447 1150 447 2328 
Q 447 3434 972 4092 
Q 1497 4750 2381 4750 
Q 2619 4750 2861 4703 
Q 3103 4656 3366 4563 
z
" transform="scale(0.015625)"/>
       </defs>
       <use xlink:href="#DejaVuSans-36"/>
       <use xlink:href="#DejaVuSans-30" transform="translate(63.623047 0)"/>
      </g>
     </g>
    </g>
    <g id="xtick_5">
     <g id="line2d_9">
      <path d="M 248.143893 307.584 
L 248.143893 41.472 
" clip-path="url(#p46856399b7)" style="fill: none; stroke: #b0b0b0; stroke-width: 0.8; stroke-linecap: square"/>
     </g>
     <g id="line2d_10">
      <g>
       <use xlink:href="#ma30b44448c" x="248.143893" y="307.584" style="stroke: #000000; stroke-width: 0.8"/>
      </g>
     </g>
     <g id="text_5">
      <!-- 80 -->
      <g transform="translate(241.781393 322.182437) scale(0.1 -0.1)">
       <defs>
        <path id="DejaVuSans-38" d="M 2034 2216 
Q 1584 2216 1326 1975 
Q 1069 1734 1069 1313 
Q 1069 891 1326 650 
Q 1584 409 2034 409 
Q 2484 409 2743 651 
Q 3003 894 3003 1313 
Q 3003 1734 2745 1975 
Q 2488 2216 2034 2216 
z
M 1403 2484 
Q 997 2584 770 2862 
Q 544 3141 544 3541 
Q 544 4100 942 4425 
Q 1341 4750 2034 4750 
Q 2731 4750 3128 4425 
Q 3525 4100 3525 3541 
Q 3525 3141 3298 2862 
Q 3072 2584 2669 2484 
Q 3125 2378 3379 2068 
Q 3634 1759 3634 1313 
Q 3634 634 3220 271 
Q 2806 -91 2034 -91 
Q 1263 -91 848 271 
Q 434 634 434 1313 
Q 434 1759 690 2068 
Q 947 2378 1403 2484 
z
M 1172 3481 
Q 1172 3119 1398 2916 
Q 1625 2713 2034 2713 
Q 2441 2713 2670 2916 
Q 2900 3119 2900 3481 
Q 2900 3844 2670 4047 
Q 2441 4250 2034 4250 
Q 1625 4250 1398 4047 
Q 1172 3844 1172 3481 
z
" transform="scale(0.015625)"/>
       </defs>
       <use xlink:href="#DejaVuSans-38"/>
       <use xlink:href="#DejaVuSans-30" transform="translate(63.623047 0)"/>
      </g>
     </g>
    </g>
    <g id="xtick_6">
     <g id="line2d_11">
      <path d="M 291.721684 307.584 
L 291.721684 41.472 
" clip-path="url(#p46856399b7)" style="fill: none; stroke: #b0b0b0; stroke-width: 0.8; stroke-linecap: square"/>
     </g>
     <g id="line2d_12">
      <g>
       <use xlink:href="#ma30b44448c" x="291.721684" y="307.584" style="stroke: #000000; stroke-width: 0.8"/>
      </g>
     </g>
     <g id="text_6">
      <!-- 100 -->
      <g transform="translate(282.177934 322.182437) scale(0.1 -0.1)">
       <defs>
        <path id="DejaVuSans-31" d="M 794 531 
L 1825 531 
L 1825 4091 
L 703 3866 
L 703 4441 
L 1819 4666 
L 2450 4666 
L 2450 531 
L 3481 531 
L 3481 0 
L 794 0 
L 794 531 
z
" transform="scale(0.015625)"/>
       </defs>
       <use xlink:href="#DejaVuSans-31"/>
       <use xlink:href="#DejaVuSans-30" transform="translate(63.623047 0)"/>
       <use xlink:href="#DejaVuSans-30" transform="translate(127.246094 0)"/>
      </g>
     </g>
    </g>
    <g id="xtick_7">
     <g id="line2d_13">
      <path d="M 335.299475 307.584 
L 335.299475 41.472 
" clip-path="url(#p46856399b7)" style="fill: none; stroke: #b0b0b0; stroke-width: 0.8; stroke-linecap: square"/>
     </g>
     <g id="line2d_14">
      <g>
       <use xlink:href="#ma30b44448c" x="335.299475" y="307.584" style="stroke: #000000; stroke-width: 0.8"/>
      </g>
     </g>
     <g id="text_7">
      <!-- 120 -->
      <g transform="translate(325.755725 322.182437) scale(0.1 -0.1)">
       <use xlink:href="#DejaVuSans-31"/>
       <use xlink:href="#DejaVuSans-32" transform="translate(63.623047 0)"/>
       <use xlink:href="#DejaVuSans-30" transform="translate(127.246094 0)"/>
      </g>
     </g>
    </g>
    <g id="xtick_8">
     <g id="line2d_15">
      <path d="M 378.877267 307.584 
L 378.877267 41.472 
" clip-path="url(#p46856399b7)" style="fill: none; stroke: #b0b0b0; stroke-width: 0.8; stroke-linecap: square"/>
     </g>
     <g id="line2d_16">
      <g>
       <use xlink:href="#ma30b44448c" x="378.877267" y="307.584" style="stroke: #000000; stroke-width: 0.8"/>
      </g>
     </g>
     <g id="text_8">
      <!-- 140 -->
      <g transform="translate(369.333517 322.182437) scale(0.1 -0.1)">
       <use xlink:href="#DejaVuSans-31"/>
       <use xlink:href="#DejaVuSans-34" transform="translate(63.623047 0)"/>
       <use xlink:href="#DejaVuSans-30" transform="translate(127.246094 0)"/>
      </g>
     </g>
    </g>
    <g id="text_9">
     <!-- Generations -->
     <g transform="translate(205.662344 335.860562) scale(0.1 -0.1)">
      <defs>
       <path id="DejaVuSans-47" d="M 3809 666 
L 3809 1919 
L 2778 1919 
L 2778 2438 
L 4434 2438 
L 4434 434 
Q 4069 175 3628 42 
Q 3188 -91 2688 -91 
Q 1594 -91 976 548 
Q 359 1188 359 2328 
Q 359 3472 976 4111 
Q 1594 4750 2688 4750 
Q 3144 4750 3555 4637 
Q 3966 4525 4313 4306 
L 4313 3634 
Q 3963 3931 3569 4081 
Q 3175 4231 2741 4231 
Q 1884 4231 1454 3753 
Q 1025 3275 1025 2328 
Q 1025 1384 1454 906 
Q 1884 428 2741 428 
Q 3075 428 3337 486 
Q 3600 544 3809 666 
z
" transform="scale(0.015625)"/>
       <path id="DejaVuSans-65" d="M 3597 1894 
L 3597 1613 
L 953 1613 
Q 991 1019 1311 708 
Q 1631 397 2203 397 
Q 2534 397 2845 478 
Q 3156 559 3463 722 
L 3463 178 
Q 3153 47 2828 -22 
Q 2503 -91 2169 -91 
Q 1331 -91 842 396 
Q 353 884 353 1716 
Q 353 2575 817 3079 
Q 1281 3584 2069 3584 
Q 2775 3584 3186 3129 
Q 3597 2675 3597 1894 
z
M 3022 2063 
Q 3016 2534 2758 2815 
Q 2500 3097 2075 3097 
Q 1594 3097 1305 2825 
Q 1016 2553 972 2059 
L 3022 2063 
z
" transform="scale(0.015625)"/>
       <path id="DejaVuSans-6e" d="M 3513 2113 
L 3513 0 
L 2938 0 
L 2938 2094 
Q 2938 2591 2744 2837 
Q 2550 3084 2163 3084 
Q 1697 3084 1428 2787 
Q 1159 2491 1159 1978 
L 1159 0 
L 581 0 
L 581 3500 
L 1159 3500 
L 1159 2956 
Q 1366 3272 1645 3428 
Q 1925 3584 2291 3584 
Q 2894 3584 3203 3211 
Q 3513 2838 3513 2113 
z
" transform="scale(0.015625)"/>
       <path id="DejaVuSans-72" d="M 2631 2963 
Q 2534 3019 2420 3045 
Q 2306 3072 2169 3072 
Q 1681 3072 1420 2755 
Q 1159 2438 1159 1844 
L 1159 0 
L 581 0 
L 581 3500 
L 1159 3500 
L 1159 2956 
Q 1341 3275 1631 3429 
Q 1922 3584 2338 3584 
Q 2397 3584 2469 3576 
Q 2541 3569 2628 3553 
L 2631 2963 
z
" transform="scale(0.015625)"/>
       <path id="DejaVuSans-61" d="M 2194 1759 
Q 1497 1759 1228 1600 
Q 959 1441 959 1056 
Q 959 750 1161 570 
Q 1363 391 1709 391 
Q 2188 391 2477 730 
Q 2766 1069 2766 1631 
L 2766 1759 
L 2194 1759 
z
M 3341 1997 
L 3341 0 
L 2766 0 
L 2766 531 
Q 2569 213 2275 61 
Q 1981 -91 1556 -91 
Q 1019 -91 701 211 
Q 384 513 384 1019 
Q 384 1609 779 1909 
Q 1175 2209 1959 2209 
L 2766 2209 
L 2766 2266 
Q 2766 2663 2505 2880 
Q 2244 3097 1772 3097 
Q 1472 3097 1187 3025 
Q 903 2953 641 2809 
L 641 3341 
Q 956 3463 1253 3523 
Q 1550 3584 1831 3584 
Q 2591 3584 2966 3190 
Q 3341 2797 3341 1997 
z
" transform="scale(0.015625)"/>
       <path id="DejaVuSans-74" d="M 1172 4494 
L 1172 3500 
L 2356 3500 
L 2356 3053 
L 1172 3053 
L 1172 1153 
Q 1172 725 1289 603 
Q 1406 481 1766 481 
L 2356 481 
L 2356 0 
L 1766 0 
Q 1100 0 847 248 
Q 594 497 594 1153 
L 594 3053 
L 172 3053 
L 172 3500 
L 594 3500 
L 594 4494 
L 1172 4494 
z
" transform="scale(0.015625)"/>
       <path id="DejaVuSans-69" d="M 603 3500 
L 1178 3500 
L 1178 0 
L 603 0 
L 603 3500 
z
M 603 4863 
L 1178 4863 
L 1178 4134 
L 603 4134 
L 603 4863 
z
" transform="scale(0.015625)"/>
       <path id="DejaVuSans-6f" d="M 1959 3097 
Q 1497 3097 1228 2736 
Q 959 2375 959 1747 
Q 959 1119 1226 758 
Q 1494 397 1959 397 
Q 2419 397 2687 759 
Q 2956 1122 2956 1747 
Q 2956 2369 2687 2733 
Q 2419 3097 1959 3097 
z
M 1959 3584 
Q 2709 3584 3137 3096 
Q 3566 2609 3566 1747 
Q 3566 888 3137 398 
Q 2709 -91 1959 -91 
Q 1206 -91 779 398 
Q 353 888 353 1747 
Q 353 2609 779 3096 
Q 1206 3584 1959 3584 
z
" transform="scale(0.015625)"/>
       <path id="DejaVuSans-73" d="M 2834 3397 
L 2834 2853 
Q 2591 2978 2328 3040 
Q 2066 3103 1784 3103 
Q 1356 3103 1142 2972 
Q 928 2841 928 2578 
Q 928 2378 1081 2264 
Q 1234 2150 1697 2047 
L 1894 2003 
Q 2506 1872 2764 1633 
Q 3022 1394 3022 966 
Q 3022 478 2636 193 
Q 2250 -91 1575 -91 
Q 1294 -91 989 -36 
Q 684 19 347 128 
L 347 722 
Q 666 556 975 473 
Q 1284 391 1588 391 
Q 1994 391 2212 530 
Q 2431 669 2431 922 
Q 2431 1156 2273 1281 
Q 2116 1406 1581 1522 
L 1381 1569 
Q 847 1681 609 1914 
Q 372 2147 372 2553 
Q 372 3047 722 3315 
Q 1072 3584 1716 3584 
Q 2034 3584 2315 3537 
Q 2597 3491 2834 3397 
z
" transform="scale(0.015625)"/>
      </defs>
      <use xlink:href="#DejaVuSans-47"/>
      <use xlink:href="#DejaVuSans-65" transform="translate(77.490234 0)"/>
      <use xlink:href="#DejaVuSans-6e" transform="translate(139.013672 0)"/>
      <use xlink:href="#DejaVuSans-65" transform="translate(202.392578 0)"/>
      <use xlink:href="#DejaVuSans-72" transform="translate(263.916016 0)"/>
      <use xlink:href="#DejaVuSans-61" transform="translate(305.029297 0)"/>
      <use xlink:href="#DejaVuSans-74" transform="translate(366.308594 0)"/>
      <use xlink:href="#DejaVuSans-69" transform="translate(405.517578 0)"/>
      <use xlink:href="#DejaVuSans-6f" transform="translate(433.300781 0)"/>
      <use xlink:href="#DejaVuSans-6e" transform="translate(494.482422 0)"/>
      <use xlink:href="#DejaVuSans-73" transform="translate(557.861328 0)"/>
     </g>
    </g>
   </g>
   <g id="matplotlib.axis_2">
    <g id="ytick_1">
     <g id="line2d_17">
      <path d="M 57.6 259.945928 
L 414.72 259.945928 
" clip-path="url(#p46856399b7)" style="fill: none; stroke: #b0b0b0; stroke-width: 0.8; stroke-linecap: square"/>
     </g>
     <g id="line2d_18">
      <defs>
       <path id="m7f1fbdf8f9" d="M 0 0 
L -3.5 0 
" style="stroke: #000000; stroke-width: 0.8"/>
      </defs>
      <g>
       <use xlink:href="#m7f1fbdf8f9" x="57.6" y="259.945928" style="stroke: #000000; stroke-width: 0.8"/>
      </g>
     </g>
     <g id="text_10">
      <!-- $\mathdefault{10^{2}}$ -->
      <g transform="translate(33 263.745147) scale(0.1 -0.1)">
       <use xlink:href="#DejaVuSans-31" transform="translate(0 0.765625)"/>
       <use xlink:href="#DejaVuSans-30" transform="translate(63.623047 0.765625)"/>
       <use xlink:href="#DejaVuSans-32" transform="translate(128.203125 39.046875) scale(0.7)"/>
      </g>
     </g>
    </g>
    <g id="text_11">
     <!-- Fitness -->
     <g transform="translate(26.920312 191.845187) rotate(-90) scale(0.1 -0.1)">
      <defs>
       <path id="DejaVuSans-46" d="M 628 4666 
L 3309 4666 
L 3309 4134 
L 1259 4134 
L 1259 2759 
L 3109 2759 
L 3109 2228 
L 1259 2228 
L 1259 0 
L 628 0 
L 628 4666 
z
" transform="scale(0.015625)"/>
      </defs>
      <use xlink:href="#DejaVuSans-46"/>
      <use xlink:href="#DejaVuSans-69" transform="translate(50.269531 0)"/>
      <use xlink:href="#DejaVuSans-74" transform="translate(78.052734 0)"/>
      <use xlink:href="#DejaVuSans-6e" transform="translate(117.261719 0)"/>
      <use xlink:href="#DejaVuSans-65" transform="translate(180.640625 0)"/>
      <use xlink:href="#DejaVuSans-73" transform="translate(242.164062 0)"/>
      <use xlink:href="#DejaVuSans-73" transform="translate(294.263672 0)"/>
     </g>
    </g>
   </g>
   <g id="line2d_19">
    <path d="M 73.832727 295.488 
L 76.011617 289.41039 
L 78.190506 286.379555 
L 80.369396 280.735441 
L 82.548286 269.810118 
L 84.727175 270.127758 
L 86.906065 266.460853 
L 89.084954 265.980275 
L 91.263844 266.709393 
L 93.442733 259.838384 
L 95.621623 269.749327 
L 97.800513 263.319911 
L 99.979402 255.709554 
L 102.158292 263.389717 
L 104.337181 264.600767 
L 106.516071 262.736225 
L 108.69496 256.290555 
L 110.87385 258.143303 
L 113.052739 248.234091 
L 115.231629 249.484315 
L 117.410519 254.78864 
L 119.589408 253.355488 
L 121.768298 261.260191 
L 123.947187 261.085179 
L 126.126077 258.792444 
L 128.304966 260.469904 
L 130.483856 252.735563 
L 132.662746 252.90566 
L 134.841635 252.222328 
L 137.020525 248.948864 
L 139.199414 255.587037 
L 141.378304 256.983304 
L 143.557193 256.599204 
L 145.736083 253.431274 
L 147.914973 253.335253 
L 150.093862 254.230121 
L 152.272752 256.031018 
L 154.451641 250.696521 
L 156.630531 254.258857 
L 158.80942 248.750187 
L 160.98831 251.281367 
L 163.1672 248.40731 
L 165.346089 248.992173 
L 167.524979 254.334349 
L 169.703868 250.874424 
L 171.882758 251.186762 
L 174.061647 253.369655 
L 178.419426 251.767061 
L 180.598316 250.096216 
L 182.777206 251.349204 
L 184.956095 253.274828 
L 187.134985 248.771813 
L 189.313874 245.321901 
L 191.492764 239.822286 
L 193.671653 247.04952 
L 195.850543 248.157383 
L 198.029433 241.885971 
L 200.208322 245.937204 
L 202.387212 246.088524 
L 204.566101 243.317684 
L 206.744991 248.618183 
L 208.92388 250.784813 
L 211.10277 252.505008 
L 213.28166 250.758449 
L 215.460549 254.530728 
L 217.639439 257.422523 
L 219.818328 258.579446 
L 221.997218 255.996898 
L 224.176107 255.19736 
L 226.354997 251.76938 
L 228.533887 246.477185 
L 230.712776 253.402818 
L 232.891666 255.947325 
L 235.070555 251.952234 
L 237.249445 246.387709 
L 239.428334 253.315449 
L 241.607224 255.316623 
L 243.786113 247.878403 
L 245.965003 243.251147 
L 248.143893 251.114641 
L 250.322782 244.824201 
L 252.501672 251.702704 
L 254.680561 250.142005 
L 256.859451 248.365956 
L 259.03834 252.638447 
L 261.21723 248.961698 
L 263.39612 250.856422 
L 265.575009 253.889304 
L 267.753899 250.790433 
L 269.932788 253.894706 
L 272.111678 256.257509 
L 274.290567 252.955301 
L 276.469457 247.719486 
L 278.648347 249.016527 
L 280.827236 251.983296 
L 283.006126 253.207827 
L 285.185015 244.506085 
L 287.363905 250.594628 
L 289.542794 251.289027 
L 291.721684 250.213701 
L 293.900574 256.329851 
L 296.079463 253.783601 
L 298.258353 254.338889 
L 300.437242 256.109872 
L 302.616132 256.840255 
L 304.795021 247.866626 
L 306.973911 253.927198 
L 309.1528 256.224306 
L 311.33169 256.151914 
L 313.51058 253.855769 
L 315.689469 258.398839 
L 317.868359 253.340356 
L 320.047248 252.729491 
L 322.226138 254.099927 
L 324.405027 255.077494 
L 326.583917 253.368271 
L 330.941696 249.412947 
L 333.120586 246.703208 
L 335.299475 249.181225 
L 337.478365 251.311572 
L 341.836144 246.691355 
L 344.015034 251.334585 
L 346.193923 253.015104 
L 348.372813 246.873168 
L 350.551702 252.676881 
L 352.730592 253.952515 
L 354.909481 253.744628 
L 357.088371 248.375801 
L 359.267261 250.630574 
L 361.44615 256.750856 
L 363.62504 251.184773 
L 365.803929 242.605383 
L 367.982819 244.42151 
L 370.161708 250.891623 
L 372.340598 251.535269 
L 374.519487 248.360049 
L 376.698377 250.524756 
L 378.877267 256.172594 
L 381.056156 251.553977 
L 383.235046 248.912296 
L 385.413935 248.121629 
L 387.592825 249.932039 
L 389.771714 252.220311 
L 391.950604 250.698495 
L 394.129494 245.952717 
L 396.308383 244.552932 
L 398.487273 241.602069 
L 398.487273 241.602069 
" clip-path="url(#p46856399b7)" style="fill: none; stroke: #0000ff; stroke-width: 1.5; stroke-linecap: square"/>
   </g>
   <g id="line2d_20">
    <path d="M 73.832727 258.765983 
L 76.011617 249.741279 
L 78.190506 246.823163 
L 80.369396 241.615888 
L 82.548286 226.616901 
L 84.727175 223.823893 
L 86.906065 221.626799 
L 89.084954 225.554244 
L 91.263844 220.785256 
L 93.442733 220.34901 
L 95.621623 227.965198 
L 97.800513 217.910948 
L 99.979402 210.217302 
L 102.158292 224.828763 
L 104.337181 223.393306 
L 106.516071 223.398704 
L 108.69496 216.170264 
L 110.87385 218.766898 
L 113.052739 204.384969 
L 115.231629 207.246249 
L 117.410519 214.8464 
L 119.589408 209.281189 
L 121.768298 217.532952 
L 123.947187 218.076531 
L 126.126077 215.979644 
L 128.304966 216.006897 
L 130.483856 211.50304 
L 132.662746 212.509072 
L 134.841635 210.747054 
L 137.020525 206.444623 
L 139.199414 218.211137 
L 141.378304 211.870582 
L 143.557193 214.802725 
L 145.736083 212.727047 
L 147.914973 215.253536 
L 150.093862 212.676668 
L 152.272752 215.03983 
L 154.451641 210.817998 
L 156.630531 216.359089 
L 158.80942 203.084054 
L 160.98831 209.450305 
L 163.1672 205.393486 
L 165.346089 208.86918 
L 167.524979 210.496396 
L 169.703868 208.884887 
L 171.882758 210.04053 
L 174.061647 213.567913 
L 176.240537 212.009468 
L 178.419426 213.123511 
L 180.598316 207.561348 
L 182.777206 210.815504 
L 184.956095 215.97347 
L 187.134985 209.520972 
L 189.313874 203.914064 
L 191.492764 192.141186 
L 193.671653 207.19229 
L 195.850543 202.693938 
L 198.029433 200.929759 
L 200.208322 204.163788 
L 202.387212 204.733966 
L 204.566101 204.236179 
L 206.744991 206.898381 
L 208.92388 209.225162 
L 211.10277 210.79273 
L 213.28166 210.688947 
L 215.460549 212.36517 
L 217.639439 218.008635 
L 219.818328 211.736795 
L 221.997218 219.015995 
L 224.176107 213.489065 
L 228.533887 204.705085 
L 230.712776 212.674959 
L 232.891666 216.581773 
L 235.070555 208.979009 
L 237.249445 205.201313 
L 239.428334 210.354942 
L 241.607224 214.348829 
L 243.786113 208.748153 
L 245.965003 202.505341 
L 248.143893 215.757636 
L 250.322782 204.061434 
L 252.501672 216.745151 
L 254.680561 216.418834 
L 256.859451 210.75274 
L 259.03834 217.393926 
L 261.21723 211.376416 
L 263.39612 208.873901 
L 265.575009 216.328394 
L 267.753899 209.75122 
L 269.932788 211.675498 
L 272.111678 214.388424 
L 274.290567 219.081882 
L 276.469457 210.276321 
L 278.648347 211.416256 
L 283.006126 214.214749 
L 285.185015 205.024448 
L 287.363905 215.704128 
L 289.542794 218.548894 
L 291.721684 212.453069 
L 293.900574 219.863519 
L 296.079463 215.74511 
L 298.258353 215.70935 
L 300.437242 219.288102 
L 302.616132 216.992429 
L 304.795021 204.796863 
L 306.973911 213.183454 
L 309.1528 212.936062 
L 311.33169 220.047566 
L 313.51058 211.633803 
L 315.689469 223.629126 
L 317.868359 213.561175 
L 320.047248 211.106671 
L 322.226138 218.652755 
L 324.405027 216.009564 
L 326.583917 214.927101 
L 328.762807 210.262966 
L 330.941696 208.309731 
L 333.120586 210.052408 
L 335.299475 212.199235 
L 339.657254 210.884012 
L 341.836144 207.248516 
L 344.015034 211.895772 
L 346.193923 215.1257 
L 348.372813 209.528316 
L 350.551702 215.310571 
L 352.730592 215.357282 
L 354.909481 212.460631 
L 357.088371 208.278351 
L 359.267261 215.056525 
L 361.44615 220.914683 
L 363.62504 209.885738 
L 365.803929 202.839101 
L 367.982819 206.672226 
L 370.161708 206.608767 
L 372.340598 216.273055 
L 374.519487 209.070553 
L 376.698377 210.405991 
L 378.877267 218.627692 
L 383.235046 209.6802 
L 385.413935 206.097319 
L 387.592825 213.328931 
L 389.771714 212.591882 
L 391.950604 207.311207 
L 394.129494 205.297094 
L 396.308383 203.004335 
L 398.487273 204.460707 
L 398.487273 204.460707 
" clip-path="url(#p46856399b7)" style="fill: none; stroke-dasharray: 9.6,2.4,1.5,2.4; stroke-dashoffset: 0; stroke: #008000; stroke-width: 1.5"/>
   </g>
   <g id="line2d_21">
    <path d="M 73.832727 182.015452 
L 76.011617 168.059567 
L 78.190506 174.111341 
L 80.369396 158.272857 
L 82.548286 148.004121 
L 84.727175 86.327409 
L 86.906065 114.826575 
L 89.084954 126.271514 
L 91.263844 115.251849 
L 93.442733 147.742657 
L 97.800513 116.105829 
L 99.979402 106.350349 
L 102.158292 140.841046 
L 104.337181 138.359123 
L 106.516071 159.112541 
L 108.69496 106.350349 
L 110.87385 143.871469 
L 113.052739 112.089704 
L 115.231629 87.038899 
L 117.410519 145.408641 
L 119.589408 118.044238 
L 121.768298 126.271514 
L 123.947187 133.987107 
L 126.126077 137.622045 
L 128.304966 108.172623 
L 130.483856 96.212341 
L 132.662746 89.554515 
L 134.841635 111.256989 
L 137.020525 110.635306 
L 139.199414 141.593249 
L 141.378304 108.172623 
L 143.557193 121.7715 
L 145.736083 129.034016 
L 147.914973 122.661361 
L 150.093862 122.215807 
L 152.272752 132.081959 
L 154.451641 130.667945 
L 156.630531 146.441749 
L 158.80942 93.961915 
L 160.98831 127.877129 
L 163.1672 123.332044 
L 165.346089 133.987107 
L 167.524979 100.228975 
L 169.703868 99.648914 
L 171.882758 130.667945 
L 174.061647 128.338873 
L 176.240537 152.516167 
L 178.419426 143.871469 
L 180.598316 122.884608 
L 182.777206 129.732214 
L 184.956095 113.768344 
L 187.134985 99.070964 
L 189.313874 108.172623 
L 191.492764 99.26338 
L 193.671653 149.317941 
L 195.850543 58.853363 
L 198.029433 107.360141 
L 200.208322 130.19939 
L 202.387212 112.089704 
L 204.566101 112.298566 
L 206.744991 105.147011 
L 208.92388 125.134502 
L 211.10277 127.646759 
L 213.28166 126.271514 
L 215.460549 105.147011 
L 217.639439 106.350349 
L 219.818328 53.568 
L 221.997218 143.616714 
L 224.176107 133.74771 
L 226.354997 128.107833 
L 228.533887 106.149158 
L 230.712776 119.349778 
L 232.891666 142.854891 
L 235.070555 122.884608 
L 237.249445 92.110614 
L 239.428334 120.226138 
L 241.607224 104.548743 
L 243.786113 118.913404 
L 245.965003 106.149158 
L 248.143893 80.747389 
L 250.322782 95.458651 
L 252.501672 132.556108 
L 254.680561 148.528346 
L 256.859451 105.346935 
L 259.03834 138.359123 
L 261.21723 104.151146 
L 263.39612 122.884608 
L 265.575009 146.441749 
L 267.753899 113.557541 
L 269.932788 67.756864 
L 272.111678 86.682756 
L 274.290567 136.888373 
L 276.469457 110.842264 
L 278.648347 111.256989 
L 280.827236 126.957648 
L 283.006126 136.401134 
L 285.185015 95.270786 
L 287.363905 152.516167 
L 289.542794 163.378864 
L 291.721684 124.456181 
L 293.900574 132.556108 
L 296.079463 113.768344 
L 298.258353 133.987107 
L 300.437242 152.785615 
L 302.616132 109.604544 
L 304.795021 80.747389 
L 306.973911 116.534547 
L 309.1528 92.848547 
L 311.33169 133.031677 
L 313.51058 102.374175 
L 315.689469 161.373645 
L 317.868359 145.15141 
L 320.047248 125.361254 
L 322.226138 141.091385 
L 324.405027 133.269996 
L 326.583917 140.841046 
L 328.762807 105.74754 
L 330.941696 139.595237 
L 333.120586 142.601759 
L 335.299475 144.894596 
L 337.478365 112.089704 
L 339.657254 110.635306 
L 341.836144 126.271514 
L 344.015034 111.049491 
L 346.193923 133.74771 
L 348.372813 130.902741 
L 350.551702 150.642718 
L 352.730592 153.325887 
L 354.909481 96.969624 
L 357.088371 89.917163 
L 359.267261 139.843618 
L 361.44615 146.960834 
L 363.62504 129.266408 
L 365.803929 105.74754 
L 367.982819 136.401134 
L 370.161708 82.470181 
L 372.340598 137.867358 
L 374.519487 113.557541 
L 376.698377 116.534547 
L 378.877267 144.382209 
L 381.056156 153.868004 
L 383.235046 123.108169 
L 385.413935 107.969113 
L 387.592825 148.266017 
L 391.950604 80.91883 
L 394.129494 102.570637 
L 396.308383 141.091385 
L 398.487273 126.728607 
L 398.487273 126.728607 
" clip-path="url(#p46856399b7)" style="fill: none; stroke: #ff0000; stroke-width: 1.5; stroke-linecap: square"/>
   </g>
   <g id="patch_3">
    <path d="M 57.6 307.584 
L 57.6 41.472 
" style="fill: none; stroke: #000000; stroke-width: 0.8; stroke-linejoin: miter; stroke-linecap: square"/>
   </g>
   <g id="patch_4">
    <path d="M 414.72 307.584 
L 414.72 41.472 
" style="fill: none; stroke: #000000; stroke-width: 0.8; stroke-linejoin: miter; stroke-linecap: square"/>
   </g>
   <g id="patch_5">
    <path d="M 57.6 307.584 
L 414.72 307.584 
" style="fill: none; stroke: #000000; stroke-width: 0.8; stroke-linejoin: miter; stroke-linecap: square"/>
   </g>
   <g id="patch_6">
    <path d="M 57.6 41.472 
L 414.72 41.472 
" style="fill: none; stroke: #000000; stroke-width: 0.8; stroke-linejoin: miter; stroke-linecap: square"/>
   </g>
   <g id="text_12">
    <!-- Population's average and best fitness -->
    <g transform="translate(123.529687 35.472) scale(0.12 -0.12)">
     <defs>
      <path id="DejaVuSans-50" d="M 1259 4147 
L 1259 2394 
L 2053 2394 
Q 2494 2394 2734 2622 
Q 2975 2850 2975 3272 
Q 2975 3691 2734 3919 
Q 2494 4147 2053 4147 
L 1259 4147 
z
M 628 4666 
L 2053 4666 
Q 2838 4666 3239 4311 
Q 3641 3956 3641 3272 
Q 3641 2581 3239 2228 
Q 2838 1875 2053 1875 
L 1259 1875 
L 1259 0 
L 628 0 
L 628 4666 
z
" transform="scale(0.015625)"/>
      <path id="DejaVuSans-70" d="M 1159 525 
L 1159 -1331 
L 581 -1331 
L 581 3500 
L 1159 3500 
L 1159 2969 
Q 1341 3281 1617 3432 
Q 1894 3584 2278 3584 
Q 2916 3584 3314 3078 
Q 3713 2572 3713 1747 
Q 3713 922 3314 415 
Q 2916 -91 2278 -91 
Q 1894 -91 1617 61 
Q 1341 213 1159 525 
z
M 3116 1747 
Q 3116 2381 2855 2742 
Q 2594 3103 2138 3103 
Q 1681 3103 1420 2742 
Q 1159 2381 1159 1747 
Q 1159 1113 1420 752 
Q 1681 391 2138 391 
Q 2594 391 2855 752 
Q 3116 1113 3116 1747 
z
" transform="scale(0.015625)"/>
      <path id="DejaVuSans-75" d="M 544 1381 
L 544 3500 
L 1119 3500 
L 1119 1403 
Q 1119 906 1312 657 
Q 1506 409 1894 409 
Q 2359 409 2629 706 
Q 2900 1003 2900 1516 
L 2900 3500 
L 3475 3500 
L 3475 0 
L 2900 0 
L 2900 538 
Q 2691 219 2414 64 
Q 2138 -91 1772 -91 
Q 1169 -91 856 284 
Q 544 659 544 1381 
z
M 1991 3584 
L 1991 3584 
z
" transform="scale(0.015625)"/>
      <path id="DejaVuSans-6c" d="M 603 4863 
L 1178 4863 
L 1178 0 
L 603 0 
L 603 4863 
z
" transform="scale(0.015625)"/>
      <path id="DejaVuSans-27" d="M 1147 4666 
L 1147 2931 
L 616 2931 
L 616 4666 
L 1147 4666 
z
" transform="scale(0.015625)"/>
      <path id="DejaVuSans-20" transform="scale(0.015625)"/>
      <path id="DejaVuSans-76" d="M 191 3500 
L 800 3500 
L 1894 563 
L 2988 3500 
L 3597 3500 
L 2284 0 
L 1503 0 
L 191 3500 
z
" transform="scale(0.015625)"/>
      <path id="DejaVuSans-67" d="M 2906 1791 
Q 2906 2416 2648 2759 
Q 2391 3103 1925 3103 
Q 1463 3103 1205 2759 
Q 947 2416 947 1791 
Q 947 1169 1205 825 
Q 1463 481 1925 481 
Q 2391 481 2648 825 
Q 2906 1169 2906 1791 
z
M 3481 434 
Q 3481 -459 3084 -895 
Q 2688 -1331 1869 -1331 
Q 1566 -1331 1297 -1286 
Q 1028 -1241 775 -1147 
L 775 -588 
Q 1028 -725 1275 -790 
Q 1522 -856 1778 -856 
Q 2344 -856 2625 -561 
Q 2906 -266 2906 331 
L 2906 616 
Q 2728 306 2450 153 
Q 2172 0 1784 0 
Q 1141 0 747 490 
Q 353 981 353 1791 
Q 353 2603 747 3093 
Q 1141 3584 1784 3584 
Q 2172 3584 2450 3431 
Q 2728 3278 2906 2969 
L 2906 3500 
L 3481 3500 
L 3481 434 
z
" transform="scale(0.015625)"/>
      <path id="DejaVuSans-64" d="M 2906 2969 
L 2906 4863 
L 3481 4863 
L 3481 0 
L 2906 0 
L 2906 525 
Q 2725 213 2448 61 
Q 2172 -91 1784 -91 
Q 1150 -91 751 415 
Q 353 922 353 1747 
Q 353 2572 751 3078 
Q 1150 3584 1784 3584 
Q 2172 3584 2448 3432 
Q 2725 3281 2906 2969 
z
M 947 1747 
Q 947 1113 1208 752 
Q 1469 391 1925 391 
Q 2381 391 2643 752 
Q 2906 1113 2906 1747 
Q 2906 2381 2643 2742 
Q 2381 3103 1925 3103 
Q 1469 3103 1208 2742 
Q 947 2381 947 1747 
z
" transform="scale(0.015625)"/>
      <path id="DejaVuSans-62" d="M 3116 1747 
Q 3116 2381 2855 2742 
Q 2594 3103 2138 3103 
Q 1681 3103 1420 2742 
Q 1159 2381 1159 1747 
Q 1159 1113 1420 752 
Q 1681 391 2138 391 
Q 2594 391 2855 752 
Q 3116 1113 3116 1747 
z
M 1159 2969 
Q 1341 3281 1617 3432 
Q 1894 3584 2278 3584 
Q 2916 3584 3314 3078 
Q 3713 2572 3713 1747 
Q 3713 922 3314 415 
Q 2916 -91 2278 -91 
Q 1894 -91 1617 61 
Q 1341 213 1159 525 
L 1159 0 
L 581 0 
L 581 4863 
L 1159 4863 
L 1159 2969 
z
" transform="scale(0.015625)"/>
      <path id="DejaVuSans-66" d="M 2375 4863 
L 2375 4384 
L 1825 4384 
Q 1516 4384 1395 4259 
Q 1275 4134 1275 3809 
L 1275 3500 
L 2222 3500 
L 2222 3053 
L 1275 3053 
L 1275 0 
L 697 0 
L 697 3053 
L 147 3053 
L 147 3500 
L 697 3500 
L 697 3744 
Q 697 4328 969 4595 
Q 1241 4863 1831 4863 
L 2375 4863 
z
" transform="scale(0.015625)"/>
     </defs>
     <use xlink:href="#DejaVuSans-50"/>
     <use xlink:href="#DejaVuSans-6f" transform="translate(56.677734 0)"/>
     <use xlink:href="#DejaVuSans-70" transform="translate(117.859375 0)"/>
     <use xlink:href="#DejaVuSans-75" transform="translate(181.335938 0)"/>
     <use xlink:href="#DejaVuSans-6c" transform="translate(244.714844 0)"/>
     <use xlink:href="#DejaVuSans-61" transform="translate(272.498047 0)"/>
     <use xlink:href="#DejaVuSans-74" transform="translate(333.777344 0)"/>
     <use xlink:href="#DejaVuSans-69" transform="translate(372.986328 0)"/>
     <use xlink:href="#DejaVuSans-6f" transform="translate(400.769531 0)"/>
     <use xlink:href="#DejaVuSans-6e" transform="translate(461.951172 0)"/>
     <use xlink:href="#DejaVuSans-27" transform="translate(525.330078 0)"/>
     <use xlink:href="#DejaVuSans-73" transform="translate(552.820312 0)"/>
     <use xlink:href="#DejaVuSans-20" transform="translate(604.919922 0)"/>
     <use xlink:href="#DejaVuSans-61" transform="translate(636.707031 0)"/>
     <use xlink:href="#DejaVuSans-76" transform="translate(697.986328 0)"/>
     <use xlink:href="#DejaVuSans-65" transform="translate(757.166016 0)"/>
     <use xlink:href="#DejaVuSans-72" transform="translate(818.689453 0)"/>
     <use xlink:href="#DejaVuSans-61" transform="translate(859.802734 0)"/>
     <use xlink:href="#DejaVuSans-67" transform="translate(921.082031 0)"/>
     <use xlink:href="#DejaVuSans-65" transform="translate(984.558594 0)"/>
     <use xlink:href="#DejaVuSans-20" transform="translate(1046.082031 0)"/>
     <use xlink:href="#DejaVuSans-61" transform="translate(1077.869141 0)"/>
     <use xlink:href="#DejaVuSans-6e" transform="translate(1139.148438 0)"/>
     <use xlink:href="#DejaVuSans-64" transform="translate(1202.527344 0)"/>
     <use xlink:href="#DejaVuSans-20" transform="translate(1266.003906 0)"/>
     <use xlink:href="#DejaVuSans-62" transform="translate(1297.791016 0)"/>
     <use xlink:href="#DejaVuSans-65" transform="translate(1361.267578 0)"/>
     <use xlink:href="#DejaVuSans-73" transform="translate(1422.791016 0)"/>
     <use xlink:href="#DejaVuSans-74" transform="translate(1474.890625 0)"/>
     <use xlink:href="#DejaVuSans-20" transform="translate(1514.099609 0)"/>
     <use xlink:href="#DejaVuSans-66" transform="translate(1545.886719 0)"/>
     <use xlink:href="#DejaVuSans-69" transform="translate(1581.091797 0)"/>
     <use xlink:href="#DejaVuSans-74" transform="translate(1608.875 0)"/>
     <use xlink:href="#DejaVuSans-6e" transform="translate(1648.083984 0)"/>
     <use xlink:href="#DejaVuSans-65" transform="translate(1711.462891 0)"/>
     <use xlink:href="#DejaVuSans-73" transform="translate(1772.986328 0)"/>
     <use xlink:href="#DejaVuSans-73" transform="translate(1825.085938 0)"/>
    </g>
   </g>
   <g id="legend_1">
    <g id="patch_7">
     <path d="M 199.689687 198.045187 
L 272.630313 198.045187 
Q 274.630313 198.045187 274.630313 196.045187 
L 274.630313 153.010812 
Q 274.630313 151.010812 272.630313 151.010812 
L 199.689687 151.010812 
Q 197.689687 151.010812 197.689687 153.010812 
L 197.689687 196.045187 
Q 197.689687 198.045187 199.689687 198.045187 
z
" style="fill: #ffffff; opacity: 0.8; stroke: #cccccc; stroke-linejoin: miter"/>
    </g>
    <g id="line2d_22">
     <path d="M 201.689687 159.10925 
L 211.689687 159.10925 
L 221.689687 159.10925 
" style="fill: none; stroke: #0000ff; stroke-width: 1.5; stroke-linecap: square"/>
    </g>
    <g id="text_13">
     <!-- average -->
     <g transform="translate(229.689687 162.60925) scale(0.1 -0.1)">
      <use xlink:href="#DejaVuSans-61"/>
      <use xlink:href="#DejaVuSans-76" transform="translate(61.279297 0)"/>
      <use xlink:href="#DejaVuSans-65" transform="translate(120.458984 0)"/>
      <use xlink:href="#DejaVuSans-72" transform="translate(181.982422 0)"/>
      <use xlink:href="#DejaVuSans-61" transform="translate(223.095703 0)"/>
      <use xlink:href="#DejaVuSans-67" transform="translate(284.375 0)"/>
      <use xlink:href="#DejaVuSans-65" transform="translate(347.851562 0)"/>
     </g>
    </g>
    <g id="line2d_23">
     <path d="M 201.689687 173.787375 
L 211.689687 173.787375 
L 221.689687 173.787375 
" style="fill: none; stroke-dasharray: 9.6,2.4,1.5,2.4; stroke-dashoffset: 0; stroke: #008000; stroke-width: 1.5"/>
    </g>
    <g id="text_14">
     <!-- +1 sd -->
     <g transform="translate(229.689687 177.287375) scale(0.1 -0.1)">
      <defs>
       <path id="DejaVuSans-2b" d="M 2944 4013 
L 2944 2272 
L 4684 2272 
L 4684 1741 
L 2944 1741 
L 2944 0 
L 2419 0 
L 2419 1741 
L 678 1741 
L 678 2272 
L 2419 2272 
L 2419 4013 
L 2944 4013 
z
" transform="scale(0.015625)"/>
      </defs>
      <use xlink:href="#DejaVuSans-2b"/>
      <use xlink:href="#DejaVuSans-31" transform="translate(83.789062 0)"/>
      <use xlink:href="#DejaVuSans-20" transform="translate(147.412109 0)"/>
      <use xlink:href="#DejaVuSans-73" transform="translate(179.199219 0)"/>
      <use xlink:href="#DejaVuSans-64" transform="translate(231.298828 0)"/>
     </g>
    </g>
    <g id="line2d_24">
     <path d="M 201.689687 188.4655 
L 211.689687 188.4655 
L 221.689687 188.4655 
" style="fill: none; stroke: #ff0000; stroke-width: 1.5; stroke-linecap: square"/>
    </g>
    <g id="text_15">
     <!-- best -->
     <g transform="translate(229.689687 191.9655) scale(0.1 -0.1)">
      <use xlink:href="#DejaVuSans-62"/>
      <use xlink:href="#DejaVuSans-65" transform="translate(63.476562 0)"/>
      <use xlink:href="#DejaVuSans-73" transform="translate(125 0)"/>
      <use xlink:href="#DejaVuSans-74" transform="translate(177.099609 0)"/>
     </g>
    </g>
   </g>
  </g>
 </g>
 <defs>
  <clipPath id="p46856399b7">
   <rect x="57.6" y="41.472" width="357.12" height="266.112"/>
  </clipPath>
 </defs>
</svg>
