<?xml version="1.0" encoding="UTF-8" standalone="no"?>
<!DOCTYPE svg PUBLIC "-//W3C//DTD SVG 1.1//EN"
 "http://www.w3.org/Graphics/SVG/1.1/DTD/svg11.dtd">
<!-- Generated by graphviz version 14.0.2 (20251019.1705)
 -->
<!-- Pages: 1 -->
<svg width="1038pt" height="218pt"
 viewBox="0.00 0.00 1038.00 218.00" xmlns="http://www.w3.org/2000/svg" xmlns:xlink="http://www.w3.org/1999/xlink">
<g id="graph0" class="graph" transform="scale(1 1) rotate(0) translate(4 213.89)">
<polygon fill="white" stroke="none" points="-4,4 -4,-213.89 1033.97,-213.89 1033.97,4 -4,4"/>
<!-- &#45;1 -->
<g id="node1" class="node">
<title>&#45;1</title>
<polygon fill="lightgray" stroke="black" points="23.5,-191.91 0,-191.91 0,-173.41 23.5,-173.41 23.5,-191.91"/>
<text xml:space="preserve" text-anchor="middle" x="11.75" y="-179.36" font-family="Times New Roman,serif" font-size="9.00">&#45;1</text>
</g>
<!-- &#45;2 -->
<g id="node2" class="node">
<title>&#45;2</title>
<polygon fill="lightgray" stroke="black" points="65.5,-191.91 42,-191.91 42,-173.41 65.5,-173.41 65.5,-191.91"/>
<text xml:space="preserve" text-anchor="middle" x="53.75" y="-179.36" font-family="Times New Roman,serif" font-size="9.00">&#45;2</text>
</g>
<!-- &#45;3 -->
<g id="node3" class="node">
<title>&#45;3</title>
<polygon fill="lightgray" stroke="black" points="107.5,-191.91 84,-191.91 84,-173.41 107.5,-173.41 107.5,-191.91"/>
<text xml:space="preserve" text-anchor="middle" x="95.75" y="-179.36" font-family="Times New Roman,serif" font-size="9.00">&#45;3</text>
</g>
<!-- 75920 -->
<g id="node26" class="node">
<title>75920</title>
<ellipse fill="white" stroke="black" cx="95.75" cy="-92.21" rx="27.22" ry="27.22"/>
<text xml:space="preserve" text-anchor="middle" x="95.75" y="-88.91" font-family="Times New Roman,serif" font-size="9.00">75920</text>
</g>
<!-- &#45;3&#45;&gt;75920 -->
<g id="edge2" class="edge">
<title>&#45;3&#45;&gt;75920</title>
<path fill="none" stroke="green" stroke-width="0.17" d="M95.75,-173.18C95.75,-163.18 95.75,-145.89 95.75,-129.94"/>
<polygon fill="green" stroke="green" stroke-width="0.17" points="99.25,-130 95.75,-120 92.25,-130 99.25,-130"/>
</g>
<!-- &#45;4 -->
<g id="node4" class="node">
<title>&#45;4</title>
<polygon fill="lightgray" stroke="black" points="149.5,-191.91 126,-191.91 126,-173.41 149.5,-173.41 149.5,-191.91"/>
<text xml:space="preserve" text-anchor="middle" x="137.75" y="-179.36" font-family="Times New Roman,serif" font-size="9.00">&#45;4</text>
</g>
<!-- &#45;5 -->
<g id="node5" class="node">
<title>&#45;5</title>
<polygon fill="lightgray" stroke="black" points="191.5,-191.91 168,-191.91 168,-173.41 191.5,-173.41 191.5,-191.91"/>
<text xml:space="preserve" text-anchor="middle" x="179.75" y="-179.36" font-family="Times New Roman,serif" font-size="9.00">&#45;5</text>
</g>
<!-- &#45;6 -->
<g id="node6" class="node">
<title>&#45;6</title>
<polygon fill="lightgray" stroke="black" points="233.5,-191.91 210,-191.91 210,-173.41 233.5,-173.41 233.5,-191.91"/>
<text xml:space="preserve" text-anchor="middle" x="221.75" y="-179.36" font-family="Times New Roman,serif" font-size="9.00">&#45;6</text>
</g>
<!-- &#45;7 -->
<g id="node7" class="node">
<title>&#45;7</title>
<polygon fill="lightgray" stroke="black" points="275.5,-191.91 252,-191.91 252,-173.41 275.5,-173.41 275.5,-191.91"/>
<text xml:space="preserve" text-anchor="middle" x="263.75" y="-179.36" font-family="Times New Roman,serif" font-size="9.00">&#45;7</text>
</g>
<!-- &#45;8 -->
<g id="node8" class="node">
<title>&#45;8</title>
<polygon fill="lightgray" stroke="black" points="317.5,-191.91 294,-191.91 294,-173.41 317.5,-173.41 317.5,-191.91"/>
<text xml:space="preserve" text-anchor="middle" x="305.75" y="-179.36" font-family="Times New Roman,serif" font-size="9.00">&#45;8</text>
</g>
<!-- &#45;9 -->
<g id="node9" class="node">
<title>&#45;9</title>
<polygon fill="lightgray" stroke="black" points="359.5,-191.91 336,-191.91 336,-173.41 359.5,-173.41 359.5,-191.91"/>
<text xml:space="preserve" text-anchor="middle" x="347.75" y="-179.36" font-family="Times New Roman,serif" font-size="9.00">&#45;9</text>
</g>
<!-- &#45;10 -->
<g id="node10" class="node">
<title>&#45;10</title>
<polygon fill="lightgray" stroke="black" points="405.75,-191.91 377.75,-191.91 377.75,-173.41 405.75,-173.41 405.75,-191.91"/>
<text xml:space="preserve" text-anchor="middle" x="391.75" y="-179.36" font-family="Times New Roman,serif" font-size="9.00">&#45;10</text>
</g>
<!-- &#45;11 -->
<g id="node11" class="node">
<title>&#45;11</title>
<polygon fill="lightgray" stroke="black" points="451.75,-191.91 423.75,-191.91 423.75,-173.41 451.75,-173.41 451.75,-191.91"/>
<text xml:space="preserve" text-anchor="middle" x="437.75" y="-179.36" font-family="Times New Roman,serif" font-size="9.00">&#45;11</text>
</g>
<!-- &#45;12 -->
<g id="node12" class="node">
<title>&#45;12</title>
<polygon fill="lightgray" stroke="black" points="497.75,-191.91 469.75,-191.91 469.75,-173.41 497.75,-173.41 497.75,-191.91"/>
<text xml:space="preserve" text-anchor="middle" x="483.75" y="-179.36" font-family="Times New Roman,serif" font-size="9.00">&#45;12</text>
</g>
<!-- &#45;13 -->
<g id="node13" class="node">
<title>&#45;13</title>
<polygon fill="lightgray" stroke="black" points="543.75,-191.91 515.75,-191.91 515.75,-173.41 543.75,-173.41 543.75,-191.91"/>
<text xml:space="preserve" text-anchor="middle" x="529.75" y="-179.36" font-family="Times New Roman,serif" font-size="9.00">&#45;13</text>
</g>
<!-- &#45;14 -->
<g id="node14" class="node">
<title>&#45;14</title>
<polygon fill="lightgray" stroke="black" points="589.75,-191.91 561.75,-191.91 561.75,-173.41 589.75,-173.41 589.75,-191.91"/>
<text xml:space="preserve" text-anchor="middle" x="575.75" y="-179.36" font-family="Times New Roman,serif" font-size="9.00">&#45;14</text>
</g>
<!-- &#45;15 -->
<g id="node15" class="node">
<title>&#45;15</title>
<polygon fill="lightgray" stroke="black" points="635.75,-191.91 607.75,-191.91 607.75,-173.41 635.75,-173.41 635.75,-191.91"/>
<text xml:space="preserve" text-anchor="middle" x="621.75" y="-179.36" font-family="Times New Roman,serif" font-size="9.00">&#45;15</text>
</g>
<!-- &#45;16 -->
<g id="node16" class="node">
<title>&#45;16</title>
<polygon fill="lightgray" stroke="black" points="681.75,-191.91 653.75,-191.91 653.75,-173.41 681.75,-173.41 681.75,-191.91"/>
<text xml:space="preserve" text-anchor="middle" x="667.75" y="-179.36" font-family="Times New Roman,serif" font-size="9.00">&#45;16</text>
</g>
<!-- &#45;17 -->
<g id="node17" class="node">
<title>&#45;17</title>
<polygon fill="lightgray" stroke="black" points="727.75,-191.91 699.75,-191.91 699.75,-173.41 727.75,-173.41 727.75,-191.91"/>
<text xml:space="preserve" text-anchor="middle" x="713.75" y="-179.36" font-family="Times New Roman,serif" font-size="9.00">&#45;17</text>
</g>
<!-- &#45;18 -->
<g id="node18" class="node">
<title>&#45;18</title>
<polygon fill="lightgray" stroke="black" points="773.75,-191.91 745.75,-191.91 745.75,-173.41 773.75,-173.41 773.75,-191.91"/>
<text xml:space="preserve" text-anchor="middle" x="759.75" y="-179.36" font-family="Times New Roman,serif" font-size="9.00">&#45;18</text>
</g>
<!-- 1 -->
<g id="node24" class="node">
<title>1</title>
<ellipse fill="lightblue" stroke="black" cx="759.75" cy="-92.21" rx="14.5" ry="14.5"/>
<text xml:space="preserve" text-anchor="middle" x="759.75" y="-88.91" font-family="Times New Roman,serif" font-size="9.00">1</text>
</g>
<!-- &#45;18&#45;&gt;1 -->
<g id="edge1" class="edge">
<title>&#45;18&#45;&gt;1</title>
<path fill="none" stroke="green" stroke-width="2.04" d="M759.75,-173.18C759.75,-161.04 759.75,-138.18 759.75,-120"/>
<polygon fill="green" stroke="green" stroke-width="2.04" points="763.25,-120.07 759.75,-110.07 756.25,-120.07 763.25,-120.07"/>
</g>
<!-- &#45;19 -->
<g id="node19" class="node">
<title>&#45;19</title>
<polygon fill="lightgray" stroke="black" points="819.75,-191.91 791.75,-191.91 791.75,-173.41 819.75,-173.41 819.75,-191.91"/>
<text xml:space="preserve" text-anchor="middle" x="805.75" y="-179.36" font-family="Times New Roman,serif" font-size="9.00">&#45;19</text>
</g>
<!-- &#45;20 -->
<g id="node20" class="node">
<title>&#45;20</title>
<polygon fill="lightgray" stroke="black" points="865.75,-191.91 837.75,-191.91 837.75,-173.41 865.75,-173.41 865.75,-191.91"/>
<text xml:space="preserve" text-anchor="middle" x="851.75" y="-179.36" font-family="Times New Roman,serif" font-size="9.00">&#45;20</text>
</g>
<!-- &#45;21 -->
<g id="node21" class="node">
<title>&#45;21</title>
<polygon fill="lightgray" stroke="black" points="911.75,-191.91 883.75,-191.91 883.75,-173.41 911.75,-173.41 911.75,-191.91"/>
<text xml:space="preserve" text-anchor="middle" x="897.75" y="-179.36" font-family="Times New Roman,serif" font-size="9.00">&#45;21</text>
</g>
<!-- &#45;22 -->
<g id="node22" class="node">
<title>&#45;22</title>
<polygon fill="lightgray" stroke="black" points="957.75,-191.91 929.75,-191.91 929.75,-173.41 957.75,-173.41 957.75,-191.91"/>
<text xml:space="preserve" text-anchor="middle" x="943.75" y="-179.36" font-family="Times New Roman,serif" font-size="9.00">&#45;22</text>
</g>
<!-- 0 -->
<g id="node23" class="node">
<title>0</title>
<ellipse fill="lightblue" stroke="black" cx="95.75" cy="-14.5" rx="14.5" ry="14.5"/>
<text xml:space="preserve" text-anchor="middle" x="95.75" y="-11.2" font-family="Times New Roman,serif" font-size="9.00">0</text>
</g>
<!-- 63395 -->
<g id="node25" class="node">
<title>63395</title>
<ellipse fill="white" stroke="black" cx="1002.75" cy="-182.66" rx="27.22" ry="27.22"/>
<text xml:space="preserve" text-anchor="middle" x="1002.75" y="-179.36" font-family="Times New Roman,serif" font-size="9.00">63395</text>
</g>
<!-- 75920&#45;&gt;0 -->
<g id="edge3" class="edge">
<title>75920&#45;&gt;0</title>
<path fill="none" stroke="red" stroke-width="0.18" d="M95.75,-64.73C95.75,-56.52 95.75,-47.53 95.75,-39.5"/>
<polygon fill="red" stroke="red" stroke-width="0.18" points="99.25,-39.58 95.75,-29.58 92.25,-39.58 99.25,-39.58"/>
</g>
</g>
</svg>
