<?xml version="1.0" encoding="UTF-8" standalone="no"?>
<!DOCTYPE svg PUBLIC "-//W3C//DTD SVG 1.1//EN"
 "http://www.w3.org/Graphics/SVG/1.1/DTD/svg11.dtd">
<!-- Generated by graphviz version 14.0.2 (20251019.1705)
 -->
<!-- Pages: 1 -->
<svg width="2712pt" height="327pt"
 viewBox="0.00 0.00 2712.00 327.00" xmlns="http://www.w3.org/2000/svg" xmlns:xlink="http://www.w3.org/1999/xlink">
<g id="graph0" class="graph" transform="scale(1 1) rotate(0) translate(4 323.42)">
<polygon fill="white" stroke="none" points="-4,4 -4,-323.42 2708.44,-323.42 2708.44,4 -4,4"/>
<!-- x -->
<g id="node1" class="node">
<title>x</title>
<polygon fill="lightgray" stroke="black" points="228.28,-298.27 207.78,-298.27 207.78,-279.77 228.28,-279.77 228.28,-298.27"/>
<text xml:space="preserve" text-anchor="middle" x="218.03" y="-285.72" font-family="Times New Roman,serif" font-size="9.00">x</text>
</g>
<!-- dx -->
<g id="node2" class="node">
<title>dx</title>
<polygon fill="lightgray" stroke="black" points="35.53,-201.46 10.53,-201.46 10.53,-182.96 35.53,-182.96 35.53,-201.46"/>
<text xml:space="preserve" text-anchor="middle" x="23.03" y="-188.91" font-family="Times New Roman,serif" font-size="9.00">dx</text>
</g>
<!-- 1 -->
<g id="node54" class="node">
<title>1</title>
<ellipse fill="lightblue" stroke="black" cx="160.03" cy="-14.5" rx="14.5" ry="14.5"/>
<text xml:space="preserve" text-anchor="middle" x="160.03" y="-11.2" font-family="Times New Roman,serif" font-size="9.00">1</text>
</g>
<!-- dx&#45;&gt;1 -->
<g id="edge1" class="edge">
<title>dx&#45;&gt;1</title>
<path fill="none" stroke="red" stroke-width="0.82" stroke-dasharray="1,5" d="M18.87,-182.53C8.97,-160.51 -13.26,-101.59 13.03,-64.99 40.72,-26.45 99.94,-17.52 134.17,-15.69"/>
<polygon fill="red" stroke="red" stroke-width="0.82" points="134.03,-19.2 143.9,-15.35 133.79,-12.2 134.03,-19.2"/>
</g>
<!-- 340383 -->
<g id="node55" class="node">
<title>340383</title>
<ellipse fill="white" stroke="black" cx="52.03" cy="-95.4" rx="30.41" ry="30.41"/>
<text xml:space="preserve" text-anchor="middle" x="52.03" y="-92.1" font-family="Times New Roman,serif" font-size="9.00">340383</text>
</g>
<!-- dx&#45;&gt;340383 -->
<g id="edge16" class="edge">
<title>dx&#45;&gt;340383</title>
<path fill="none" stroke="green" stroke-width="5.22" d="M25.71,-182.46C28.69,-172.69 33.75,-156.16 38.64,-140.18"/>
<polygon fill="green" stroke="green" stroke-width="5.22" points="42.99,-141.56 41.55,-130.66 34.26,-138.89 42.99,-141.56"/>
</g>
<!-- theta -->
<g id="node3" class="node">
<title>theta</title>
<polygon fill="lightgray" stroke="black" points="406.28,-298.27 373.78,-298.27 373.78,-279.77 406.28,-279.77 406.28,-298.27"/>
<text xml:space="preserve" text-anchor="middle" x="390.03" y="-285.72" font-family="Times New Roman,serif" font-size="9.00">theta</text>
</g>
<!-- dtheta -->
<g id="node4" class="node">
<title>dtheta</title>
<polygon fill="lightgray" stroke="black" points="465.53,-298.27 428.53,-298.27 428.53,-279.77 465.53,-279.77 465.53,-298.27"/>
<text xml:space="preserve" text-anchor="middle" x="447.03" y="-285.72" font-family="Times New Roman,serif" font-size="9.00">dtheta</text>
</g>
<!-- &#45;5 -->
<g id="node5" class="node">
<title>&#45;5</title>
<polygon fill="lightgray" stroke="black" points="508.78,-298.27 485.28,-298.27 485.28,-279.77 508.78,-279.77 508.78,-298.27"/>
<text xml:space="preserve" text-anchor="middle" x="497.03" y="-285.72" font-family="Times New Roman,serif" font-size="9.00">&#45;5</text>
</g>
<!-- 568674 -->
<g id="node60" class="node">
<title>568674</title>
<ellipse fill="white" stroke="black" cx="497.03" cy="-192.21" rx="30.41" ry="30.41"/>
<text xml:space="preserve" text-anchor="middle" x="497.03" y="-188.91" font-family="Times New Roman,serif" font-size="9.00">568674</text>
</g>
<!-- &#45;5&#45;&gt;568674 -->
<g id="edge4" class="edge">
<title>&#45;5&#45;&gt;568674</title>
<path fill="none" stroke="red" stroke-width="0.17" d="M497.03,-279.27C497.03,-268.62 497.03,-249.9 497.03,-232.64"/>
<polygon fill="red" stroke="red" stroke-width="0.17" points="500.53,-232.98 497.03,-222.98 493.53,-232.98 500.53,-232.98"/>
</g>
<!-- &#45;6 -->
<g id="node6" class="node">
<title>&#45;6</title>
<polygon fill="lightgray" stroke="black" points="550.78,-298.27 527.28,-298.27 527.28,-279.77 550.78,-279.77 550.78,-298.27"/>
<text xml:space="preserve" text-anchor="middle" x="539.03" y="-285.72" font-family="Times New Roman,serif" font-size="9.00">&#45;6</text>
</g>
<!-- &#45;7 -->
<g id="node7" class="node">
<title>&#45;7</title>
<polygon fill="lightgray" stroke="black" points="592.78,-298.27 569.28,-298.27 569.28,-279.77 592.78,-279.77 592.78,-298.27"/>
<text xml:space="preserve" text-anchor="middle" x="581.03" y="-285.72" font-family="Times New Roman,serif" font-size="9.00">&#45;7</text>
</g>
<!-- &#45;8 -->
<g id="node8" class="node">
<title>&#45;8</title>
<polygon fill="lightgray" stroke="black" points="634.78,-298.27 611.28,-298.27 611.28,-279.77 634.78,-279.77 634.78,-298.27"/>
<text xml:space="preserve" text-anchor="middle" x="623.03" y="-285.72" font-family="Times New Roman,serif" font-size="9.00">&#45;8</text>
</g>
<!-- &#45;9 -->
<g id="node9" class="node">
<title>&#45;9</title>
<polygon fill="lightgray" stroke="black" points="676.78,-298.27 653.28,-298.27 653.28,-279.77 676.78,-279.77 676.78,-298.27"/>
<text xml:space="preserve" text-anchor="middle" x="665.03" y="-285.72" font-family="Times New Roman,serif" font-size="9.00">&#45;9</text>
</g>
<!-- &#45;10 -->
<g id="node10" class="node">
<title>&#45;10</title>
<polygon fill="lightgray" stroke="black" points="723.03,-298.27 695.03,-298.27 695.03,-279.77 723.03,-279.77 723.03,-298.27"/>
<text xml:space="preserve" text-anchor="middle" x="709.03" y="-285.72" font-family="Times New Roman,serif" font-size="9.00">&#45;10</text>
</g>
<!-- 598400 -->
<g id="node64" class="node">
<title>598400</title>
<ellipse fill="white" stroke="black" cx="709.03" cy="-192.21" rx="30.41" ry="30.41"/>
<text xml:space="preserve" text-anchor="middle" x="709.03" y="-188.91" font-family="Times New Roman,serif" font-size="9.00">598400</text>
</g>
<!-- &#45;10&#45;&gt;598400 -->
<g id="edge5" class="edge">
<title>&#45;10&#45;&gt;598400</title>
<path fill="none" stroke="red" stroke-width="0.2" d="M709.03,-279.27C709.03,-268.62 709.03,-249.9 709.03,-232.64"/>
<polygon fill="red" stroke="red" stroke-width="0.2" points="712.53,-233.02 709.03,-223.02 705.53,-233.02 712.53,-233.02"/>
</g>
<!-- &#45;11 -->
<g id="node11" class="node">
<title>&#45;11</title>
<polygon fill="lightgray" stroke="black" points="769.03,-298.27 741.03,-298.27 741.03,-279.77 769.03,-279.77 769.03,-298.27"/>
<text xml:space="preserve" text-anchor="middle" x="755.03" y="-285.72" font-family="Times New Roman,serif" font-size="9.00">&#45;11</text>
</g>
<!-- &#45;12 -->
<g id="node12" class="node">
<title>&#45;12</title>
<polygon fill="lightgray" stroke="black" points="815.03,-298.27 787.03,-298.27 787.03,-279.77 815.03,-279.77 815.03,-298.27"/>
<text xml:space="preserve" text-anchor="middle" x="801.03" y="-285.72" font-family="Times New Roman,serif" font-size="9.00">&#45;12</text>
</g>
<!-- &#45;13 -->
<g id="node13" class="node">
<title>&#45;13</title>
<polygon fill="lightgray" stroke="black" points="861.03,-298.27 833.03,-298.27 833.03,-279.77 861.03,-279.77 861.03,-298.27"/>
<text xml:space="preserve" text-anchor="middle" x="847.03" y="-285.72" font-family="Times New Roman,serif" font-size="9.00">&#45;13</text>
</g>
<!-- &#45;14 -->
<g id="node14" class="node">
<title>&#45;14</title>
<polygon fill="lightgray" stroke="black" points="907.03,-298.27 879.03,-298.27 879.03,-279.77 907.03,-279.77 907.03,-298.27"/>
<text xml:space="preserve" text-anchor="middle" x="893.03" y="-285.72" font-family="Times New Roman,serif" font-size="9.00">&#45;14</text>
</g>
<!-- &#45;15 -->
<g id="node15" class="node">
<title>&#45;15</title>
<polygon fill="lightgray" stroke="black" points="953.03,-298.27 925.03,-298.27 925.03,-279.77 953.03,-279.77 953.03,-298.27"/>
<text xml:space="preserve" text-anchor="middle" x="939.03" y="-285.72" font-family="Times New Roman,serif" font-size="9.00">&#45;15</text>
</g>
<!-- &#45;16 -->
<g id="node16" class="node">
<title>&#45;16</title>
<polygon fill="lightgray" stroke="black" points="999.03,-298.27 971.03,-298.27 971.03,-279.77 999.03,-279.77 999.03,-298.27"/>
<text xml:space="preserve" text-anchor="middle" x="985.03" y="-285.72" font-family="Times New Roman,serif" font-size="9.00">&#45;16</text>
</g>
<!-- &#45;17 -->
<g id="node17" class="node">
<title>&#45;17</title>
<polygon fill="lightgray" stroke="black" points="1045.03,-298.27 1017.03,-298.27 1017.03,-279.77 1045.03,-279.77 1045.03,-298.27"/>
<text xml:space="preserve" text-anchor="middle" x="1031.03" y="-285.72" font-family="Times New Roman,serif" font-size="9.00">&#45;17</text>
</g>
<!-- &#45;18 -->
<g id="node18" class="node">
<title>&#45;18</title>
<polygon fill="lightgray" stroke="black" points="1091.03,-298.27 1063.03,-298.27 1063.03,-279.77 1091.03,-279.77 1091.03,-298.27"/>
<text xml:space="preserve" text-anchor="middle" x="1077.03" y="-285.72" font-family="Times New Roman,serif" font-size="9.00">&#45;18</text>
</g>
<!-- &#45;19 -->
<g id="node19" class="node">
<title>&#45;19</title>
<polygon fill="lightgray" stroke="black" points="1137.03,-298.27 1109.03,-298.27 1109.03,-279.77 1137.03,-279.77 1137.03,-298.27"/>
<text xml:space="preserve" text-anchor="middle" x="1123.03" y="-285.72" font-family="Times New Roman,serif" font-size="9.00">&#45;19</text>
</g>
<!-- &#45;20 -->
<g id="node20" class="node">
<title>&#45;20</title>
<polygon fill="lightgray" stroke="black" points="1183.03,-298.27 1155.03,-298.27 1155.03,-279.77 1183.03,-279.77 1183.03,-298.27"/>
<text xml:space="preserve" text-anchor="middle" x="1169.03" y="-285.72" font-family="Times New Roman,serif" font-size="9.00">&#45;20</text>
</g>
<!-- &#45;21 -->
<g id="node21" class="node">
<title>&#45;21</title>
<polygon fill="lightgray" stroke="black" points="1229.03,-298.27 1201.03,-298.27 1201.03,-279.77 1229.03,-279.77 1229.03,-298.27"/>
<text xml:space="preserve" text-anchor="middle" x="1215.03" y="-285.72" font-family="Times New Roman,serif" font-size="9.00">&#45;21</text>
</g>
<!-- &#45;22 -->
<g id="node22" class="node">
<title>&#45;22</title>
<polygon fill="lightgray" stroke="black" points="1275.03,-298.27 1247.03,-298.27 1247.03,-279.77 1275.03,-279.77 1275.03,-298.27"/>
<text xml:space="preserve" text-anchor="middle" x="1261.03" y="-285.72" font-family="Times New Roman,serif" font-size="9.00">&#45;22</text>
</g>
<!-- &#45;23 -->
<g id="node23" class="node">
<title>&#45;23</title>
<polygon fill="lightgray" stroke="black" points="1321.03,-298.27 1293.03,-298.27 1293.03,-279.77 1321.03,-279.77 1321.03,-298.27"/>
<text xml:space="preserve" text-anchor="middle" x="1307.03" y="-285.72" font-family="Times New Roman,serif" font-size="9.00">&#45;23</text>
</g>
<!-- &#45;24 -->
<g id="node24" class="node">
<title>&#45;24</title>
<polygon fill="lightgray" stroke="black" points="1367.03,-298.27 1339.03,-298.27 1339.03,-279.77 1367.03,-279.77 1367.03,-298.27"/>
<text xml:space="preserve" text-anchor="middle" x="1353.03" y="-285.72" font-family="Times New Roman,serif" font-size="9.00">&#45;24</text>
</g>
<!-- &#45;25 -->
<g id="node25" class="node">
<title>&#45;25</title>
<polygon fill="lightgray" stroke="black" points="1413.03,-298.27 1385.03,-298.27 1385.03,-279.77 1413.03,-279.77 1413.03,-298.27"/>
<text xml:space="preserve" text-anchor="middle" x="1399.03" y="-285.72" font-family="Times New Roman,serif" font-size="9.00">&#45;25</text>
</g>
<!-- &#45;26 -->
<g id="node26" class="node">
<title>&#45;26</title>
<polygon fill="lightgray" stroke="black" points="1459.03,-298.27 1431.03,-298.27 1431.03,-279.77 1459.03,-279.77 1459.03,-298.27"/>
<text xml:space="preserve" text-anchor="middle" x="1445.03" y="-285.72" font-family="Times New Roman,serif" font-size="9.00">&#45;26</text>
</g>
<!-- &#45;27 -->
<g id="node27" class="node">
<title>&#45;27</title>
<polygon fill="lightgray" stroke="black" points="1505.03,-298.27 1477.03,-298.27 1477.03,-279.77 1505.03,-279.77 1505.03,-298.27"/>
<text xml:space="preserve" text-anchor="middle" x="1491.03" y="-285.72" font-family="Times New Roman,serif" font-size="9.00">&#45;27</text>
</g>
<!-- &#45;28 -->
<g id="node28" class="node">
<title>&#45;28</title>
<polygon fill="lightgray" stroke="black" points="1551.03,-298.27 1523.03,-298.27 1523.03,-279.77 1551.03,-279.77 1551.03,-298.27"/>
<text xml:space="preserve" text-anchor="middle" x="1537.03" y="-285.72" font-family="Times New Roman,serif" font-size="9.00">&#45;28</text>
</g>
<!-- &#45;29 -->
<g id="node29" class="node">
<title>&#45;29</title>
<polygon fill="lightgray" stroke="black" points="1597.03,-298.27 1569.03,-298.27 1569.03,-279.77 1597.03,-279.77 1597.03,-298.27"/>
<text xml:space="preserve" text-anchor="middle" x="1583.03" y="-285.72" font-family="Times New Roman,serif" font-size="9.00">&#45;29</text>
</g>
<!-- &#45;30 -->
<g id="node30" class="node">
<title>&#45;30</title>
<polygon fill="lightgray" stroke="black" points="1643.03,-298.27 1615.03,-298.27 1615.03,-279.77 1643.03,-279.77 1643.03,-298.27"/>
<text xml:space="preserve" text-anchor="middle" x="1629.03" y="-285.72" font-family="Times New Roman,serif" font-size="9.00">&#45;30</text>
</g>
<!-- &#45;31 -->
<g id="node31" class="node">
<title>&#45;31</title>
<polygon fill="lightgray" stroke="black" points="1689.03,-298.27 1661.03,-298.27 1661.03,-279.77 1689.03,-279.77 1689.03,-298.27"/>
<text xml:space="preserve" text-anchor="middle" x="1675.03" y="-285.72" font-family="Times New Roman,serif" font-size="9.00">&#45;31</text>
</g>
<!-- &#45;32 -->
<g id="node32" class="node">
<title>&#45;32</title>
<polygon fill="lightgray" stroke="black" points="1735.03,-298.27 1707.03,-298.27 1707.03,-279.77 1735.03,-279.77 1735.03,-298.27"/>
<text xml:space="preserve" text-anchor="middle" x="1721.03" y="-285.72" font-family="Times New Roman,serif" font-size="9.00">&#45;32</text>
</g>
<!-- &#45;33 -->
<g id="node33" class="node">
<title>&#45;33</title>
<polygon fill="lightgray" stroke="black" points="1781.03,-298.27 1753.03,-298.27 1753.03,-279.77 1781.03,-279.77 1781.03,-298.27"/>
<text xml:space="preserve" text-anchor="middle" x="1767.03" y="-285.72" font-family="Times New Roman,serif" font-size="9.00">&#45;33</text>
</g>
<!-- &#45;34 -->
<g id="node34" class="node">
<title>&#45;34</title>
<polygon fill="lightgray" stroke="black" points="1827.03,-298.27 1799.03,-298.27 1799.03,-279.77 1827.03,-279.77 1827.03,-298.27"/>
<text xml:space="preserve" text-anchor="middle" x="1813.03" y="-285.72" font-family="Times New Roman,serif" font-size="9.00">&#45;34</text>
</g>
<!-- &#45;35 -->
<g id="node35" class="node">
<title>&#45;35</title>
<polygon fill="lightgray" stroke="black" points="1873.03,-298.27 1845.03,-298.27 1845.03,-279.77 1873.03,-279.77 1873.03,-298.27"/>
<text xml:space="preserve" text-anchor="middle" x="1859.03" y="-285.72" font-family="Times New Roman,serif" font-size="9.00">&#45;35</text>
</g>
<!-- &#45;36 -->
<g id="node36" class="node">
<title>&#45;36</title>
<polygon fill="lightgray" stroke="black" points="128.03,-104.65 100.03,-104.65 100.03,-86.15 128.03,-86.15 128.03,-104.65"/>
<text xml:space="preserve" text-anchor="middle" x="114.03" y="-92.1" font-family="Times New Roman,serif" font-size="9.00">&#45;36</text>
</g>
<!-- &#45;36&#45;&gt;1 -->
<g id="edge2" class="edge">
<title>&#45;36&#45;&gt;1</title>
<path fill="none" stroke="red" stroke-width="0.25" stroke-dasharray="1,5" d="M119.13,-85.65C126.01,-73.85 138.49,-52.44 147.86,-36.36"/>
<polygon fill="red" stroke="red" stroke-width="0.25" points="150.75,-38.36 152.77,-27.96 144.71,-34.83 150.75,-38.36"/>
</g>
<!-- &#45;37 -->
<g id="node37" class="node">
<title>&#45;37</title>
<polygon fill="lightgray" stroke="black" points="1919.03,-298.27 1891.03,-298.27 1891.03,-279.77 1919.03,-279.77 1919.03,-298.27"/>
<text xml:space="preserve" text-anchor="middle" x="1905.03" y="-285.72" font-family="Times New Roman,serif" font-size="9.00">&#45;37</text>
</g>
<!-- &#45;38 -->
<g id="node38" class="node">
<title>&#45;38</title>
<polygon fill="lightgray" stroke="black" points="1965.03,-298.27 1937.03,-298.27 1937.03,-279.77 1965.03,-279.77 1965.03,-298.27"/>
<text xml:space="preserve" text-anchor="middle" x="1951.03" y="-285.72" font-family="Times New Roman,serif" font-size="9.00">&#45;38</text>
</g>
<!-- &#45;39 -->
<g id="node39" class="node">
<title>&#45;39</title>
<polygon fill="lightgray" stroke="black" points="2011.03,-298.27 1983.03,-298.27 1983.03,-279.77 2011.03,-279.77 2011.03,-298.27"/>
<text xml:space="preserve" text-anchor="middle" x="1997.03" y="-285.72" font-family="Times New Roman,serif" font-size="9.00">&#45;39</text>
</g>
<!-- &#45;40 -->
<g id="node40" class="node">
<title>&#45;40</title>
<polygon fill="lightgray" stroke="black" points="2057.03,-298.27 2029.03,-298.27 2029.03,-279.77 2057.03,-279.77 2057.03,-298.27"/>
<text xml:space="preserve" text-anchor="middle" x="2043.03" y="-285.72" font-family="Times New Roman,serif" font-size="9.00">&#45;40</text>
</g>
<!-- &#45;41 -->
<g id="node41" class="node">
<title>&#45;41</title>
<polygon fill="lightgray" stroke="black" points="2103.03,-298.27 2075.03,-298.27 2075.03,-279.77 2103.03,-279.77 2103.03,-298.27"/>
<text xml:space="preserve" text-anchor="middle" x="2089.03" y="-285.72" font-family="Times New Roman,serif" font-size="9.00">&#45;41</text>
</g>
<!-- &#45;42 -->
<g id="node42" class="node">
<title>&#45;42</title>
<polygon fill="lightgray" stroke="black" points="2149.03,-298.27 2121.03,-298.27 2121.03,-279.77 2149.03,-279.77 2149.03,-298.27"/>
<text xml:space="preserve" text-anchor="middle" x="2135.03" y="-285.72" font-family="Times New Roman,serif" font-size="9.00">&#45;42</text>
</g>
<!-- &#45;43 -->
<g id="node43" class="node">
<title>&#45;43</title>
<polygon fill="lightgray" stroke="black" points="2195.03,-298.27 2167.03,-298.27 2167.03,-279.77 2195.03,-279.77 2195.03,-298.27"/>
<text xml:space="preserve" text-anchor="middle" x="2181.03" y="-285.72" font-family="Times New Roman,serif" font-size="9.00">&#45;43</text>
</g>
<!-- &#45;44 -->
<g id="node44" class="node">
<title>&#45;44</title>
<polygon fill="lightgray" stroke="black" points="2241.03,-298.27 2213.03,-298.27 2213.03,-279.77 2241.03,-279.77 2241.03,-298.27"/>
<text xml:space="preserve" text-anchor="middle" x="2227.03" y="-285.72" font-family="Times New Roman,serif" font-size="9.00">&#45;44</text>
</g>
<!-- &#45;45 -->
<g id="node45" class="node">
<title>&#45;45</title>
<polygon fill="lightgray" stroke="black" points="2287.03,-298.27 2259.03,-298.27 2259.03,-279.77 2287.03,-279.77 2287.03,-298.27"/>
<text xml:space="preserve" text-anchor="middle" x="2273.03" y="-285.72" font-family="Times New Roman,serif" font-size="9.00">&#45;45</text>
</g>
<!-- &#45;46 -->
<g id="node46" class="node">
<title>&#45;46</title>
<polygon fill="lightgray" stroke="black" points="174.03,-104.65 146.03,-104.65 146.03,-86.15 174.03,-86.15 174.03,-104.65"/>
<text xml:space="preserve" text-anchor="middle" x="160.03" y="-92.1" font-family="Times New Roman,serif" font-size="9.00">&#45;46</text>
</g>
<!-- &#45;46&#45;&gt;1 -->
<g id="edge15" class="edge">
<title>&#45;46&#45;&gt;1</title>
<path fill="none" stroke="green" stroke-width="0.64" d="M160.03,-85.65C160.03,-74.78 160.03,-55.77 160.03,-40.28"/>
<polygon fill="green" stroke="green" stroke-width="0.64" points="163.53,-40.28 160.03,-30.28 156.53,-40.28 163.53,-40.28"/>
</g>
<!-- &#45;47 -->
<g id="node47" class="node">
<title>&#45;47</title>
<polygon fill="lightgray" stroke="black" points="2333.03,-298.27 2305.03,-298.27 2305.03,-279.77 2333.03,-279.77 2333.03,-298.27"/>
<text xml:space="preserve" text-anchor="middle" x="2319.03" y="-285.72" font-family="Times New Roman,serif" font-size="9.00">&#45;47</text>
</g>
<!-- &#45;48 -->
<g id="node48" class="node">
<title>&#45;48</title>
<polygon fill="lightgray" stroke="black" points="2379.03,-298.27 2351.03,-298.27 2351.03,-279.77 2379.03,-279.77 2379.03,-298.27"/>
<text xml:space="preserve" text-anchor="middle" x="2365.03" y="-285.72" font-family="Times New Roman,serif" font-size="9.00">&#45;48</text>
</g>
<!-- &#45;49 -->
<g id="node49" class="node">
<title>&#45;49</title>
<polygon fill="lightgray" stroke="black" points="353.03,-298.27 325.03,-298.27 325.03,-279.77 353.03,-279.77 353.03,-298.27"/>
<text xml:space="preserve" text-anchor="middle" x="339.03" y="-285.72" font-family="Times New Roman,serif" font-size="9.00">&#45;49</text>
</g>
<!-- 566250 -->
<g id="node57" class="node">
<title>566250</title>
<ellipse fill="white" stroke="black" cx="339.03" cy="-192.21" rx="30.41" ry="30.41"/>
<text xml:space="preserve" text-anchor="middle" x="339.03" y="-188.91" font-family="Times New Roman,serif" font-size="9.00">566250</text>
</g>
<!-- &#45;49&#45;&gt;566250 -->
<g id="edge14" class="edge">
<title>&#45;49&#45;&gt;566250</title>
<path fill="none" stroke="green" stroke-width="0.35" d="M339.03,-279.27C339.03,-268.72 339.03,-250.25 339.03,-233.13"/>
<polygon fill="green" stroke="green" stroke-width="0.35" points="342.53,-233.24 339.03,-223.24 335.53,-233.24 342.53,-233.24"/>
</g>
<!-- &#45;50 -->
<g id="node50" class="node">
<title>&#45;50</title>
<polygon fill="lightgray" stroke="black" points="274.03,-298.27 246.03,-298.27 246.03,-279.77 274.03,-279.77 274.03,-298.27"/>
<text xml:space="preserve" text-anchor="middle" x="260.03" y="-285.72" font-family="Times New Roman,serif" font-size="9.00">&#45;50</text>
</g>
<!-- 519319 -->
<g id="node56" class="node">
<title>519319</title>
<ellipse fill="white" stroke="black" cx="181.03" cy="-192.21" rx="30.41" ry="30.41"/>
<text xml:space="preserve" text-anchor="middle" x="181.03" y="-188.91" font-family="Times New Roman,serif" font-size="9.00">519319</text>
</g>
<!-- &#45;50&#45;&gt;519319 -->
<g id="edge11" class="edge">
<title>&#45;50&#45;&gt;519319</title>
<path fill="none" stroke="green" stroke-width="0.53" stroke-dasharray="1,5" d="M253.49,-279.45C248.94,-273.54 242.7,-265.54 237.03,-258.61 227.6,-247.09 217.03,-234.63 207.63,-223.71"/>
<polygon fill="green" stroke="green" stroke-width="0.53" points="210.43,-221.59 201.24,-216.31 205.13,-226.17 210.43,-221.59"/>
</g>
<!-- &#45;50&#45;&gt;566250 -->
<g id="edge9" class="edge">
<title>&#45;50&#45;&gt;566250</title>
<path fill="none" stroke="green" stroke-width="0.36" stroke-dasharray="1,5" d="M267.32,-279.27C277.68,-266.83 297.19,-243.42 313.25,-224.15"/>
<polygon fill="green" stroke="green" stroke-width="0.36" points="315.82,-226.53 319.54,-216.61 310.44,-222.05 315.82,-226.53"/>
</g>
<!-- 582011 -->
<g id="node61" class="node">
<title>582011</title>
<ellipse fill="white" stroke="black" cx="260.03" cy="-192.21" rx="30.41" ry="30.41"/>
<text xml:space="preserve" text-anchor="middle" x="260.03" y="-188.91" font-family="Times New Roman,serif" font-size="9.00">582011</text>
</g>
<!-- &#45;50&#45;&gt;582011 -->
<g id="edge8" class="edge">
<title>&#45;50&#45;&gt;582011</title>
<path fill="none" stroke="red" stroke-width="0.58" stroke-dasharray="1,5" d="M260.03,-279.27C260.03,-268.72 260.03,-250.25 260.03,-233.13"/>
<polygon fill="red" stroke="red" stroke-width="0.58" points="263.53,-233.6 260.03,-223.6 256.53,-233.6 263.53,-233.6"/>
</g>
<!-- &#45;51 -->
<g id="node51" class="node">
<title>&#45;51</title>
<polygon fill="lightgray" stroke="black" points="2425.03,-298.27 2397.03,-298.27 2397.03,-279.77 2425.03,-279.77 2425.03,-298.27"/>
<text xml:space="preserve" text-anchor="middle" x="2411.03" y="-285.72" font-family="Times New Roman,serif" font-size="9.00">&#45;51</text>
</g>
<!-- &#45;52 -->
<g id="node52" class="node">
<title>&#45;52</title>
<polygon fill="lightgray" stroke="black" points="2471.03,-298.27 2443.03,-298.27 2443.03,-279.77 2471.03,-279.77 2471.03,-298.27"/>
<text xml:space="preserve" text-anchor="middle" x="2457.03" y="-285.72" font-family="Times New Roman,serif" font-size="9.00">&#45;52</text>
</g>
<!-- control -->
<g id="node53" class="node">
<title>control</title>
<ellipse fill="lightblue" stroke="black" cx="2518.03" cy="-289.02" rx="28.81" ry="28.81"/>
<text xml:space="preserve" text-anchor="middle" x="2518.03" y="-285.72" font-family="Times New Roman,serif" font-size="9.00">control</text>
</g>
<!-- 340383&#45;&gt;1 -->
<g id="edge7" class="edge">
<title>340383&#45;&gt;1</title>
<path fill="none" stroke="red" stroke-width="1.95" d="M75.89,-76.27C80.88,-72.52 86.11,-68.61 91.03,-64.99 106.8,-53.39 124.78,-40.5 138.43,-30.79"/>
<polygon fill="red" stroke="red" stroke-width="1.95" points="140.2,-33.83 146.33,-25.18 136.15,-28.12 140.2,-33.83"/>
</g>
<!-- 519319&#45;&gt;1 -->
<g id="edge12" class="edge">
<title>519319&#45;&gt;1</title>
<path fill="none" stroke="green" stroke-width="0.5" stroke-dasharray="1,5" d="M185.31,-161.75C188.17,-135.92 190.22,-97.52 183.03,-64.99 180.88,-55.26 176.61,-45.16 172.33,-36.65"/>
<polygon fill="green" stroke="green" stroke-width="0.5" points="175.41,-34.99 167.6,-27.84 169.25,-38.31 175.41,-34.99"/>
</g>
<!-- 566846 -->
<g id="node58" class="node">
<title>566846</title>
<ellipse fill="white" stroke="black" cx="260.03" cy="-95.4" rx="30.41" ry="30.41"/>
<text xml:space="preserve" text-anchor="middle" x="260.03" y="-92.1" font-family="Times New Roman,serif" font-size="9.00">566846</text>
</g>
<!-- 566846&#45;&gt;1 -->
<g id="edge10" class="edge">
<title>566846&#45;&gt;1</title>
<path fill="none" stroke="green" stroke-width="0.46" stroke-dasharray="1,5" d="M236.33,-75.7C218.98,-62.01 195.73,-43.66 179.47,-30.83"/>
<polygon fill="green" stroke="green" stroke-width="0.46" points="181.8,-28.21 171.78,-24.77 177.47,-33.71 181.8,-28.21"/>
</g>
<!-- 567453 -->
<g id="node59" class="node">
<title>567453</title>
<ellipse fill="white" stroke="black" cx="2595.03" cy="-289.02" rx="30.41" ry="30.41"/>
<text xml:space="preserve" text-anchor="middle" x="2595.03" y="-285.72" font-family="Times New Roman,serif" font-size="9.00">567453</text>
</g>
<!-- 582011&#45;&gt;566846 -->
<g id="edge6" class="edge">
<title>582011&#45;&gt;566846</title>
<path fill="none" stroke="red" stroke-width="0.98" stroke-dasharray="1,5" d="M260.03,-161.47C260.03,-153.79 260.03,-145.39 260.03,-137.26"/>
<polygon fill="red" stroke="red" stroke-width="0.98" points="263.53,-137.51 260.03,-127.51 256.53,-137.51 263.53,-137.51"/>
</g>
<!-- 590524 -->
<g id="node62" class="node">
<title>590524</title>
<ellipse fill="white" stroke="black" cx="339.03" cy="-95.4" rx="30.41" ry="30.41"/>
<text xml:space="preserve" text-anchor="middle" x="339.03" y="-92.1" font-family="Times New Roman,serif" font-size="9.00">590524</text>
</g>
<!-- 590524&#45;&gt;1 -->
<g id="edge13" class="edge">
<title>590524&#45;&gt;1</title>
<path fill="none" stroke="green" stroke-width="0.31" d="M315.67,-75.48C310.38,-71.7 304.66,-67.98 299.03,-64.99 260.71,-44.65 212.26,-29.56 183.85,-21.68"/>
<polygon fill="green" stroke="green" stroke-width="0.31" points="185.03,-18.37 174.46,-19.13 183.2,-25.13 185.03,-18.37"/>
</g>
<!-- 597154 -->
<g id="node63" class="node">
<title>597154</title>
<ellipse fill="white" stroke="black" cx="2674.03" cy="-289.02" rx="30.41" ry="30.41"/>
<text xml:space="preserve" text-anchor="middle" x="2674.03" y="-285.72" font-family="Times New Roman,serif" font-size="9.00">597154</text>
</g>
<!-- 600827 -->
<g id="node65" class="node">
<title>600827</title>
<ellipse fill="white" stroke="black" cx="418.03" cy="-192.21" rx="30.41" ry="30.41"/>
<text xml:space="preserve" text-anchor="middle" x="418.03" y="-188.91" font-family="Times New Roman,serif" font-size="9.00">600827</text>
</g>
<!-- 600827&#45;&gt;566846 -->
<g id="edge3" class="edge">
<title>600827&#45;&gt;566846</title>
<path fill="none" stroke="red" stroke-width="0.9" d="M394.45,-172.67C389.18,-168.87 383.52,-165.04 378.03,-161.8 345.15,-142.4 332.91,-145.21 300.03,-125.8 297.63,-124.38 295.19,-122.85 292.77,-121.26"/>
<polygon fill="red" stroke="red" stroke-width="0.9" points="294.95,-118.51 284.73,-115.71 290.97,-124.27 294.95,-118.51"/>
</g>
</g>
</svg>
