<?xml version="1.0" encoding="UTF-8" standalone="no"?>
<!DOCTYPE svg PUBLIC "-//W3C//DTD SVG 1.1//EN"
 "http://www.w3.org/Graphics/SVG/1.1/DTD/svg11.dtd">
<!-- Generated by graphviz version 14.0.2 (20251019.1705)
 -->
<!-- Pages: 1 -->
<svg width="2632pt" height="231pt"
 viewBox="0.00 0.00 2632.00 231.00" xmlns="http://www.w3.org/2000/svg" xmlns:xlink="http://www.w3.org/1999/xlink">
<g id="graph0" class="graph" transform="scale(1 1) rotate(0) translate(4 226.61)">
<polygon fill="white" stroke="none" points="-4,4 -4,-226.61 2627.66,-226.61 2627.66,4 -4,4"/>
<!-- x -->
<g id="node1" class="node">
<title>x</title>
<polygon fill="lightgray" stroke="black" points="20.5,-201.46 0,-201.46 0,-182.96 20.5,-182.96 20.5,-201.46"/>
<text xml:space="preserve" text-anchor="middle" x="10.25" y="-188.91" font-family="Times New Roman,serif" font-size="9.00">x</text>
</g>
<!-- dx -->
<g id="node2" class="node">
<title>dx</title>
<polygon fill="lightgray" stroke="black" points="63.75,-201.46 38.75,-201.46 38.75,-182.96 63.75,-182.96 63.75,-201.46"/>
<text xml:space="preserve" text-anchor="middle" x="51.25" y="-188.91" font-family="Times New Roman,serif" font-size="9.00">dx</text>
</g>
<!-- 340383 -->
<g id="node58" class="node">
<title>340383</title>
<ellipse fill="white" stroke="black" cx="51.25" cy="-95.4" rx="30.41" ry="30.41"/>
<text xml:space="preserve" text-anchor="middle" x="51.25" y="-92.1" font-family="Times New Roman,serif" font-size="9.00">340383</text>
</g>
<!-- dx&#45;&gt;340383 -->
<g id="edge3" class="edge">
<title>dx&#45;&gt;340383</title>
<path fill="none" stroke="green" stroke-width="5.22" d="M51.25,-182.46C51.25,-173.1 51.25,-157.52 51.25,-142.17"/>
<polygon fill="green" stroke="green" stroke-width="5.22" points="55.81,-142.19 51.25,-132.19 46.69,-142.19 55.81,-142.19"/>
</g>
<!-- theta -->
<g id="node3" class="node">
<title>theta</title>
<polygon fill="lightgray" stroke="black" points="114.5,-201.46 82,-201.46 82,-182.96 114.5,-182.96 114.5,-201.46"/>
<text xml:space="preserve" text-anchor="middle" x="98.25" y="-188.91" font-family="Times New Roman,serif" font-size="9.00">theta</text>
</g>
<!-- dtheta -->
<g id="node4" class="node">
<title>dtheta</title>
<polygon fill="lightgray" stroke="black" points="169.75,-201.46 132.75,-201.46 132.75,-182.96 169.75,-182.96 169.75,-201.46"/>
<text xml:space="preserve" text-anchor="middle" x="151.25" y="-188.91" font-family="Times New Roman,serif" font-size="9.00">dtheta</text>
</g>
<!-- &#45;5 -->
<g id="node5" class="node">
<title>&#45;5</title>
<polygon fill="lightgray" stroke="black" points="211,-201.46 187.5,-201.46 187.5,-182.96 211,-182.96 211,-201.46"/>
<text xml:space="preserve" text-anchor="middle" x="199.25" y="-188.91" font-family="Times New Roman,serif" font-size="9.00">&#45;5</text>
</g>
<!-- &#45;6 -->
<g id="node6" class="node">
<title>&#45;6</title>
<polygon fill="lightgray" stroke="black" points="253,-201.46 229.5,-201.46 229.5,-182.96 253,-182.96 253,-201.46"/>
<text xml:space="preserve" text-anchor="middle" x="241.25" y="-188.91" font-family="Times New Roman,serif" font-size="9.00">&#45;6</text>
</g>
<!-- &#45;7 -->
<g id="node7" class="node">
<title>&#45;7</title>
<polygon fill="lightgray" stroke="black" points="295,-201.46 271.5,-201.46 271.5,-182.96 295,-182.96 295,-201.46"/>
<text xml:space="preserve" text-anchor="middle" x="283.25" y="-188.91" font-family="Times New Roman,serif" font-size="9.00">&#45;7</text>
</g>
<!-- &#45;8 -->
<g id="node8" class="node">
<title>&#45;8</title>
<polygon fill="lightgray" stroke="black" points="337,-201.46 313.5,-201.46 313.5,-182.96 337,-182.96 337,-201.46"/>
<text xml:space="preserve" text-anchor="middle" x="325.25" y="-188.91" font-family="Times New Roman,serif" font-size="9.00">&#45;8</text>
</g>
<!-- &#45;9 -->
<g id="node9" class="node">
<title>&#45;9</title>
<polygon fill="lightgray" stroke="black" points="379,-201.46 355.5,-201.46 355.5,-182.96 379,-182.96 379,-201.46"/>
<text xml:space="preserve" text-anchor="middle" x="367.25" y="-188.91" font-family="Times New Roman,serif" font-size="9.00">&#45;9</text>
</g>
<!-- &#45;10 -->
<g id="node10" class="node">
<title>&#45;10</title>
<polygon fill="lightgray" stroke="black" points="425.25,-201.46 397.25,-201.46 397.25,-182.96 425.25,-182.96 425.25,-201.46"/>
<text xml:space="preserve" text-anchor="middle" x="411.25" y="-188.91" font-family="Times New Roman,serif" font-size="9.00">&#45;10</text>
</g>
<!-- &#45;11 -->
<g id="node11" class="node">
<title>&#45;11</title>
<polygon fill="lightgray" stroke="black" points="471.25,-201.46 443.25,-201.46 443.25,-182.96 471.25,-182.96 471.25,-201.46"/>
<text xml:space="preserve" text-anchor="middle" x="457.25" y="-188.91" font-family="Times New Roman,serif" font-size="9.00">&#45;11</text>
</g>
<!-- &#45;12 -->
<g id="node12" class="node">
<title>&#45;12</title>
<polygon fill="lightgray" stroke="black" points="517.25,-201.46 489.25,-201.46 489.25,-182.96 517.25,-182.96 517.25,-201.46"/>
<text xml:space="preserve" text-anchor="middle" x="503.25" y="-188.91" font-family="Times New Roman,serif" font-size="9.00">&#45;12</text>
</g>
<!-- &#45;13 -->
<g id="node13" class="node">
<title>&#45;13</title>
<polygon fill="lightgray" stroke="black" points="563.25,-201.46 535.25,-201.46 535.25,-182.96 563.25,-182.96 563.25,-201.46"/>
<text xml:space="preserve" text-anchor="middle" x="549.25" y="-188.91" font-family="Times New Roman,serif" font-size="9.00">&#45;13</text>
</g>
<!-- &#45;14 -->
<g id="node14" class="node">
<title>&#45;14</title>
<polygon fill="lightgray" stroke="black" points="609.25,-201.46 581.25,-201.46 581.25,-182.96 609.25,-182.96 609.25,-201.46"/>
<text xml:space="preserve" text-anchor="middle" x="595.25" y="-188.91" font-family="Times New Roman,serif" font-size="9.00">&#45;14</text>
</g>
<!-- &#45;15 -->
<g id="node15" class="node">
<title>&#45;15</title>
<polygon fill="lightgray" stroke="black" points="655.25,-201.46 627.25,-201.46 627.25,-182.96 655.25,-182.96 655.25,-201.46"/>
<text xml:space="preserve" text-anchor="middle" x="641.25" y="-188.91" font-family="Times New Roman,serif" font-size="9.00">&#45;15</text>
</g>
<!-- &#45;16 -->
<g id="node16" class="node">
<title>&#45;16</title>
<polygon fill="lightgray" stroke="black" points="701.25,-201.46 673.25,-201.46 673.25,-182.96 701.25,-182.96 701.25,-201.46"/>
<text xml:space="preserve" text-anchor="middle" x="687.25" y="-188.91" font-family="Times New Roman,serif" font-size="9.00">&#45;16</text>
</g>
<!-- &#45;17 -->
<g id="node17" class="node">
<title>&#45;17</title>
<polygon fill="lightgray" stroke="black" points="747.25,-201.46 719.25,-201.46 719.25,-182.96 747.25,-182.96 747.25,-201.46"/>
<text xml:space="preserve" text-anchor="middle" x="733.25" y="-188.91" font-family="Times New Roman,serif" font-size="9.00">&#45;17</text>
</g>
<!-- &#45;18 -->
<g id="node18" class="node">
<title>&#45;18</title>
<polygon fill="lightgray" stroke="black" points="793.25,-201.46 765.25,-201.46 765.25,-182.96 793.25,-182.96 793.25,-201.46"/>
<text xml:space="preserve" text-anchor="middle" x="779.25" y="-188.91" font-family="Times New Roman,serif" font-size="9.00">&#45;18</text>
</g>
<!-- &#45;19 -->
<g id="node19" class="node">
<title>&#45;19</title>
<polygon fill="lightgray" stroke="black" points="839.25,-201.46 811.25,-201.46 811.25,-182.96 839.25,-182.96 839.25,-201.46"/>
<text xml:space="preserve" text-anchor="middle" x="825.25" y="-188.91" font-family="Times New Roman,serif" font-size="9.00">&#45;19</text>
</g>
<!-- &#45;20 -->
<g id="node20" class="node">
<title>&#45;20</title>
<polygon fill="lightgray" stroke="black" points="885.25,-201.46 857.25,-201.46 857.25,-182.96 885.25,-182.96 885.25,-201.46"/>
<text xml:space="preserve" text-anchor="middle" x="871.25" y="-188.91" font-family="Times New Roman,serif" font-size="9.00">&#45;20</text>
</g>
<!-- &#45;21 -->
<g id="node21" class="node">
<title>&#45;21</title>
<polygon fill="lightgray" stroke="black" points="931.25,-201.46 903.25,-201.46 903.25,-182.96 931.25,-182.96 931.25,-201.46"/>
<text xml:space="preserve" text-anchor="middle" x="917.25" y="-188.91" font-family="Times New Roman,serif" font-size="9.00">&#45;21</text>
</g>
<!-- &#45;22 -->
<g id="node22" class="node">
<title>&#45;22</title>
<polygon fill="lightgray" stroke="black" points="977.25,-201.46 949.25,-201.46 949.25,-182.96 977.25,-182.96 977.25,-201.46"/>
<text xml:space="preserve" text-anchor="middle" x="963.25" y="-188.91" font-family="Times New Roman,serif" font-size="9.00">&#45;22</text>
</g>
<!-- &#45;23 -->
<g id="node23" class="node">
<title>&#45;23</title>
<polygon fill="lightgray" stroke="black" points="1023.25,-201.46 995.25,-201.46 995.25,-182.96 1023.25,-182.96 1023.25,-201.46"/>
<text xml:space="preserve" text-anchor="middle" x="1009.25" y="-188.91" font-family="Times New Roman,serif" font-size="9.00">&#45;23</text>
</g>
<!-- &#45;24 -->
<g id="node24" class="node">
<title>&#45;24</title>
<polygon fill="lightgray" stroke="black" points="1069.25,-201.46 1041.25,-201.46 1041.25,-182.96 1069.25,-182.96 1069.25,-201.46"/>
<text xml:space="preserve" text-anchor="middle" x="1055.25" y="-188.91" font-family="Times New Roman,serif" font-size="9.00">&#45;24</text>
</g>
<!-- &#45;25 -->
<g id="node25" class="node">
<title>&#45;25</title>
<polygon fill="lightgray" stroke="black" points="1115.25,-201.46 1087.25,-201.46 1087.25,-182.96 1115.25,-182.96 1115.25,-201.46"/>
<text xml:space="preserve" text-anchor="middle" x="1101.25" y="-188.91" font-family="Times New Roman,serif" font-size="9.00">&#45;25</text>
</g>
<!-- &#45;26 -->
<g id="node26" class="node">
<title>&#45;26</title>
<polygon fill="lightgray" stroke="black" points="1161.25,-201.46 1133.25,-201.46 1133.25,-182.96 1161.25,-182.96 1161.25,-201.46"/>
<text xml:space="preserve" text-anchor="middle" x="1147.25" y="-188.91" font-family="Times New Roman,serif" font-size="9.00">&#45;26</text>
</g>
<!-- &#45;27 -->
<g id="node27" class="node">
<title>&#45;27</title>
<polygon fill="lightgray" stroke="black" points="1207.25,-201.46 1179.25,-201.46 1179.25,-182.96 1207.25,-182.96 1207.25,-201.46"/>
<text xml:space="preserve" text-anchor="middle" x="1193.25" y="-188.91" font-family="Times New Roman,serif" font-size="9.00">&#45;27</text>
</g>
<!-- &#45;28 -->
<g id="node28" class="node">
<title>&#45;28</title>
<polygon fill="lightgray" stroke="black" points="1253.25,-201.46 1225.25,-201.46 1225.25,-182.96 1253.25,-182.96 1253.25,-201.46"/>
<text xml:space="preserve" text-anchor="middle" x="1239.25" y="-188.91" font-family="Times New Roman,serif" font-size="9.00">&#45;28</text>
</g>
<!-- &#45;29 -->
<g id="node29" class="node">
<title>&#45;29</title>
<polygon fill="lightgray" stroke="black" points="1299.25,-201.46 1271.25,-201.46 1271.25,-182.96 1299.25,-182.96 1299.25,-201.46"/>
<text xml:space="preserve" text-anchor="middle" x="1285.25" y="-188.91" font-family="Times New Roman,serif" font-size="9.00">&#45;29</text>
</g>
<!-- &#45;30 -->
<g id="node30" class="node">
<title>&#45;30</title>
<polygon fill="lightgray" stroke="black" points="1345.25,-201.46 1317.25,-201.46 1317.25,-182.96 1345.25,-182.96 1345.25,-201.46"/>
<text xml:space="preserve" text-anchor="middle" x="1331.25" y="-188.91" font-family="Times New Roman,serif" font-size="9.00">&#45;30</text>
</g>
<!-- &#45;31 -->
<g id="node31" class="node">
<title>&#45;31</title>
<polygon fill="lightgray" stroke="black" points="1391.25,-201.46 1363.25,-201.46 1363.25,-182.96 1391.25,-182.96 1391.25,-201.46"/>
<text xml:space="preserve" text-anchor="middle" x="1377.25" y="-188.91" font-family="Times New Roman,serif" font-size="9.00">&#45;31</text>
</g>
<!-- &#45;32 -->
<g id="node32" class="node">
<title>&#45;32</title>
<polygon fill="lightgray" stroke="black" points="1437.25,-201.46 1409.25,-201.46 1409.25,-182.96 1437.25,-182.96 1437.25,-201.46"/>
<text xml:space="preserve" text-anchor="middle" x="1423.25" y="-188.91" font-family="Times New Roman,serif" font-size="9.00">&#45;32</text>
</g>
<!-- &#45;33 -->
<g id="node33" class="node">
<title>&#45;33</title>
<polygon fill="lightgray" stroke="black" points="1483.25,-201.46 1455.25,-201.46 1455.25,-182.96 1483.25,-182.96 1483.25,-201.46"/>
<text xml:space="preserve" text-anchor="middle" x="1469.25" y="-188.91" font-family="Times New Roman,serif" font-size="9.00">&#45;33</text>
</g>
<!-- &#45;34 -->
<g id="node34" class="node">
<title>&#45;34</title>
<polygon fill="lightgray" stroke="black" points="1529.25,-201.46 1501.25,-201.46 1501.25,-182.96 1529.25,-182.96 1529.25,-201.46"/>
<text xml:space="preserve" text-anchor="middle" x="1515.25" y="-188.91" font-family="Times New Roman,serif" font-size="9.00">&#45;34</text>
</g>
<!-- &#45;35 -->
<g id="node35" class="node">
<title>&#45;35</title>
<polygon fill="lightgray" stroke="black" points="1575.25,-201.46 1547.25,-201.46 1547.25,-182.96 1575.25,-182.96 1575.25,-201.46"/>
<text xml:space="preserve" text-anchor="middle" x="1561.25" y="-188.91" font-family="Times New Roman,serif" font-size="9.00">&#45;35</text>
</g>
<!-- &#45;36 -->
<g id="node36" class="node">
<title>&#45;36</title>
<polygon fill="lightgray" stroke="black" points="1621.25,-201.46 1593.25,-201.46 1593.25,-182.96 1621.25,-182.96 1621.25,-201.46"/>
<text xml:space="preserve" text-anchor="middle" x="1607.25" y="-188.91" font-family="Times New Roman,serif" font-size="9.00">&#45;36</text>
</g>
<!-- &#45;37 -->
<g id="node37" class="node">
<title>&#45;37</title>
<polygon fill="lightgray" stroke="black" points="1667.25,-201.46 1639.25,-201.46 1639.25,-182.96 1667.25,-182.96 1667.25,-201.46"/>
<text xml:space="preserve" text-anchor="middle" x="1653.25" y="-188.91" font-family="Times New Roman,serif" font-size="9.00">&#45;37</text>
</g>
<!-- &#45;38 -->
<g id="node38" class="node">
<title>&#45;38</title>
<polygon fill="lightgray" stroke="black" points="1713.25,-201.46 1685.25,-201.46 1685.25,-182.96 1713.25,-182.96 1713.25,-201.46"/>
<text xml:space="preserve" text-anchor="middle" x="1699.25" y="-188.91" font-family="Times New Roman,serif" font-size="9.00">&#45;38</text>
</g>
<!-- &#45;39 -->
<g id="node39" class="node">
<title>&#45;39</title>
<polygon fill="lightgray" stroke="black" points="1759.25,-201.46 1731.25,-201.46 1731.25,-182.96 1759.25,-182.96 1759.25,-201.46"/>
<text xml:space="preserve" text-anchor="middle" x="1745.25" y="-188.91" font-family="Times New Roman,serif" font-size="9.00">&#45;39</text>
</g>
<!-- &#45;40 -->
<g id="node40" class="node">
<title>&#45;40</title>
<polygon fill="lightgray" stroke="black" points="1805.25,-201.46 1777.25,-201.46 1777.25,-182.96 1805.25,-182.96 1805.25,-201.46"/>
<text xml:space="preserve" text-anchor="middle" x="1791.25" y="-188.91" font-family="Times New Roman,serif" font-size="9.00">&#45;40</text>
</g>
<!-- &#45;41 -->
<g id="node41" class="node">
<title>&#45;41</title>
<polygon fill="lightgray" stroke="black" points="1851.25,-201.46 1823.25,-201.46 1823.25,-182.96 1851.25,-182.96 1851.25,-201.46"/>
<text xml:space="preserve" text-anchor="middle" x="1837.25" y="-188.91" font-family="Times New Roman,serif" font-size="9.00">&#45;41</text>
</g>
<!-- &#45;42 -->
<g id="node42" class="node">
<title>&#45;42</title>
<polygon fill="lightgray" stroke="black" points="1897.25,-201.46 1869.25,-201.46 1869.25,-182.96 1897.25,-182.96 1897.25,-201.46"/>
<text xml:space="preserve" text-anchor="middle" x="1883.25" y="-188.91" font-family="Times New Roman,serif" font-size="9.00">&#45;42</text>
</g>
<!-- &#45;43 -->
<g id="node43" class="node">
<title>&#45;43</title>
<polygon fill="lightgray" stroke="black" points="1943.25,-201.46 1915.25,-201.46 1915.25,-182.96 1943.25,-182.96 1943.25,-201.46"/>
<text xml:space="preserve" text-anchor="middle" x="1929.25" y="-188.91" font-family="Times New Roman,serif" font-size="9.00">&#45;43</text>
</g>
<!-- &#45;44 -->
<g id="node44" class="node">
<title>&#45;44</title>
<polygon fill="lightgray" stroke="black" points="1989.25,-201.46 1961.25,-201.46 1961.25,-182.96 1989.25,-182.96 1989.25,-201.46"/>
<text xml:space="preserve" text-anchor="middle" x="1975.25" y="-188.91" font-family="Times New Roman,serif" font-size="9.00">&#45;44</text>
</g>
<!-- &#45;45 -->
<g id="node45" class="node">
<title>&#45;45</title>
<polygon fill="lightgray" stroke="black" points="2035.25,-201.46 2007.25,-201.46 2007.25,-182.96 2035.25,-182.96 2035.25,-201.46"/>
<text xml:space="preserve" text-anchor="middle" x="2021.25" y="-188.91" font-family="Times New Roman,serif" font-size="9.00">&#45;45</text>
</g>
<!-- &#45;46 -->
<g id="node46" class="node">
<title>&#45;46</title>
<polygon fill="lightgray" stroke="black" points="127.25,-104.65 99.25,-104.65 99.25,-86.15 127.25,-86.15 127.25,-104.65"/>
<text xml:space="preserve" text-anchor="middle" x="113.25" y="-92.1" font-family="Times New Roman,serif" font-size="9.00">&#45;46</text>
</g>
<!-- 1 -->
<g id="node54" class="node">
<title>1</title>
<ellipse fill="lightblue" stroke="black" cx="82.25" cy="-14.5" rx="14.5" ry="14.5"/>
<text xml:space="preserve" text-anchor="middle" x="82.25" y="-11.2" font-family="Times New Roman,serif" font-size="9.00">1</text>
</g>
<!-- &#45;46&#45;&gt;1 -->
<g id="edge2" class="edge">
<title>&#45;46&#45;&gt;1</title>
<path fill="none" stroke="green" stroke-width="0.64" d="M109.81,-85.65C105.38,-74.37 97.51,-54.33 91.31,-38.55"/>
<polygon fill="green" stroke="green" stroke-width="0.64" points="94.61,-37.39 87.7,-29.37 88.1,-39.95 94.61,-37.39"/>
</g>
<!-- &#45;47 -->
<g id="node47" class="node">
<title>&#45;47</title>
<polygon fill="lightgray" stroke="black" points="2081.25,-201.46 2053.25,-201.46 2053.25,-182.96 2081.25,-182.96 2081.25,-201.46"/>
<text xml:space="preserve" text-anchor="middle" x="2067.25" y="-188.91" font-family="Times New Roman,serif" font-size="9.00">&#45;47</text>
</g>
<!-- &#45;48 -->
<g id="node48" class="node">
<title>&#45;48</title>
<polygon fill="lightgray" stroke="black" points="2127.25,-201.46 2099.25,-201.46 2099.25,-182.96 2127.25,-182.96 2127.25,-201.46"/>
<text xml:space="preserve" text-anchor="middle" x="2113.25" y="-188.91" font-family="Times New Roman,serif" font-size="9.00">&#45;48</text>
</g>
<!-- &#45;49 -->
<g id="node49" class="node">
<title>&#45;49</title>
<polygon fill="lightgray" stroke="black" points="2173.25,-201.46 2145.25,-201.46 2145.25,-182.96 2173.25,-182.96 2173.25,-201.46"/>
<text xml:space="preserve" text-anchor="middle" x="2159.25" y="-188.91" font-family="Times New Roman,serif" font-size="9.00">&#45;49</text>
</g>
<!-- &#45;50 -->
<g id="node50" class="node">
<title>&#45;50</title>
<polygon fill="lightgray" stroke="black" points="2219.25,-201.46 2191.25,-201.46 2191.25,-182.96 2219.25,-182.96 2219.25,-201.46"/>
<text xml:space="preserve" text-anchor="middle" x="2205.25" y="-188.91" font-family="Times New Roman,serif" font-size="9.00">&#45;50</text>
</g>
<!-- &#45;51 -->
<g id="node51" class="node">
<title>&#45;51</title>
<polygon fill="lightgray" stroke="black" points="2265.25,-201.46 2237.25,-201.46 2237.25,-182.96 2265.25,-182.96 2265.25,-201.46"/>
<text xml:space="preserve" text-anchor="middle" x="2251.25" y="-188.91" font-family="Times New Roman,serif" font-size="9.00">&#45;51</text>
</g>
<!-- &#45;52 -->
<g id="node52" class="node">
<title>&#45;52</title>
<polygon fill="lightgray" stroke="black" points="2311.25,-201.46 2283.25,-201.46 2283.25,-182.96 2311.25,-182.96 2311.25,-201.46"/>
<text xml:space="preserve" text-anchor="middle" x="2297.25" y="-188.91" font-family="Times New Roman,serif" font-size="9.00">&#45;52</text>
</g>
<!-- control -->
<g id="node53" class="node">
<title>control</title>
<ellipse fill="lightblue" stroke="black" cx="2358.25" cy="-192.21" rx="28.81" ry="28.81"/>
<text xml:space="preserve" text-anchor="middle" x="2358.25" y="-188.91" font-family="Times New Roman,serif" font-size="9.00">control</text>
</g>
<!-- 519319 -->
<g id="node55" class="node">
<title>519319</title>
<ellipse fill="white" stroke="black" cx="2435.25" cy="-192.21" rx="30.41" ry="30.41"/>
<text xml:space="preserve" text-anchor="middle" x="2435.25" y="-188.91" font-family="Times New Roman,serif" font-size="9.00">519319</text>
</g>
<!-- 582011 -->
<g id="node56" class="node">
<title>582011</title>
<ellipse fill="white" stroke="black" cx="2514.25" cy="-192.21" rx="30.41" ry="30.41"/>
<text xml:space="preserve" text-anchor="middle" x="2514.25" y="-188.91" font-family="Times New Roman,serif" font-size="9.00">582011</text>
</g>
<!-- 566846 -->
<g id="node57" class="node">
<title>566846</title>
<ellipse fill="white" stroke="black" cx="2593.25" cy="-192.21" rx="30.41" ry="30.41"/>
<text xml:space="preserve" text-anchor="middle" x="2593.25" y="-188.91" font-family="Times New Roman,serif" font-size="9.00">566846</text>
</g>
<!-- 340383&#45;&gt;1 -->
<g id="edge1" class="edge">
<title>340383&#45;&gt;1</title>
<path fill="none" stroke="red" stroke-width="1.95" d="M62.09,-66.8C65.52,-58.07 69.29,-48.48 72.63,-39.98"/>
<polygon fill="red" stroke="red" stroke-width="1.95" points="75.79,-41.5 76.19,-30.91 69.28,-38.94 75.79,-41.5"/>
</g>
</g>
</svg>
